<mxfile host="app.diagrams.net" modified="2024-01-06T07:19:15.702Z" agent="Mozilla/5.0 (Macintosh; Intel Mac OS X 10_15_7) AppleWebKit/537.36 (KHTML, like Gecko) Chrome/120.0.0.0 Safari/537.36" etag="m5ATk-mTt55uYtamykFX" version="22.1.17" type="github">
  <diagram name="Page-1" id="rYX9AtzfOSRjN5AmoxPu">
    <mxGraphModel dx="1266" dy="769" grid="1" gridSize="10" guides="1" tooltips="1" connect="1" arrows="1" fold="1" page="1" pageScale="1" pageWidth="850" pageHeight="1100" math="0" shadow="0">
      <root>
        <mxCell id="0" />
        <mxCell id="1" parent="0" />
        <mxCell id="mC8NbQeeErdKrk85uzCq-26" value="" style="rounded=1;whiteSpace=wrap;html=1;fillColor=#d5e8d4;strokeColor=#82b366;" parent="1" vertex="1">
          <mxGeometry x="150" y="440" width="1140" height="690" as="geometry" />
        </mxCell>
        <mxCell id="mC8NbQeeErdKrk85uzCq-34" value="" style="rounded=1;whiteSpace=wrap;html=1;fillColor=#fff2cc;strokeColor=#d6b656;" parent="1" vertex="1">
          <mxGeometry x="400" y="870" width="810" height="190" as="geometry" />
        </mxCell>
        <mxCell id="mC8NbQeeErdKrk85uzCq-30" value="" style="rounded=1;whiteSpace=wrap;html=1;fillColor=#dae8fc;strokeColor=#6c8ebf;" parent="1" vertex="1">
          <mxGeometry x="400" y="480" width="814.3" height="320" as="geometry" />
        </mxCell>
        <mxCell id="G6czuGKD653RPVQLfgZw-1" value="" style="shape=image;html=1;verticalAlign=top;verticalLabelPosition=bottom;labelBackgroundColor=#ffffff;imageAspect=0;aspect=fixed;image=https://cdn1.iconfinder.com/data/icons/unicons-line-vol-3/24/docker-128.png" parent="1" vertex="1">
          <mxGeometry x="567.2" y="553" width="40" height="40" as="geometry" />
        </mxCell>
        <mxCell id="G6czuGKD653RPVQLfgZw-3" value="VideoKYC source code repo" style="image;html=1;image=img/lib/atlassian/Bitbucket_Logo.svg;" parent="1" vertex="1">
          <mxGeometry x="287.2" y="570" width="57" height="50" as="geometry" />
        </mxCell>
        <mxCell id="G6czuGKD653RPVQLfgZw-5" style="edgeStyle=orthogonalEdgeStyle;rounded=0;orthogonalLoop=1;jettySize=auto;html=1;exitX=1;exitY=0.5;exitDx=0;exitDy=0;" parent="1" source="G6czuGKD653RPVQLfgZw-3" target="G6czuGKD653RPVQLfgZw-4" edge="1">
          <mxGeometry relative="1" as="geometry" />
        </mxCell>
        <mxCell id="G6czuGKD653RPVQLfgZw-8" style="edgeStyle=orthogonalEdgeStyle;rounded=0;orthogonalLoop=1;jettySize=auto;html=1;" parent="1" source="G6czuGKD653RPVQLfgZw-4" edge="1">
          <mxGeometry relative="1" as="geometry">
            <mxPoint x="637.2" y="595" as="targetPoint" />
          </mxGeometry>
        </mxCell>
        <mxCell id="G6czuGKD653RPVQLfgZw-4" value="Jenkins Builder Job" style="shape=image;verticalLabelPosition=bottom;labelBackgroundColor=default;verticalAlign=top;aspect=fixed;imageAspect=0;image=data:image/svg+xml,PHN2ZyB4bWxucz0iaHR0cDovL3d3dy53My5vcmcvMjAwMC9zdmciIHdpZHRoPSI5Mi43NSIgdmlld0JveD0iMTcuNSAwLjAwOTI4NDM0NzI5NTc2MTEwOCA5Mi43NSAxMjcuOTQ5NzkwOTU0NTg5ODQiIHByZXNlcnZlQXNwZWN0UmF0aW89InhNaWRZTWlkIG1lZXQiIGhlaWdodD0iMTI3Ljk0OTc5MDk1NDU4OTg0Ij48cGF0aCBmaWxsPSIjMjAxZDFlIiBkPSJtNjMuNjI1IDEyNy44MjVjLTEuNDc1LS4xNzUtMy43NzUtLjYtNS4wMjUtLjk1bC0xLjMtLjM3NS0uNy0xLjkyNWMtLjQtMS4wNzUtMS4zNS00LjAyNS0yLjEtNi41NzVsLTEuNC00LjYyNS0xLjk3NS0uMTVjLTMuMDI1LS4yMjUtNC43NS0uNzc1LTkuNzI1LTMuMDc1LTIuNDc1LTEuMTUtNC44NzUtMi4yMjUtNS4zMjUtMi4zNzUtLjQyNS0uMTc1LTEuMDI1LS42LTEuMzUtLjkyNS0uNTI1LS41NzUtLjYtLjkyNS0uOC00LjcyNWwtLjItNC4xMjUtMS40LTEuM2MtNy43LTcuMjUtMTIuODc1LTE3LjI3NS0xNC40NS0yNy45NzUtLjUtMy40NzUtLjUtMTAuMjI1IDAtMTMuNyAxLjU1LTEwLjYgNi43MjUtMjAuNjc1IDE0LjIyNS0yNy43bDIuMS0xLjk3NS4zLTIuMDc1Yy40NzUtMy41NSAxLjc1LTYuMTI1IDMuNjI1LTcuMzI1LjU1LS4zNzUgMS0uOTc1IDEuMjc1LTEuNyAxLjMyNS0zLjQ1IDMuNDc1LTUuMzI1IDEwLjYtOS4yNSA0LjY1LTIuNTc1IDkuMDc1LTQuMTI1IDEzLjM3NS00Ljc1IDIuMzI1LS4zMjUgNy4yMjUtLjMyNSA5LjQ1LjAyNSA2LjM3NS45NSA5Ljk1IDIuNzUgMTQuNTI1IDcuMyAzLjEgMy4xIDQuODc1IDUuNTUgNS45MjUgOC4yNzUuODc1IDIuMjUgMS44MjUgNi41NSAyLjEgOS4zNzVsLjE3NSAxLjg1IDIuMzc1IDIuNjVjOC4wMjUgOC45NSAxMi4zMjUgMjAuMiAxMi4zMjUgMzIuMTUgMCA3LjYtMS43IDE0Ljg3NS01LjAyNSAyMS40MjVsLTEuMjc1IDIuNTI1Ljc3NS42YzEuMTUuOSAxLjkgMi4zNzUgMy4xNSA2LjE3NS45MjUgMi43NzUgMS4xMjUgMy43NSAxLjEyNSA1LjIyNSAwIDMuMDUtMS4xIDYuMjUtMi43IDcuNzUtMS4zMjUgMS4yNS00LjgyNSAxLjc1LTkgMS4yNzUtMS4zNzUtLjE1LTEuNjUtLjI3NS0yLjEyNS0uOTI1bC0uNTUtLjcyNS0yLjEyNS4xMjVjLTIuNi4xNzUtNCAuNi00IDEuMiAwIC44MjUtLjMyNSAxLjI1LTEuMjc1IDEuNzUtLjkyNS40NS0uOTc1LjU1LS45NzUgMS42IDAgLjYyNS4yNzUgMi40MjUuNjI1IDQuMDI1IDEuMjI1IDUuNjc1LjcyNSA2LjcyNS0zLjcyNSA3LjcyNS0uNy4xNS0uNy4xNS0uNTUgMS42MjUuMzI1IDIuODUtMS4xNzUgNC01LjgyNSA0LjQ3NS0yLjM1LjI1LTExLjM3NS4zMjUtMTMuMTUuMXoiLz48ZyBmaWxsPSIjMzM1MDYxIj48cGF0aCBkPSJtNTEuMzc1IDExMC4yMjVjLTIuNTc1LS4zNS02LjEtMS42NzUtMTAuNDc1LTMuOTI1LTMuMTc1LTEuNjI1LTQuMjUtMi4zLTQuMy0yLjY3NS0uMDI1LS4yNzUtLjEyNS0xLjk1LS4yLTMuNzUtLjQyNS04Ljk1LTIuNC0xOC43LTUuMy0yNi0uNjI1LTEuNi0xLjEtMi45NS0xLjA1LTMgLjAyNS0uMDI1IDEuNDc1LTEuMSAzLjItMi4zNzUgMy41MjUtMi42IDguMDc1LTUuMzc1IDEwLjc3NS02LjU1bDEuOC0uOCAyLjE1IDIuMjc1YzIuMyAyLjQ3NSAzLjUyNSAzLjMgNy43NzUgNS4zNWwyLjY3NSAxLjI3NS40NSAxLjkyNWMuMjUgMS4wNS44MjUgMy4xIDEuMjc1IDQuNTc1LjY3NSAyLjEgMS4wMjUgMi44IDEuNjI1IDMuMy44MjUuNyAxLjMyNS44IDIuMzI1LjQuODUtLjMyNS44MjUtLjEtLjIyNSAxLjM1LTEuMDI1IDEuNDI1LTEuMSAyLjM1LS4zIDMuMDc1LjU1LjUyNSA3LjEgMy44NSA5LjA1IDQuNmwxIC40LTIuMzc1LjE1Yy0xLjMuMS00LjE1LjI3NS02LjM1LjQyNS0zLjUyNS4yNS03Ljg3NS42NzUtMTEuMiAxLjE1LTEuMTI1LjE1LTEuMTc1LjE1LTEuMzc1LS41NS0uMjI1LS44MjUtLjI1LTQuODc1LS4wNzUtOC45LjEyNS0yLjctLjA1LTMuNC0uNzI1LTIuOTc1LS41NzUuMzUtLjcyNSAyLjE1LS40NSA1LjQ3NS4yNzUgMy40NS4wNzUgNi0uNDUgNi4yLS4xNzUuMDc1LS45MjUtLjI3NS0xLjY3NS0uNzUtLjcyNS0uNS0xLjQtLjktMS41LS45LS4zNzUgMC0uMi45NS4zIDEuNTc1LjI3NS4zNS41LjguNSAxLjAyNSAwIC40MjUtLjc1LjktMS40NS45LS41MjUgMC0xLjQ3NS45LTEuMiAxLjE3NS4wNzUuMSAxLjMuMTUgMi43MjUuMTI1IDEuNC0uMDI1IDIuNjc1LjAyNSAyLjg1LjE1LjE3NS4xLjQyNSAxLjM3NS41NzUgMi45NS4xNSAxLjUyNS42IDUuMTI1IDEgOCAuNjc1IDQuOTUuNyA1LjY1LjMgNS41NzUtLjEtLjAyNS0uODUtLjEyNS0xLjY3NS0uMjV6Ii8+PHBhdGggZD0ibTgwLjQgMTA1LjkyNWMtLjMyNS0yLjQ1LS43LTEyLjcyNS0uNDUtMTIuOTc1LjEyNS0uMTI1IDEtLjI1IDEuOTUtLjI3NWwxLjctLjA1LjMgMS4zNWMuMTc1Ljc1LjUgMy41NS43MjUgNi4yNXMuNDI1IDUuMTI1LjQ1IDUuNGMuMDUuNS0uNDc1LjY3NS0zLjYgMS4yLS45MjUuMTI1LS45MjUuMTI1LTEuMDc1LS45eiIvPjxwYXRoIGQ9Im04Mi4xNzUgODguODI1Yy4zNzUtLjY3NSAxLjQtMi4zNzUgMi4zLTMuODI1czIuNDUtNC4wMjUgMy40NS01LjcyNWwxLjg1LTMuMS0uNzI1LS45Yy0xLjA3NS0xLjM1LTEuMDc1LTEuNC0uNjI1LTIuNDI1LjMtLjcyNS40MjUtMS43MjUuNDI1LTMuODUgMC0zLjQtLjQ1LTUuMy0xLjY1LTYuNjUtLjctLjc3NS0uOS0uODc1LTEuNzUtLjgtLjUyNS4wNS0uOTI1LjAyNS0uOS0uMDc1LjA1LS4xLjc3NS0uNzUgMS42LTEuNDVsMS41NS0xLjI3NSAyLjg3NSAyLjY3NWMxLjU3NSAxLjUgMy40NSAzLjIyNSA0LjE1IDMuODc1IDEuNTc1IDEuNDUgMS42IDEuNjc1LjQyNSA2LjUyNS0xLjI1IDUuMi00LjMyNSAxMy45NzUtNS42NSAxNi4xMjUtLjY1IDEuMDUtMS4xIDEuMi00LjIgMS40LTEuNDI1LjA3NS0yLjguMjUtMy4wNS40LS43NzUuNDI1LS44LjMtLjA3NS0uOTI1eiIvPjxwYXRoIGQ9Im04MC44NzUgODcuNzc1Yy40NzUtMS41LjkyNS00LjQyNSAxLjI3NS04LjI3NS40NzUtNC44NS41MjUtNSAyLjE3NS01IDEuMiAwIDIuMzc1LjUyNSAzLjMgMS41bC43LjcyNS0xLjU3NSAyLjdjLTIuMTI1IDMuNjUtNS41NSA4LjgyNS01LjgyNSA4LjgyNS0uMSAwLS4xNS0uMi0uMDUtLjQ3NXoiLz48L2c+PGcgZmlsbD0iI2QzMzgzMyI+PHBhdGggZD0ibTMxLjkgOTIuMjI1Yy0xNC40MjUtMTUuOS0xNS42LTQwLjMtMi43NS01Ny4zNzUgMS41NS0yLjA1IDUuMDI1LTUuODUgNS4zNzUtNS44NS4xIDAgLjI3NS4zNzUuMzUuODI1LjEyNS42NS0uMDI1IDEuMTc1LS42NzUgMi40MjUtLjggMS41NzUtLjgyNSAxLjY1LS44IDQuNzI1IDAgMi44MjUuMDc1IDMuMzUuNyA1LjAyNSAxLjM1IDMuNiAzLjQyNSA1LjgyNSA2LjI1IDYuNzc1bDEuMjUuNDI1LjQ1IDEuODI1Yy4yNS45NzUuOTUgMi43MjUgMS41NzUgMy44NSAxLjIyNSAyLjI1IDEuMzc1IDMuMDc1LjcgMy43LS4yNS4yLTIuNDI1IDEuNTI1LTQuODI1IDIuOTI1LTIuNCAxLjQyNS01LjMgMy4xNzUtNi40NSAzLjktMS4xMjUuNzUtMi42MjUgMS42MjUtMy4yNzUgMS45NzUtMS42MjUuODI1LTIuNTI1IDEuOS0yLjUyNSAzLjEgMCAuODc1IDIuMTI1IDcuMzUgMy42NzUgMTEuMjc1LjQyNSAxLjAyNSAxIDIuODI1IDEuMjc1IDQgLjYgMi41IDEuMzc1IDcuMzc1IDEuMjUgNy43NzUtLjA1LjE3NS0uNzUtLjQyNS0xLjU1LTEuM3oiLz48cGF0aCBkPSJtOTEuNzUgODguMzI1YzAtLjEuNjc1LTIuMTI1IDEuNTI1LTQuNTUgMi41LTcuMjUgNS0xNS41NSA1LjE1LTE3LjAyNS4xNS0xLjc1LS4yMjUtMi4zNS0zLjQyNS01LjItNC42LTQuMS01LjUtNS4wNS01LjUtNS43MjUgMC0uMzUuNTI1LTEuNiAxLjE1LTIuNzUgMS4yNS0yLjMgMi4wNS00LjQ1IDMtOC4xLjcyNS0yLjgyNSAxLjYtOC41MjUgMS42LTEwLjUgMC0uNzc1LjA3NS0xLjc3NS4xNS0yLjJsLjE3NS0uOC42MjUuNTc1YzIuNjUgMi40NzUgNi44IDkuNDI1IDguNTI1IDE0LjMgMS45MjUgNS40MjUgMi42IDkuNTUgMi42IDE1LjUyNSAwIDQuNjI1LS4yNzUgNy4xNzUtMS4yMjUgMTAuOS0uOSAzLjYtMS45NzUgNi41LTMuNjI1IDkuNzc1bC0xLjUgMi45LTEuNi4yNzVjLTEuNi4yNzUtMy41NzUuOTUtNi4xNzUgMi4xLS44LjM1LTEuNDUuNTc1LTEuNDUuNXoiLz48cGF0aCBkPSJtNjIuMTUgNzcuOTVjLS4xNzUtLjMyNS0uNzI1LTEuNjUtMS4xNzUtMi45NS0uNzc1LTIuMi0uODUtMi42LS44NS01LjUgMC0zLjQ1LjM1LTQuNiAxLjQ3NS00LjkgMS0uMjUgNC41MjUuODc1IDcuNiAyLjQyNSAxLjYuODI1IDMuMDc1IDEuNDc1IDMuMjUgMS40NzUuMzc1IDAgLjQuNjUuMDI1LjktLjE1LjEtLjguMy0xLjQ1LjQ3NS0xLjIuMzI1LTEuMTc1LjM3NS44Ljg3NSAxLjEyNS4zIDEuMTc1LjM1IDEuMTc1IDEuMjUgMCAuODUtLjE1IDEuMDI1LTIuMDUgMi41NS0yLjc3NSAyLjItMy41IDIuNi01Ljc3NSAzLjMyNS0yLjQuNzc1LTIuNTc1Ljc3NS0zLjAyNS4wNzV6Ii8+PHBhdGggZD0ibTgxLjM3NSA3Mi44NWMtMi43MjUtLjQ3NS0yLjYyNS0uNC0yLjYyNS0xLjgyNSAwLTEuMzc1LjM3NS0xLjc3NSAxLjYyNS0xLjc3NS4zNzUgMCAuNi0uMS41LS4yNS0uMDc1LS4xMjUtLjYyNS0uMjUtMS4yLS4yNS0uOTUgMC0xLjEtLjA3NS0xLjM1LS43NS0uMjc1LS43MjUtLjI3NS0uNzUgMS43MjUtMiA1LjQtMy40NzUgNi40NzUtMy4xIDcuMiAyLjU3NS4yMjUgMS44NzUuMTI1IDMuNDI1LS4zIDQuMjUtLjI3NS41MjUtMi42LjU1LTUuNTc1LjAyNXoiLz48cGF0aCBkPSJtNzQuNjI1IDcxLjY1Yy0uMzc1LS4yNzUtLjQ3NS0uNjc1LS41LTEuOCAwLTEuNDI1LjAyNS0xLjQ1LjgtMS42NzUgMi4xMjUtLjYyNSAzLjIgMi42MjUgMS4xNzUgMy41NS0uOC4zNS0uOS4zNS0xLjQ3NS0uMDc1eiIvPjwvZz48ZyBmaWxsPSIjNmY2YzZlIj48cGF0aCBkPSJtNjQuNjI1IDEyNC45NzVjLS44MjUtLjEyNS0yLjUtLjQ3NS0zLjc1LS43NzVsLTIuMjUtLjU3NS0xLjAyNS0zLjVjLTItNi43LTMuNTI1LTE0LjI1LTQuNTc1LTIyLjM3NS0uMjUtMi0uMzc1LTMuNzI1LS4yNzUtMy44MjUuMy0uMzUgOC4yLTEuMzc1IDEyLjgtMS42NzUgMy4yMjUtLjIgNS4zMjUtLjIgNy43NS0uMDI1IDQuMjc1LjM1IDQuNzUuNSA0Ljk3NSAxLjQuMTI1LjM3NS4zMjUgMy4yNS40NzUgNi4zNS4xNzUgMy4xLjMyNSA1LjcyNS40IDUuOC4wNS4wNzUuMiAzIC4zNSA2LjUuMjUgNS44NzUuNTc1IDEwLjI1LjkgMTEuMjc1LjE1LjUtLjY3NS44LTMuNjc1IDEuMzI1LTIuMzI1LjQtOS41MjUuNDc1LTEyLjEuMXoiLz48cGF0aCBkPSJtODAuOSAxMTcuMzI1Yy0uMDc1LTEuMDc1LS4yLTMuMy0uMy00Ljk3NS0uMTc1LTMuNC0uMjc1LTMuMiAxLjg1LTMuNWwxLjItLjE1LjY3NSAzLjQ1Yy4zNzUgMS45MjUuNjc1IDQuMS42NzUgNC44NzV2MS40bC0xLjQ1LjQyNWMtMi40NzUuNy0yLjQ3NS43LTIuNjUtMS41MjV6Ii8+PHBhdGggZD0ibTk3IDEwNS4wMjVjLS41NzUtLjQyNS0uMDI1LS42NSAyLjU3NS0xLjE3NSAzLjQtLjY1IDIuMjc1LS45NzUtMi43MjUtLjc1bC00LjA3NS4xNS0uMTI1LTEuMDVjLS4wNzUtLjYtLjI3NS0yLjI1LS40MjUtMy43LS4xMjUtMS40NS0uNDI1LTMuNDUtLjYyNS00LjQ3NS0uMzUtMS42NzUtLjM1LTEuODc1LjAyNS0yLjI3NS41NS0uNiAyLjIyNS0xLjM3NSA0Ljc1LTIuMjUgMS4xLS4zNzUgMi40NzUtLjkyNSAzLjA1LTEuMjI1IDIuNTUtMS4yNzUgNC41IDAgNS42NzUgMy42NzUgMS45NSA2LjE3NSAxLjk3NSA5LjA1LjE1IDExLjM3NS0xIDEuMjUtMi4zMjUgMS43MjUtNS4yNSAxLjg1LTEuNjI1LjA3NS0yLjc3NSAwLTMtLjE1em00LjUtNi4zYy0uOS0uMzc1LTQuMDI1LS41NzUtNS4xNS0uMzVsLS45NzUuMjI1Ljg3NS4xNWMuNDc1LjEgMiAuMiAzLjM3NS4yIDEuOTI1LjAyNSAyLjM1LS4wNSAxLjg3NS0uMjI1em0tMS4zNS0zLjE1YzEuMTUtLjE3NSAxLjE3NS0uMi40NzUtLjM1LTEuMy0uMy0zLjcyNS0uMjI1LTQuNS4xNS0uNzI1LjMyNS0uNjc1LjMyNSAxLjAyNS4zNS45NzUuMDI1IDIuMzI1LS4wNSAzLS4xNXptLTIuNC0yLjg3NWMxLjcyNS0xIDEuOTUtMS4yIDEuMjUtMS4wNzUtMS44NS4zNS0zLjIyNS45MjUtNC4xNSAxLjc3NWwtLjk3NS44NzUuODc1LS4xNzVjLjQ3NS0uMDc1IDEuODI1LS43IDMtMS40eiIvPjxwYXRoIGQ9Im04Ny45IDEwMy45NzVjLS4wNS0uMi0uMjc1LTEuNzUtLjUtMy40NzVzLS41NzUtNC4yNS0uOC01LjZjLS4yMjUtMS40NzUtLjI3NS0yLjU3NS0uMTUtMi43cy43NzUtLjIgMS40NS0uMTVsMS4yMjUuMDc1LjYgMS41Yy44IDIuMDI1IDEuMjUgNC43NzUgMS4yNzUgNy41NzUgMCAyLjMgMCAyLjMyNS0uNjc1IDIuNTc1LTEuMjUuNDc1LTIuMy41NzUtMi40MjUuMnoiLz48cGF0aCBkPSJtNzMuODc1IDg3LjE1Yy0xLjc3NS0uNzI1LTQuNTI1LTEuOTUtNi4wNzUtMi43NS0yLjUyNS0xLjMtMi44LTEuNS0yLjY1LTEuOTc1LjU1LTEuNzc1IDIuMTc1LTMuNiA0Ljc3NS01LjM3NS44NzUtLjU3NSAxLjYyNS0xLjA1IDEuNjc1LTEuMDUuNDc1IDAgMy43NSA2LjI3NSA1LjYyNSAxMC43LjY1IDEuNTUuNyAxLjguMzI1IDEuOC0uMjI1IDAtMS44NzUtLjYtMy42NzUtMS4zNXoiLz48cGF0aCBkPSJtODAuODc1IDg3Ljc3NWMuNDc1LTEuNS45MjUtNC40MjUgMS4yNzUtOC4yNzUuMzI1LTMuMjc1LjUyNS00LjQ1LjgtNC42NzUuOTUtLjc3NSAzLjQ3NS0uMSA0Ljc1IDEuMjVsLjU3NS42LS42MjUgMS4xYy0xLjM3NSAyLjQ3NS0yLjQ3NSA0LjI3NS00LjQ1IDcuMy0xLjkyNSAyLjk1LTIuNyAzLjg1LTIuMzI1IDIuN3oiLz48cGF0aCBkPSJtNzkuMzI1IDg3LjEyNWMtLjI3NS0uNTUtMS4wNS0yLjIyNS0xLjctMy43NS0xLjYyNS0zLjc3NS0yLjUtNS41LTMuNjc1LTcuMi0uOTUtMS40LS45NzUtMS41LS41NS0xLjk1LjI1LS4yNzUuNzc1LS40NzUgMS4yLS40NzUuNDI1LS4wMjUgMS4wNS0uMTc1IDEuNC0uMzc1LjkyNS0uNTI1IDEuNTI1LS40NSAyLjgyNS4zNzUuNjUuNCAxLjQ3NS44MjUgMS44MjUuOWwuNjc1LjE3NS0uMTc1IDMuOTc1Yy0uMTc1IDMuOS0uNjI1IDcuNDUtMS4xIDguNy0uMjI1LjYyNS0uMjI1LjYyNS0uNzI1LS4zNzV6bS4zLTZjMC0uNjI1LS4xLS43NS0uNjI1LS43NS0uNCAwLS42NS4xNS0uNy40NS0uMTUuNzUuMTUgMS4yMjUuNzUgMS4xMjUuNDUtLjA1LjU3NS0uMjI1LjU3NS0uODI1em0tLjc3NS00Yy4yMjUtLjYyNS0uMTI1LTEuMTI1LS43NS0xLjEyNS0uMzUgMC0uNjc1LjE3NS0uNzUuMzc1LS4yNS42MjUuMSAxLjEyNS43NSAxLjEyNS4zMjUgMCAuNjUtLjE3NS43NS0uMzc1eiIvPjxwYXRoIGQ9Im01Ni4xMjUgNjcuMjc1Yy0xLjc3NS0uNjI1LTMuMTc1LTEuMzc1LTMuNzI1LTJzLS4zNzUtMS40MjUuMy0xLjE1Yy43NzUuMzI1IDIuMTUuNTc1IDQuMTI1Ljc1IDIuMTI1LjE3NSAyLjE1LjIgMS42NSAxLjk1LS4yNzUgMS4wNS0uNSAxLjEtMi4zNS40NXoiLz48cGF0aCBkPSJtNzMuMzUgNjYuNTI1Yy0uODUtLjIyNS0yLjg1LTEuMjc1LTIuODUtMS41MjUgMC0uMS44MjUtLjEyNSAxLjgyNS0uMDUgMS4zNS4wNzUgMi41LS4wNSA0LjI1LS40NSAxLjM1LS4zIDIuNTUtLjUgMi42NzUtLjQ1LjE1LjA1LS41LjY3NS0xLjQyNSAxLjQtMS43NSAxLjM3NS0yLjQ3NSAxLjU1LTQuNDc1IDEuMDc1eiIvPjxwYXRoIGQ9Im01Ni44NzUgNjMuNzVjLTIuMzc1LS4yNS01LjA1LTEuMDc1LTYuNDI1LTItMS4zLS44NzUtMi41NzUtMi42MjUtMy43MjUtNS4xNzUtMS4xMjUtMi40NzUtMi4yMjUtNS43NS0yLjM3NS03LjI1LS4xNS0xLjIyNS0uMTI1LTEuMzUuNzUtMi40MjUuNjI1LS43MjUuOS0xLjMyNS44NS0xLjctLjEtLjc1LS42NzUtLjY1LTIuMDI1LjMyNS0xLjc3NSAxLjI3NS00LjA1Ljg3NS01Ljc1LTEtMS43NzUtMS45NzUtMy4xLTUuNDUtMi44NS03LjU1LjQ1LTMuODI1IDQuMzI1LTYuNSA3LjM1LTUuMDc1LjkyNS40NSAyLjEyNSAyLjI3NSAyLjU3NSAzLjkyNS4yNS44NzUuMzI1LjkyNSAxLjI3NS45MjUuNTUgMCAxLjM3NS0uMTc1IDEuODUtLjM1IDEuMDc1LS40NSAxLjEyNS0xLjAyNS4zMjUtMy45NzUtLjctMi42NzUtLjY3NS01IC4xNS04LjkuNy0zLjMuODI1LTUuODc1LjM3NS03LjY1LS4yNzUtMS4wNS0uMjI1LTEuMi41LTIuMzI1IDIuMjUtMy41IDguOTUtOC40IDEzLjc3NS0xMC4wNzUgMi4wNzUtLjcgNi42LS43NzUgOS41NzUtLjEyNSA0LjI1LjkyNSA4Ljg3NSAyLjkyNSAxMS4wNzUgNC44IDEuMDUuOSA1LjEgNS44NSA1LjEgNi4yNSAwIC4wNS0uNDI1LjA1LS45NS0uMDUtMi4wMjUtLjMyNS00LjA1Ljg1LTQuMDUgMi4zMjUgMCAuNTc1LjAyNS41NzUuNTUuMjI1Ljk3NS0uNyAzLjAyNS0uNTI1IDQuNzUuNCAyLjYgMS4zNzUgMy41MjUgMy4yIDMuOTc1IDcuODUuNDI1IDQuMjc1LjE1IDEyLjgtLjQ3NSAxNS45LTEuMDUgNC45NS0yLjY1IDguOTc1LTUuMjI1IDEyLjk1LTIuMDUgMy4xNS0yLjk3NSA0LjItNC44NSA1LjQyNS0zLjYyNSAyLjMyNS03LjQgMy41NzUtMTAuODUgMy41NzUtMi40NzUgMC00LjA1LS40NS02Ljk3NS0xLjk1LTIuNjc1LTEuMzc1LTUuODUtNC4yNzUtOC4zNS03LjYtLjktMS4yLTEuNjc1LTIuMTUtMS43NS0yLjEtLjI3NS4zLjY1IDIuMTI1IDEuOTUgMy44NSAxLjcgMi4yNzUgNS4yNSA1Ljc1IDYuNzI1IDYuNTc1LjU1LjMyNSAxLjAyNS43IDEuMDI1LjggMCAuMTI1LS42LjEyNS0xLjMyNS4wNS0xLjU3NS0uMi0zLjE1LjE3NS0zLjguODc1LS4yNS4yNzUtLjU3NS40NzUtLjcyNS40NzUtLjE1LS4wMjUtMS4wNS0uMTI1LTIuMDI1LS4yMjV6bTIzLjctOC43NWMuNS0uMTUgMS4xNS0uNTI1IDEuNDUtLjgyNWwuNS0uNTUtNC4yLS4xNWMtNS44LS4yLTcuMzUtLjctOS40LTIuOTc1LS42NS0uNy0xLjMyNS0xLjI1LTEuNTUtMS4yLS4yNS4wNS4xMjUuNyAxLjM1IDIuMiAyLjI3NSAyLjggMi44IDMuMjUgNC4yIDMuNjVzNi4xNzUuMyA3LjY1LS4xNXptLjMyNS01LjQyNWMtLjA3NS0uNTI1LS4xNS0xLjEyNS0uMTUtMS4zNSAwLS4zNS0uNTUtLjQyNS00LjA1LS41NS0zLjY3NS0uMS01LjM1LS4zNS03LjMyNS0xLjA3NS0uOTI1LS4zMjUgMS4xNzUgMS42NSAyLjQgMi4zIDEuNzUuODc1IDQuNzUgMS41IDcuNyAxLjU3NWwxLjYuMDI1em0zLjU1LjNjMS42MjUtLjUgMy40NS0xLjk1IDQuNi0zLjY1LjUtLjc1Ljg3NS0xLjM3NS44MjUtMS40MjUtLjAyNS0uMDUtMS4wNzUuNDI1LTIuMzI1IDEuMDUtMS4yMjUuNjI1LTIuNzc1IDEuMjc1LTMuNDUgMS40MjVzLTEuMzc1LjMyNS0xLjUyNS4zNzVjLS4yLjA1LS4zMjUuNTUtLjMyNSAxLjM1IDAgMS40NS4xIDEuNDc1IDIuMi44NzV6bS0zLjM3NS00LjZjMi0uNTI1IDMuMS0xIDUuNTUtMi40NzUgMS40MjUtLjgyNSAxLjU1LS45NzUgMS45NS0yLjMyNS4yMjUtLjguNDI1LTEuNTc1LjQyNS0xLjc1IDAtLjE1LS45NzUtMS4zLTIuMTUtMi41NS0zLjYyNS0zLjg3NS01Ljg1LTcuMDc1LTcuMjUtMTAuNTUtLjE3NS0uMzc1LS4yMjUtLjIyNS0uMy42NS0uMTUgMi4yNSAxLjQ1IDUuMzI1IDUuMDI1IDkuNjI1IDIuNTI1IDMgMi44NzUgMy43NSAyLjQgNC45LS4yNS42NS0uNzUuOTc1LTIuODI1IDEuOTc1LTMgMS40LTQuMSAxLjcyNS01LjggMS43MjUtMS41IDAtMi4yNzUtLjY1LTIuNTI1LTIuMTI1LS4xMjUtLjc1LS4yLS44NS0uNC0uNS0uMzUuNjUtLjI1IDIuMjI1LjIgMy4xLjM3NS43NS40NS43NzUgMi4xLjc3NS45MjUgMCAyLjU1LS4yMjUgMy42LS40NzV6bS00MC45LTUuOTVjLjA3NS0yLjE1LjUtMy4wNzUgMS40MjUtMy4wNzUuNjc1IDAgMS4xMjUuNDc1IDEuOTI1IDIgLjU3NSAxLjEyNS42IDEuMTI1LjY3NS40LjEyNS0xLjEtLjYyNS0yLjc3NS0xLjcyNS0zLjc1LS44LS43NS0xLjE3NS0uOS0yLjA3NS0uOS0uOTI1IDAtMS4yLjEyNS0xLjc1Ljc3NS0uOC45NS0uODI1IDEuMzUtLjA1Ljg1LjctLjQ3NSAxLjUyNS0uMjUgMS4yMjUuMzUtLjQuNzc1LS4yIDUuMjc1LjIyNSA1LjI3NS4wNSAwIC4xLS44NS4xMjUtMS45MjV6bTMxLjc1LTYuOTc1Yy43NS0uNTc1Ljk3NS0xLjEuODI1LTIuMS0uMDI1LS4yLS40NzUtLjgyNS0xLTEuMzc1LS41NS0uNTUtMS4zNzUtMS44NS0xLjg3NS0yLjg3NWwtLjg3NS0xLjg3NS4wNzUgMS4xMjVjLjEgMS4xNS43MjUgMi42NSAxLjcgNC4yLjUuNzc1LjUyNS44NzUuMTI1IDEuMjUtLjMyNS4zMjUtLjc3NS40LTEuOTc1LjM1LTMuNzUtLjItMy41NS0uMi0zLjYyNS4zNS0uMjUgMS43MjUgNC43IDIuNDI1IDYuNjI1Ljk1em0xOC43LTEuMDc1Yy41NS0uMjUgMS4yLS42NzUgMS40MjUtLjk1LjQyNS0uNDUuMzc1LS42LTEuMDUtMy40LTEuMzI1LTIuNTc1LTEuNS0yLjgyNS0xLjUtMi4wNSAwIC40NzUuMyAxLjYuNjc1IDIuNS41IDEuMi42IDEuNy40IDEuOS0uMTc1LjE3NS0xLjE3NS4zNzUtMi4yNS41LTEuMDc1LjEtMS45NzUuMi0yIC4yLS4yLjA1LS4wMjUuNzUuMzI1IDEuMjI1LjMuNDUuNjI1LjU1IDEuNjc1LjU1LjcyNSAwIDEuNzUtLjIyNSAyLjMtLjQ3NXptLTMxLjEyNS0xMC44NzVjMS41LTIuMDI1IDIuOTc1LTIuNzc1IDUuMzI1LTIuNzUgMS42NzUgMCAxLjcgMCAxLjYyNS0uNjI1LS4xMjUtMS0xLjU3NS0xLjg1LTIuOC0xLjY1LTIuMTc1LjMyNS00LjkyNSAyLjUyNS01LjggNC42LS42IDEuNC0uMzUgMy40NzUuMjc1IDIuMzc1LjEyNS0uMjI1Ljc1LTEuMSAxLjM3NS0xLjk1eiIvPjxwYXRoIGQ9Im00Ni45MjUgMzQuNTc1Yy0uMS0uMDc1LS4xNzUtLjQyNS0uMTc1LS43NSAwLTEuNTc1LTEuODc1LTMuNjc1LTMuOTI1LTQuMzUtMS4yLS40LTQuMi0uMTc1LTQuOC4zNzUtLjIyNS4yMjUtLjUyNS4zMjUtLjYuMjI1LS4xLS4wNzUtLjE3NS0xLjY1LS4xNzUtMy40NSAwLTQuMjUuMzUtNS40NzUgMi4wNzUtNy4zIDEuNzUtMS44NSA0LjgtMy4zNzUgNi44NS0zLjQyNWwxLjQ1LS4wMjUuMjI1IDEuNzI1Yy4yIDEuMzUuMTI1IDIuNTUtLjMgNS43NS0uNjc1IDUuMDI1LS42NzUgNS41IDAgOC4zMjUuNDUgMS45LjQ3NSAyLjM1LjIyNSAyLjY3NS0uMzc1LjQyNS0uNi41LS44NS4yMjV6Ii8+PHBhdGggZD0ibTQxLjY3NSAxNC4yYy44NS0xLjQ3NSAzLjE1LTMuNzI1IDUuMy01LjE1IDMuOC0yLjU1IDguOS00LjQyNSA4LjktMy4zIDAgLjItLjIyNS40NzUtLjUuNjI1LTIuMDI1IDEuMDI1LTQuMTUgMy4wNS01LjI1IDQuOTI1LS4zNzUuNjUtLjk3NSAxLjUyNS0xLjM3NSAxLjk1LS42NS43LS44MjUuNzUtMi4zLjcyNS0xLjAyNS0uMDI1LTIuMDc1LjE1LTMuMDUuNS0yLjA3NS43NS0yLjI3NS43LTEuNzI1LS4yNzV6Ii8+PC9nPjxnIGZpbGw9IiM0YTczOGQiPjxwYXRoIGQ9Im0zNy4yNSAxMDQuNDI1Yy0uMzUtLjItLjYtLjQ1LS41NzUtLjU3NS4wNzUtLjQyNS0uNC03LjQtLjY3NS05LjcyNS0uNTc1LTQuODUtMS43NS0xMC44NzUtMi43NzUtMTQuMjUtLjc3NS0yLjYyNS0xLjUyNS00LjgyNS0xLjc1LTUuMzc1LS4xNzUtLjM1LS4zNzUtLjg1LS41LTEuMTI1LS45LTIuMi0uOTc1LTIuNS0uNzI1LTIuNTc1LjE1LS4wNS45NS0uNjI1IDEuNzUtMS4yNzUgMy4yLTIuNTI1IDguMTUtNS43MjUgMTEtNy4wNS45LS40MjUgMS45LS45IDIuMjI1LTEuMDUuNTUtLjI3NS43LS4xNzUgMi4xNzUgMS40NS44NzUuOTUgMS42IDEuOCAxLjYgMS44NzUgMCAuMTc1LjE1LjEtOC4zNzUgMy44NzUtMy4zIDEuNDc1LTYuMDUgMi43LTYuMDc1IDIuNzUtLjA1LjA1LjIgMS40MjUuNTc1IDMuMDUgMS40MjUgNi4zMjUgMi41MjUgMTIuOCAzLjEyNSAxOC4yNzUuNDUgNC4xMjUuMyAxMi4wNS0uMjI1IDEyLjA1LS4wNzUgMC0uNDI1LS4xNS0uNzc1LS4zMjV6Ii8+PHBhdGggZD0ibTc5Ljk1IDk2LjZjLS4yNS0uMjI1LS4yNS0xLjc1LS4wNS0yLjguMTc1LS44NzUuNS0xLjA1IDIuMzI1LTEuMTUgMS4yLS4xIDEuMjUtLjA3NSAxLjUuNjc1LjE1LjQuMjc1IDEuMTI1LjI3NSAxLjYgMCAuNzUtLjEyNS45LS45MjUgMS4yNS0xLjEuNDUtMi44NzUuNy0zLjEyNS40MjV6Ii8+PHBhdGggZD0ibTQ5IDk1Ljc1Yy0xLjc1LS4zLTIuNjUtLjYtMy40NS0xLjEyNS0uNzI1LS40NzUtLjk3NS0uNzc1LS43NS0uOS4xNS0uMS40MjUtLjEyNS41NzUtLjAyNS4xMjUuMSAxLjQ1LjE3NSAyLjkyNS4xNzUgMS42MjUgMCAyLjc3NS4xIDIuOTUuMjc1LjE1LjE1LjI1LjY3NS4yIDEuMTVsLS4wNzUuODV6Ii8+PHBhdGggZD0ibTUyLjQgOTEuMWMtLjItLjUyNS0uMi02LjY3NSAwLTkuNTVsLjE3NS0yLjI3NS45NSAxLjIuOTc1IDEuMjI1djQuNzc1YzAgMi42MjUtLjA3NSA0Ljc3NS0uMTc1IDQuOC0uMTI1IDAtLjU1LjA1LTEgLjEtLjU1LjA3NS0uODI1IDAtLjkyNS0uMjc1eiIvPjxwYXRoIGQ9Im03NC41MjUgODcuMzc1Yy0yLjctMS4wNzUtOC41NS0zLjg3NS05LjItNC40MjUtLjQ3NS0uNC42NS0yLjM3NSAyLjItMy44MjUgMS43NS0xLjY1IDMuNjc1LTIuOTUgNC4xLTIuOC42LjI1IDIuODI1IDQuMTc1IDQuNSA3Ljk1IDEuNiAzLjcgMS44IDQuMjI1IDEuNDUgNC4yMjUtLjEyNSAwLTEuNDc1LS41MjUtMy4wNS0xLjEyNXoiLz48cGF0aCBkPSJtODAuODc1IDg3Ljg3NWMuNjc1LTEuOTUgMS4yNzUtNiAxLjUyNS0xMC4wNzUuMTc1LTIuNy4yLTIuODUuNzc1LTMuMDc1IDEuNDI1LS41MjUgMy4zLjAyNSA0LjUyNSAxLjM1bC41NzUuNi0uNjI1IDEuMWMtMy4wNSA1LjQ3NS03LjQgMTEuOTI1LTYuNzc1IDEwLjF6Ii8+PHBhdGggZD0ibTkxLjk1IDY2LjEyNWMtMi4wMjUtMS41LTQuMDc1LTMuMTUtNC41MjUtMy42LS40NzUtLjQ3NS0xLjItMS0xLjY1LTEuMTVsLS44LS4yNSAxLjM1LTEuMTc1IDEuMzUtMS4xNzUgMi4zNSAyLjNjMS4zIDEuMjc1IDMuMSAyLjk1IDQuMDI1IDMuNzUgMS43NSAxLjUgMi4yMjUgMi40NSAxLjc3NSAzLjU1LS4xNzUuNDUtLjU1LjI1LTMuODc1LTIuMjV6Ii8+PC9nPjxnIGZpbGw9IiM4M2IzYzciPjxwYXRoIGQ9Im02NSAxMjQuOWMtMy4yMjUtLjUtNS45MjUtMS4xNS02LjItMS40NzUtLjM1LS40MjUtMS42MjUtNC45MjUtMi43NzUtOS43LTEuNi02LjUtMy42LTE5LjI3NS0zLjEtMTkuNzI1LjI3NS0uMjc1IDYuNTI1LTEuMTc1IDEwLjU3NS0xLjUyNSA0LjgyNS0uNDI1IDE0LS4wNSAxNC42MjUuNTc1LjA3NS4wNS4zIDMuMDc1LjUgNi43MjUuMiAzLjYyNS40MjUgNy4wNS41IDcuNnMuMjUgMy42NzUuMzc1IDYuOTI1LjM3NSA2LjcyNS41MjUgNy43MjVjLjIyNSAxLjQyNS4yIDEuODI1LS4wNSAyLTEuNS45MjUtMTEuMDI1IDEuNDc1LTE0Ljk3NS44NzV6Ii8+PHBhdGggZD0ibTgxLjEyNSAxMTljLS4wNS0uMDc1LS4xNzUtMi4zLS4yNzUtNC45bC0uMTc1LTQuNzUgMS4zLS4zYzEuNS0uMzUgMS43NzUtLjI1IDEuNzc1LjU1IDAgLjMyNS4yMjUgMS42MjUuNSAyLjkyNXMuNTc1IDMuMS42NSA0LjAyNWMuMTc1IDEuNjc1LjE3NSAxLjY3NS0uNTUgMS45NzUtLjk3NS4zNzUtMy4xLjctMy4yMjUuNDc1eiIvPjxwYXRoIGQ9Im05Ny42MjUgMTA1LjAyNWMtLjk3NS0uMTc1LS45NzUtLjItLjM3NS0uNDUuMzUtLjE1IDEuMDI1LS4zMjUgMS41LS40MjUgMi43MjUtLjUyNSAzLjI3NS0uNzI1IDMtMS0uMi0uMTc1LTEuNjI1LS4yNS00LjYtLjJsLTQuMy4wNzUtLjQyNS0zLjk1Yy0uMjUtMi4xNzUtLjYtNC42MjUtLjgtNS40NWwtLjM1LTEuNS42NzUtLjU1Yy4zNzUtLjMyNSAxLjQ3NS0uODc1IDIuNDI1LTEuMjI1Ljk3NS0uMzc1IDIuNy0xLjA1IDMuODc1LTEuNTUgMi41NS0xLjA1IDMuNi0xLjEyNSA0LjcyNS0uMyAxLjEuNzc1IDEuODI1IDIuNDI1IDIuNzc1IDYuMjUuOCAzLjM1LjkyNSA1IC40NSA2LjU3NS0uNDI1IDEuNC0yLjA1IDMuMDUtMy4zMjUgMy4zNzUtMS40MjUuMzc1LTQuMDc1LjUyNS01LjI1LjMyNXptNC4xNzUtNi4zYy0xLjMyNS0uNTI1LTMuODUtLjc1LTUuMi0uNDc1LTIuMzI1LjUtMS41MjUuNzUgMi4yMjUuNzI1IDIuNDUgMCAzLjM3NS0uMDc1IDIuOTc1LS4yNXptLS40NzUtMy4yYy40NS0uMTc1LjM1LS4yNS0uNy0uNDI1LTIuNTI1LS40MjUtNS4zNzUtLjA1LTUuMzc1LjcyNSAwIC4yNzUgNS4yLjAyNSA2LjA3NS0uM3ptLTMuNC0yLjhjMS4zLS43IDIuMzI1LTEuMyAyLjI3NS0xLjM1LS4xNzUtLjE3NS0yLjUyNS40LTMuNjc1Ljg3NS0uNjc1LjMtMS41NS44NzUtMS45MjUgMS4zbC0uNzI1Ljc3NS44NS0uMTc1Yy40NS0uMDc1IDEuOS0uNzI1IDMuMi0xLjQyNXoiLz48cGF0aCBkPSJtODggMTA0YzAtLjI3NS0xLjQtOS45LTEuNjI1LTExLjA1LS4xLS43LS4xLS43IDEuMjc1LS43aDEuMzc1bC41IDEuMTI1Yy43NSAxLjY3NSAxLjIgNC4xMjUgMS40IDcuMjc1bC4xNSAyLjc3NS0xLjIuNDI1Yy0xLjQuNDUtMS44NzUuNS0xLjg3NS4xNXoiLz48cGF0aCBkPSJtNzYuODc1IDg4LjE3NWMtMy40NS0xLjEyNS0xMS42MjUtNC45NS0xMS42MjUtNS40NSAwLTEuMyAyLjItMy45IDQuNjUtNS41bDEuNjUtMS4wNS41NzUuNzI1YzEuMTI1IDEuMzUgNS45IDExLjIgNS41NzUgMTEuNDc1LS4wNS4wMjUtLjQtLjA1LS44MjUtLjJ6Ii8+PHBhdGggZD0ibTgxLjEgODcuNjI1Yy40NzUtMS4yNzUgMS4zNS03Ljg1IDEuNDI1LTExLjA3NWwuMDUtMS41NS45LS4yNWMxLjI3NS0uMzI1IDIuNjc1LjA1IDMuNjc1IDEuMDI1LjQ3NS40NS44NS45MjUuODUgMS4wNSAwIC4zMjUtMy4zNSA1Ljk1LTUuMiA4Ljc1LTEuNSAyLjI3NS0yLjA1IDIuOTI1LTEuNyAyLjA1eiIvPjxwYXRoIGQ9Im03OS4xNzUgODYuNTc1Yy0uMzI1LS42NS0xLjMtMi44LTIuMTUtNC43MjUtLjg1LTEuOTUtMi4wNS00LjMtMi42NzUtNS4yNS0xLTEuNTUtMS4xLTEuNzc1LS44LTIuMy4yLS40LjQ1LS41NS43NzUtLjQ1LjI3NS4wNzUgMS4wNS0uMSAxLjcyNS0uMzc1bDEuMjI1LS40NzUgMS41NzUuODc1Yy44NzUuNDc1IDEuNzUuODc1IDEuOTc1Ljg3NS41IDAgLjUtLjIyNS4xNzUgNC45LS4yMjUgMy41NzUtLjc3NSA3LjcyNS0xLjEgOC4wMjUtLjA3NS4wNzUtLjQtLjQyNS0uNzI1LTEuMXptLjYtNC45NzVjLjQyNS0uNTI1IDAtMS4yMjUtLjc3NS0xLjIyNXMtMS4yLjctLjc3NSAxLjIyNWMuMi4yMjUuNTI1LjQuNzc1LjRzLjU3NS0uMTc1Ljc3NS0uNHptLS45MjUtNC40Yy4zMjUtLjUyNS0uMDUtMS4yNzUtLjY1LTEuNC0uNC0uMDc1LTEuMi41NzUtMS4yLjk1cy44IDEuMDI1IDEuMi45NWMuMi0uMDUuNS0uMjc1LjY1LS41eiIvPjxwYXRoIGQ9Im01Ni4xMjUgNjcuMTVjLTEuNjI1LS41MjUtMy41NzUtMS42LTMuODc1LTIuMTUtLjQyNS0uNzc1LS4xLTEgLjg1LS42MjUuNDUuMiAxLjg1LjQyNSAzLjEyNS41MjUgMS4yNS4xIDIuMzI1LjI1IDIuNC4zNS4wNS4wNzUtLjAyNS42MjUtLjE3NSAxLjItLjMgMS4xNzUtLjU3NSAxLjI1LTIuMzI1Ljd6Ii8+PHBhdGggZD0ibTczIDY2LjMyNWMtLjg1LS4zLTIuNS0xLjE3NS0yLjUtMS4zMjUgMC0uMS41NzUtLjA1IDEuMjc1LjEgMS4wNzUuMjI1IDEuNzUuMTUgNC4zNzUtLjM3NSAxLjctLjM3NSAzLjEtLjYyNSAzLjEtLjU3NSAwIC4wMjUtLjY3NS41NzUtMS40NzUgMS4yLTEuNCAxLjA3NS0xLjU3NSAxLjE1LTIuOTUgMS4xMjUtLjggMC0xLjYyNS0uMDc1LTEuODI1LS4xNXoiLz48cGF0aCBkPSJtNTYuMzc1IDYzLjU3NWMtMS4yNzUtLjEyNS00LjIyNS0xLTUuNC0xLjU3NS0xLjI3NS0uNjUtMi40NS0yLjA3NS0zLjY1LTQuMzc1LTEuMTI1LTIuMi0yLjY3NS02LjYtMi45NS04LjQtLjE1LTEuMDc1LS4xMjUtMS4yLjg1LTIuMzI1IDEuMDc1LTEuMjI1IDEuMTc1LTEuNTI1Ljc3NS0yLjE1LS4yLS4zMjUtLjM3NS0uMy0xLjE3NS4xNzUtMi4zIDEuMzI1LTIuNDc1IDEuNC0zLjY3NSAxLjIyNS0xLjgyNS0uMjc1LTMuMDc1LTEuNDI1LTQuMzc1LTMuOTUtLjk3NS0xLjg3NS0xLjEyNS0yLjQyNS0xLjIyNS00LjEyNXMtLjAyNS0yLjE1LjQ1LTMuMWMxLjI1LTIuNSAyLjktMy40IDUuODUtMy4yNSAxLjA1LjA1IDIuNDI1IDEuNiAzLjAyNSAzLjQuMjUuODI1LjU1IDEuNi42NSAxLjcuMy4zNzUgMi43NS0uMTI1IDMuNDI1LS43bC42NS0uNTUtLjY3NS0yLjg1Yy0uODUtMy42MjUtLjg1LTQuODI1LjA3NS05LjMuODUtNC4xMjUuOS01LjIyNS40LTcuMTc1bC0uMzc1LTEuMzc1LjgtMS4zNWMyLjEtMy41IDEwLjA1LTkuMSAxNC40MjUtMTAuMTI1IDUuOTc1LTEuNDI1IDE2LjAyNSAxLjIyNSAyMC4zMjUgNS4zMjUgMS4xNzUgMS4xMjUgNC40MjUgNS4yIDQuNDI1IDUuNTc1IDAgLjAyNS0uNzI1LjA3NS0xLjYuMDc1LTEuMzc1IDAtMS43LjEtMi4yNzUuNjI1LS43MjUuNjc1LTEuMiAxLjY1LTEgMiAuMDc1LjEyNS41MjUuMDUgMS0uMTUgMS42NzUtLjcgMy44NS0uMiA1LjYgMS4zMjUgMi4xMjUgMS44MjUgMi43IDQuMDI1IDIuOTI1IDExLjMyNS4yNzUgOC43NzUtLjk1IDE1LjE1LTQuMDUgMjEuMzI1LS43MjUgMS40LTMuMjc1IDUuMzI1LTQuMyA2LjU1LTIuMDUgMi40NzUtNy45NzUgNS4xNzUtMTIuMTUgNS41MjUtMi4zNS4yLTQuMjUtLjItNy4wMjUtMS41LTMuODUtMS44MjUtNi40MjUtNC4xLTkuNy04LjYyNS0uODUtMS4xNS0xLjU3NS0xLjk3NS0xLjYyNS0xLjgtLjE1LjQyNSAxLjEyNSAzLjAyNSAyLjE3NSA0LjQgMS40NzUgMS45NSA1LjAyNSA1LjQ3NSA2LjM1IDYuMzI1bDEuMi43NS0yIC4wNzVjLTEuNjUuMDc1LTIuMS4yLTIuNTc1LjY3NS0uNjI1LjU1LTEuMS42LTMuNTc1LjM3NXptMjQuMDI1LTguNDVjMS4wNzUtLjMyNSAyLjM1LTEuMjI1IDIuMzUtMS42MjUgMC0uMS0xLjY1LS4xNzUtMy42NzUtLjE3NS01Ljg3NS4wMjUtOC41MjUtLjc3NS0xMC4yNzUtMy4wNzUtLjQ3NS0uNjI1LTEtMS4xNS0xLjE3NS0xLjItLjcyNS0uMTc1LS42LjUuMjI1IDEuNTI1LjUuNTc1IDEuMzc1IDEuNjUgMS45NSAyLjQgMS4yIDEuNSAyLjMyNSAyLjIgNC4xMjUgMi41MjUgMS41MjUuMjc1IDUgLjA3NSA2LjQ3NS0uMzc1em0uNTUtNS45MjUtLjA3NS0xLjMyNS0zLjUtLjE3NWMtMy43NzUtLjE3NS02LjIyNS0uNTI1LTcuNi0xLjEtLjQ3NS0uMi0uOS0uMzI1LS45MjUtLjI3NS0uMDUuMDUuMjUuNS42NzUgMSAxLjUgMS44IDUuMzc1IDMuMTI1IDkuNDI1IDMuMTVsMi4wNzUuMDI1em00LjkyNS4yYy42LS4zNSAxLjUtMS4wNzUgMi0xLjYyNSAxLjAyNS0xLjA3NSAyLjQyNS0zLjA3NSAyLjI1LTMuMjI1LS4wNS0uMDUtLjkyNS4zNS0xLjkyNS44NzUtMS45MjUgMS4wNS00LjYgMi4wNzUtNS40NSAyLjA3NS0uNDUgMC0uNS4xNzUtLjUgMS40djEuNDI1bDEuMjc1LS4xNWMuNy0uMSAxLjc1LS40NSAyLjM1LS43NzV6bS00LjYyNS00LjA3NWMxLjY3NS0uNDI1IDMuNTUtMS4yNzUgNS41MjUtMi40NzUgMS4zMjUtLjggMS41LTEgMS44NS0yLjE1LjU3NS0yIC41LTIuMjUtMS4wNzUtMy44NzUtMy40MjUtMy40NS03LjE1LTguNzc1LTcuNjUtMTAuODc1LS4wNzUtLjQtLjMyNS0uNy0uNTI1LS43LS45MjUgMCAuMDUgMy43MjUgMS42MjUgNi4zNS40NzUuNzc1IDEuNjc1IDIuNCAyLjYyNSAzLjU1IDMuMzc1IDQuMTI1IDMuNTI1IDQuNDI1IDIuODUgNS45MjUtLjU1IDEuMjI1LTcuMiAzLjY3NS05LjA1IDMuMzI1LTEuMDc1LS4yLTEuNDUtLjY1LTEuNjUtMS44NS0uMTc1LTEuMDc1LS41NS0xLjE3NS0uODc1LS4yNS0uMzI1LjkuMDUgMi40Ljc1IDMuMTI1LjYuNi43MjUuNjI1IDIuNDI1LjQ1IDEtLjEgMi40MjUtLjM1IDMuMTc1LS41NXptLTQwLjQtOC41NWMuMjc1LS4zLjYtLjUyNS43NzUtLjUyNS40MjUgMCAxLjIyNS45NSAxLjkgMi4yNWwuNiAxLjEyNS4wNzUtMS4xNzVjLjEtMS40LS41NS0yLjgyNS0xLjctMy44LTEuNTI1LTEuMjUtMy4yLTEuMTI1LTQuMTc1LjMyNS0uNzI1IDEuMDc1LS43MjUgMS40MjUtLjAyNS45MjUuMy0uMjI1Ljc3NS0uNCAxLjAyNS0uNC40IDAgLjQyNS4xMjUuMjUuODI1LS4zIDEuMTc1LS4yIDMuNy4yIDQuNTUuMy43MjUuMzI1LjY1LjQ3NS0xLjQyNS4xLTEuNjI1LjI1LTIuMy42LTIuNjc1em0zMS4zLTQuNTI1YzEuMTc1LTEuMTc1IDEuMTI1LTEuODc1LS4yNzUtMy40NS0uNjI1LS43LTEuNTUtMi4xNS0yLjA3NS0zLjIyNS0uOC0xLjcyNS0uOTI1LTEuODc1LTEtMS4yMjUtLjEuNzUuNzc1IDMuNSAxLjMyNSA0LjE1LjE3NS4yLjUuNzI1LjcgMS4xNS40LjguNC44LS4zMjUgMS4xLS41MjUuMjI1LTEuMy4yNS0yLjY3NS4xLTEuMDc1LS4xLTIuMDUtLjItMi4yLS4yMjUtLjQ1IDAtLjQyNSAxLjE1LjAyNSAxLjY1LjY1LjcyNSAxLjc1Ljk3NSAzLjguODc1IDEuNjc1LS4wNzUgMS45LS4xNSAyLjctLjl6bTE5LjAyNS0xLjEyNWMuNi0uMzc1IDEuMTc1LS44MjUgMS4yNS0xIC4xLS4zMjUtMi44NS02LjYyNS0zLjEyNS02LjYyNS0uMzI1IDAgLjIyNSAyLjguODI1IDQuMS43NzUgMS43NS43MjUgMS44LTEuNjI1IDIuMDI1LS45LjEtMS43NzUuMi0xLjkyNS4yNS0uNTUuMTc1LS4zNSAxLjA3NS4zNzUgMS42MjUuNTUuNDUuODc1LjUyNSAxLjkuNC42NS0uMDc1IDEuNy0uNDI1IDIuMzI1LS43NzV6bS0zMi40NS05LjQ3NWMuOS0xLjUyNSAyLjQyNS0zLjAyNSAzLjY3NS0zLjU1LjQ1LS4yIDEuNTUtLjM1IDIuNDUtLjM1czEuNy0uMTI1IDEuNzc1LS4yNWMuNS0uODI1LTEuMTc1LTIuMjUtMi42NzUtMi4yNS0xLjE1IDAtMy4yIDEuMDUtNC40NzUgMi4zMjUtMS4wNSAxLjA1LTIuMjI1IDMuMTUtMi4yMjUgNCAwIC40NS40MjUgMS40MjUuNjI1IDEuNDI1LjA1IDAgLjQyNS0uNi44NS0xLjM1eiIvPjxwYXRoIGQ9Im0zNy4zNSAyOC42Yy0uMi0xLjcgMC01LjM3NS40LTYuNjUuODI1LTIuOCA0LjYyNS01LjQ3NSA4LjY1LTYuMS45MjUtLjEyNSAxLjA1LS4xIDEuMTc1LjQyNS4yNS45LjIyNS45NzUtLjQuOTc1LS45NzUgMC0zLjcyNSAxLTQuOTc1IDEuOC0zIDEuOS00Ljc3NSA1LjgtNC4zIDkuNDI1LjEuNzUuMDUgMS4yNzUtLjEgMS4zNzUtLjE3NS4xLS4zMjUtLjM3NS0uNDUtMS4yNXoiLz48cGF0aCBkPSJtNDEuNSAxNC43NWMwLS4xLjUyNS0uODc1IDEuMTUtMS43MjUgMS4zNS0xLjggNC4xNS0zLjk3NSA3LjA1LTUuNDc1IDIuMjc1LTEuMTc1IDUuNDc1LTIuMzc1IDUuODI1LTIuMTUuNDUuMjUuMi43NzUtLjUgMS4xMjUtNS4zMjUgMi42LTcuMTUgMy44LTkuNSA2LjI1LTEuMSAxLjEyNS0xLjcgMS41MjUtMi43IDEuODI1LS43MjUuMi0xLjMyNS4yNzUtMS4zMjUuMTV6Ii8+PC9nPjxnIGZpbGw9IiNmMWQ4YjkiPjxwYXRoIGQ9Im03MyA2Ni4yNzVjLS44NzUtLjI3NS0yLjItLjk3NS0yLjM3NS0xLjI3NS0uMS0uMTc1LjA3NS0uMTc1LjUgMCAxLjAyNS4zNzUgMi41LjMgNS40NS0uMzUgMS40NzUtLjMyNSAyLjY3NS0uNTUgMi42NzUtLjUyNXMtLjY3NS41NzUtMS40NzUgMS4yMjVjLTEuMzUgMS4wNS0xLjYgMS4xNS0yLjgyNSAxLjEyNS0uNzI1IDAtMS42LS4xLTEuOTUtLjJ6Ii8+PHBhdGggZD0ibTU2LjA3NSA2My40NzVjLTIuMDI1LS4yNS00LjYyNS0xLjE1LTUuOC0xLjk3NS0xLjM1LS45NzUtMi42NzUtMy4wNS0zLjk3NS02LjE1LS45NzUtMi4zNzUtMi4wNS01Ljk3NS0yLjA1LTYuODc1IDAtLjI1LjQ1LS45NzUgMS4wMjUtMS42MjUgMS4wNS0xLjIgMS4yMjUtMi4xNS40MjUtMi4zLS4yMjUtLjA1LTEuMDUuMzI1LTEuOC44NS0xLjIuOC0xLjUyNS45LTIuNDI1Ljc3NS0xLjctLjIyNS0zLjIyNS0xLjM1LTQuMy0zLjE3NS0yLjUyNS00LjM1LTIuMTc1LTguMzc1LjkyNS0xMC40MjUgMS4wNS0uNzI1IDEuNDI1LS44MjUgMi43NzUtLjgyNSAxLjIyNSAwIDEuNy4xMjUgMi4yNS41NS43LjU1IDIuMTI1IDMuMjI1IDIuMTI1IDQuMDI1IDAgLjI1LjE3NS41LjM3NS41NzUuNy4yNzUgMi42MjUtLjE3NSAzLjMtLjc1bC42NS0uNTc1LS42NS0yLjljLS44NS0zLjY3NS0uODUtNC43MjUuMDc1LTkuMTUuODUtNC4wMjUuOTI1LTUuNjI1LjM3NS03LjQyNS0uMzUtMS4xNzUtLjMyNS0xLjI1LjI1LTIuMjUgMS41MjUtMi42IDUuMTI1LTUuNyA5LjYyNS04LjI1IDMuMzUtMS44NzUgNC44NzUtMi4zNzUgOC0yLjUyNSA0LjQtLjIyNSA4LjcyNS43NzUgMTMuNjUgMy4xNzUgMi4xNzUgMS4wNSAyLjc3NSAxLjQ3NSA0LjI1IDMuMDc1Ljk1IDEuMDI1IDIuMiAyLjU1IDIuOCAzLjRsMS4wNzUgMS41MjVoLTEuNDI1Yy0xLjYgMC0yLjU3NS40NzUtMy4yIDEuNS0uNTUuOTUtLjUyNSAxLjYuMDUgMS4zNzUgMi0uODUgMy41NzUtLjY3NSA1LjYuNiAyLjQ1IDEuNTUgMy4wNzUgMy4zNzUgMy41IDEwIC41MjUgOC41LS42MjUgMTUuODI1LTMuNDI1IDIxLjk1LTEuMTI1IDIuNDUtNC4xIDYuOTc1LTUuNDI1IDguMjI1LTEuOSAxLjgyNS01LjM3NSAzLjYtOC43IDQuNDc1LTIuMjUuNi01Ljc1LjYtNy41LjAyNS00LjMyNS0xLjQ1LTcuODc1LTQuMTc1LTExLjM1LTguNzI1LTEuMjI1LTEuNi0yLjI3NS0yLjg3NS0yLjM1LTIuODI1LS4yMjUuMjI1Ljc1IDIuNTc1IDEuNTI1IDMuNyAxLjQgMi4wMjUgNS4xIDUuODUgNi43MjUgNi45NWwxLjU1IDEuMDI1LTEuMzI1LS4xYy0xLjYtLjE1LTIuNjUuMTI1LTMuNC44MjUtLjU3NS41NS0uOTc1LjU1LTMuOC4yMjV6bTIzLjY1LTguMTVjMS41MjUtLjMyNSAzLjAyNS0xLjI1IDMuMDI1LTEuODc1IDAtLjEtMS42NS0uMi0zLjY3NS0uMi00LjI1LjAyNS01LjQ1LS4xMjUtNy4yNzUtLjgtMS41MjUtLjU3NS0yLjU1LTEuMzc1LTMuMy0yLjU3NS0uMzI1LS41LS43NS0uODc1LTEuMDI1LS44NzUtLjg3NSAwLS43MjUuMjI1IDIuNTUgNC4zMjUuNDI1LjUyNSAxLjAyNSAxLjEyNSAxLjM3NSAxLjMyNSAxLjYgMS4wNzUgNS4xMjUgMS4zNSA4LjMyNS42NzV6bTEuMjc1LTZjMC0uODUtLjEyNS0xLjM3NS0uMy0xLjQ1LS4xNzUtLjA1LTEuNzc1LS4xNS0zLjU3NS0uMjUtNC4xLS4xNzUtNi4xNS0uNTI1LTcuOTc1LTEuMjUtLjQtLjE3NS0uNDI1LS4xMjUtLjE3NS4zIDEuMTc1IDIuMjUgNS44NSAzLjkyNSAxMC45NzUgMy45NzVoMS4wNXptNC40LjNjLjcyNS0uMyAxLjc1LTEuMDI1IDIuMzI1LTEuNi45NS0uOTUgMi42LTMuMyAyLjQyNS0zLjQ3NS0uMDUtLjAyNS0xLjIyNS41LTIuNjI1IDEuMTc1cy0zLjE1IDEuMzc1LTMuOSAxLjUyNWwtMS4zNzUuMjc1djEuNTI1IDEuNWwuOTUtLjE3NWMuNS0uMDc1IDEuNS0uNDI1IDIuMi0uNzV6bS0zLjg1LTQuMjc1YzEuNDc1LS40NSAzLjEyNS0xLjIyNSA1LjI1LTIuNSAxLjItLjcyNSAxLjQ3NS0xLjA1IDEuOC0yLjAyNS42MjUtMS44LjUyNS0yLjctLjM1LTMuMzc1LTIuMjc1LTEuNzc1LTcuMzUtOC42MjUtOC4xMjUtMTAuOTUtLjI1LS43NzUtLjU1LTEuMjUtLjgtMS4yNS0uMzI1IDAtLjM3NS4yMjUtLjIyNSAxLjQ1LjI1IDIuMSAyIDUuNDUgNC4yNzUgOC4xNzUgMi45NSAzLjUyNSAzLjM3NSA0LjE1IDMuMzc1IDQuOSAwIDEuNDI1LS40IDEuOC0zLjIyNSAzLjA1LTIuOSAxLjI3NS00LjM1IDEuNjI1LTUuODc1IDEuNS0xLjI1LS4xLTEuNjI1LS40MjUtMS44LTEuNjI1LS4yLTEuMTUtLjQ3NS0xLjQtLjgyNS0uNzI1LS41NSAxLjAyNS0uMjc1IDIuNS43IDMuNjI1LjM1LjQuNjUuNDI1IDIuNDUuMyAxLjEyNS0uMSAyLjY1LS4zNSAzLjM3NS0uNTV6bS00MC42LTguNjVjLjUtLjUuNTUtLjUgMS4xNS0uMS4zNS4yMjUuOTUgMSAxLjMyNSAxLjcyNWwuNyAxLjMuMDc1LTEuMTc1Yy4yLTMtMy4wNzUtNS43NS01LjE1LTQuMy0uNi40LTEuNDI1IDEuOC0xLjIgMi4wMjUuMDc1LjA3NS4zLS4wNS41MjUtLjI3NXMuNjI1LS40LjkyNS0uNGMuNDI1IDAgLjQ3NS4xLjI3NS44MjUtLjMgMS4yMjUtLjIgMy45NzUuMiA0LjY3NS4zMjUuNTc1LjM1LjQ3NS41LTEuNTc1LjEyNS0xLjc3NS4yNS0yLjMyNS42NzUtMi43MjV6bTMwLjQ1LTMuODVjMS45NS0uOTI1IDIuMS0yLjMyNS40NzUtNC4wNzUtLjYtLjY1LTEuNTI1LTIuMDc1LTIuMDUtMy4xNzUtLjgyNS0xLjc1LS45NS0xLjktMS4wMjUtMS4yNS0uMTI1LjkyNS41NSAzIDEuNDc1IDQuNDI1LjQuNjI1LjcyNSAxLjI3NS43MjUgMS40MjUgMCAuOC0yLjE1Ljk3NS00LjguNC0uOC0uMTc1LTEuMS4yNzUtLjg1IDEuMjUuMyAxLjI1IDQuMTc1IDEuODc1IDYuMDUgMXptMTkuNjUtMS42NWMxLjctLjk1IDEuNy0xLS4wNS00LjUyNS0uODUtMS43NS0xLjYtMy4xNzUtMS42NzUtMy4xNzUtLjM1IDAgLjIgMi44MjUuOCA0LjEyNS43MjUgMS42LjYyNSAxLjg1LS43NSAxLjktLjk3NS4wMjUtMi40MjUuMi0yLjguMzUtLjU1LjItLjM1IDEuMDc1LjM3NSAxLjYyNS41NS40NS44NzUuNTI1IDEuODc1LjQuNjc1LS4wNzUgMS42NzUtLjQgMi4yMjUtLjd6bS0zMi40NS05LjI3NWMuMjc1LS41NzUgMS4wNzUtMS42MjUgMS43NS0yLjMyNSAxLjQ3NS0xLjQ1IDIuOTI1LTEuOTc1IDQuOS0xLjggMS4wNS4xIDEuMjc1LjA1IDEuMzc1LS4zMjUuMzUtMS4wNS0xLjEtMi4yMjUtMi42NzUtMi4yMjUtMi4wNSAwLTUgMi4yMjUtNi4xIDQuNTc1LS42NSAxLjQyNS0uNzI1IDEuOTc1LS4zNSAyLjcuMzc1LjcuNTc1LjYgMS4xLS42eiIvPjwvZz48ZyBmaWxsPSIjZjZmNWY1Ij48cGF0aCBkPSJtNjYuNzUgMTI1LjFjLS4zNS0uMDUtMS40NzUtLjIyNS0yLjUtLjM3NS0yLjMtLjMyNS01LjA1LS45NzUtNS4zNS0xLjI1LS41MjUtLjQ3NS0yLjc1LTguNjUtMy44NzUtMTQuMjc1LS44MjUtNC4wMjUtMS45NzUtMTEuOC0yLjA3NS0xMy45NWwtLjA3NS0xLjM1IDEuMTI1LS4yYzYuNTI1LTEuMTc1IDE2LjA3NS0xLjc1IDIwLjg3NS0xLjIyNSAxLjUyNS4xNzUgMi45LjQ1IDMuMDUuNi4zLjMuNzUgNi4yMjUgMS4zMjUgMTcuOTI1LjI3NSA1LjYuNyAxMS4yNS45IDEyLjI3NS4xNS42MjUuMDc1LjY3NS0xLjQ3NSAxLjA1LTMgLjc1LTkuMjUgMS4xNS0xMS45MjUuNzc1eiIvPjxwYXRoIGQ9Im04MC45MjUgMTE1Ljg1Yy0uMS0xLjc3NS0uMTc1LTMuOTUtLjE3NS00Ljg3NXYtMS42MjVsMS4zMjUtLjI3NWMuNy0uMTUgMS4zNS0uMjI1IDEuNC0uMi4xNzUuMTc1IDEuNSA3LjU1IDEuNTI1IDguNDUgMCAxLjA3NS0uNDc1IDEuMzc1LTIuNjUgMS42bC0xLjI3NS4xMjV6Ii8+PHBhdGggZD0ibTk3Ljk1IDEwNS4wNzVjLS41MjUtLjA1LS45NS0uMi0uOTUtLjM1IDAtLjEyNS4wNS0uMjI1LjEtLjIyNS4xMjUgMCAzLjUtLjY3NSA0LjM3NS0uOS40NzUtLjEuNTI1LS4yLjMtLjQyNXMtMS41MjUtLjI3NS00LjYtLjIyNWwtNC4zMjUuMDUtLjQyNS00LjA1Yy0uMjUtMi4yNS0uNi00LjctLjgtNS40NWwtLjM3NS0xLjM3NS42NzUtLjU1Yy4zNzUtLjMyNSAyLTEuMDI1IDMuNTc1LTEuNnMzLjQyNS0xLjMyNSA0LjA3NS0xLjY1YzEuODUtLjkyNSAzLjctLjI1IDQuNjc1IDEuNjc1LjcgMS4zNSAyLjI1IDcuNTUgMi4yNSA4Ljk1IDAgMi44LTEuNTI1IDUuMjI1LTMuNjI1IDUuNzUtMS4yNS4zMjUtMy43MjUuNS00LjkyNS4zNzV6bTQuNS02LjJjLS4wNzUtLjA3NS0xLjAyNS0uMy0yLjEtLjUyNS0yLjM3NS0uNDUtNS4xLS4yMjUtNS4xLjQyNSAwIC4xMjUgMS42NS4yMjUgMy42NzUuMjI1IDIgMCAzLjYtLjA1IDMuNTI1LS4xMjV6bS0uOTUtMy4zNzVjLjQyNS0uMjUtMS41MjUtLjYtMy4zNzUtLjYyNS0xLjMgMC0yLjg3NS41LTIuODc1Ljk1IDAgLjI3NSA1LjY1IDAgNi4yNS0uMzI1em0tNC45NzUtMmMuNzUtLjQyNSAxLjk1LTEuMDUgMi42NzUtMS40czEuMjc1LS43IDEuMjI1LS43NWMtLjA1LS4wNzUtLjkyNS4wNS0xLjk1LjI1LTEuNzc1LjM3NS00LjQ3NSAxLjgyNS00LjQ3NSAyLjQgMCAuNDc1IDEuMi4yNSAyLjUyNS0uNXoiLz48cGF0aCBkPSJtODcuODc1IDEwMi44MjVjLS4wNzUtLjgtLjQyNS0zLjItLjc3NS01LjMyNS0uMzI1LTIuMTI1LS42LTQuMTc1LS42LTQuNTUgMC0uNjc1LjA1LS43IDEuMjc1LS43IDEuMjUgMCAxLjI1IDAgMS43NSAxLjEyNS43MjUgMS42NSAxLjIgNC4xIDEuMzc1IDcuMjc1bC4xNzUgMi43NS0xLjMyNS40MjVjLS43MjUuMjI1LTEuNC40MjUtMS41LjQyNXMtLjI3NS0uNjUtLjM3NS0xLjQyNXoiLz48cGF0aCBkPSJtNzguOTUgODZjLS41LTEuMDI1LTEuNDc1LTMuMi0yLjItNC44LS43LTEuNi0xLjgtMy42NzUtMi40LTQuNnMtMS4xLTEuNzI1LTEuMS0xLjhjMC0uMzUuODI1LTEgMS4xMjUtLjkuMTc1LjA3NS43MjUtLjA1IDEuMjUtLjI1IDEuMzUtLjU3NSAyLjEtLjUgMy4zNzUuMzUuNjI1LjQgMS4zNzUuNzUgMS43Ljc1LjU1IDAgLjU1LjAyNS40MjUgMi44MjUtLjIgMy45MjUtLjYyNSA3LjY3NS0xIDkuMWwtLjMyNSAxLjJ6bS44MjUtNC40Yy40MjUtLjUyNSAwLTEuMjI1LS43NzUtMS4yMjVzLTEuMi43LS43NzUgMS4yMjVjLjIuMjI1LjUyNS40Ljc3NS40cy41NzUtLjE3NS43NzUtLjR6bS0uOTI1LTQuNGMuMzI1LS41MjUtLjA1LTEuMjc1LS42NS0xLjQtLjQtLjA3NS0xLjIuNTc1LTEuMi45NXMuOCAxLjAyNSAxLjIuOTVjLjItLjA1LjUtLjI3NS42NS0uNXoiLz48cGF0aCBkPSJtNTUuOCA2N2MtMi41MjUtLjktNC4xLTIuMDc1LTMuNjc1LTIuNzUuMDc1LS4xMjUuNS0uMDc1Ljk1LjEyNS40MjUuMTc1IDEuODUuNDI1IDMuMTI1LjU3NSAxLjI3NS4xMjUgMi4zNzUuMjc1IDIuNDI1LjM1LjA1LjA1LS4wMjUuNTc1LS4xNzUgMS4xNS0uMyAxLjIyNS0uNiAxLjMtMi42NS41NXoiLz48cGF0aCBkPSJtNTAuODI1IDYxLjc1Yy0xLjE1LS42NzUtMS4wMjUtLjg1LjEyNS0uMiAxLjE1LjY3NSAxLjIuNy45LjctLjEyNSAwLS42LS4yMjUtMS4wMjUtLjV6Ii8+PHBhdGggZD0ibTQ3LjM1IDU3LjQ3NWMtLjM1LS43LS42LTEuMzI1LS41NS0xLjM3NXMuNC41MjUuNzc1IDEuMjc1LjYyNSAxLjM3NS41NSAxLjM3NS0uNC0uNTc1LS43NzUtMS4yNzV6Ii8+PHBhdGggZD0ibTQ0LjUgNDcuOTc1YzAtLjIuMzI1LS41NzUuNy0uODI1bC42NzUtLjQ3NS0uNjI1LjcyNWMtLjM1LjQtLjY1Ljc3NS0uNjc1LjgyNS0uMDUuMDUtLjA3NS0uMDUtLjA3NS0uMjV6Ii8+PHBhdGggZD0ibTM1LjU3NSAzNy42MjVjMC0uNTUuMDUtLjc1LjEtLjQyNS4wNS4zLjA1Ljc1IDAgMS0uMDc1LjIyNS0uMTI1LS4wMjUtLjEtLjU3NXoiLz48cGF0aCBkPSJtMzcuMjUgMzMuMzc1Yy40NzUtLjQ3NS45LS44NzUuOTc1LS44NzVzLS4yNS40LS43MjUuODc1LS45Ljg3NS0uOTc1Ljg3NS4yNS0uNC43MjUtLjg3NXoiLz48cGF0aCBkPSJtNDMuNTc1IDMzLjE3NWMtLjEtLjE3NS0uNDc1LS41MjUtLjgyNS0uNzUtLjMyNS0uMjI1LS41MjUtLjQyNS0uNDI1LS40MjUuMzUgMCAxLjM3NS43NzUgMS41MjUgMS4xNS4xNzUuNDUgMCAuNDUtLjI3NS4wMjV6Ii8+PHBhdGggZD0ibTQwLjQ1IDMxLjgyNWMuMy0uMDUuNzUtLjA1IDEgMCAuMjI1LjA3NS0uMDI1LjEyNS0uNTc1LjEtLjU1IDAtLjc1LS4wNS0uNDI1LS4xeiIvPjxwYXRoIGQ9Im0zNy4zNzUgMjguMzVjLS4yNS0yLjIgMC01LjE1LjUyNS02LjcyNS44MjUtMi4zNzUgNC4wMjUtNC43MjUgNy41NzUtNS41MjUgMS0uMjI1IDEuODUtLjM1IDEuOS0uMy4wNzUuMDUuMTUuMzUuMTc1LjY3NS4wNzUuNS0uMS42MjUtMS43NSAxLjA1LTIuNDUuNjI1LTQuMSAxLjU1LTUuNTUgMy4xNS0xLjcgMS44NzUtMi4zMjUgMy41NzUtMi4zNzUgNi42MjUtLjAyNSAxLjM1LS4xIDIuNS0uMTc1IDIuNi0uMS4wNzUtLjIyNS0uNjI1LS4zMjUtMS41NXoiLz48cGF0aCBkPSJtNTguMTc1IDE4LjYyNWMuMy0uNC45LTEuMDc1IDEuMzUtMS41LjYyNS0uNTUuNTUtLjQyNS0uMjUuNS0xLjQ3NSAxLjY3NS0xLjcgMS44NzUtMS4xIDF6Ii8+PHBhdGggZD0ibTQxLjUgMTQuODc1YzAtLjM3NSAxLjIyNS0xLjk3NSAyLjQyNS0zLjIgMi4zMjUtMi4zNSA1LjY3NS00LjQgOS41NS01Ljc3NSAxLjI3NS0uNDc1IDEuOTI1LS42IDIuMTI1LS40LjQyNS40MjUtLjEuOC0zLjI1IDIuMzI1LTIuNiAxLjI1LTQuNzUgMi43NzUtNi42IDQuNjc1LS45LjkyNS0xLjg1IDEuNzUtMi4xMjUgMS44MjVzLS44NzUuMjUtMS4zLjM3NWMtLjQ1LjE1LS44MjUuMjI1LS44MjUuMTc1eiIvPjxwYXRoIGQ9Im04OC4yNSAxMy43NWMtLjE1LS4yNzUtLjE3NS0uNS0uMDc1LS41LjEyNSAwIC4zNS4yMjUuNTI1LjVzLjIuNS4wNS41Yy0uMTI1IDAtLjM1LS4yMjUtLjUtLjV6Ii8+PHBhdGggZD0ibTUyLjEyNSAxMWMuOTUtLjk1IDEuOC0xLjc1IDEuODUtMS43NS4wNzUgMC0uNjUuOC0xLjYgMS43NS0uOTUuOTc1LTEuOCAxLjc1LTEuODUgMS43NS0uMDc1IDAgLjY1LS43NzUgMS42LTEuNzV6Ii8+PHBhdGggZD0ibTU0LjM1IDkuMDVjLjItLjMyNSAxLjY1LTEuNCAxLjY1LTEuMjI1IDAgLjA3NS0uNDI1LjQyNS0uOTI1LjgyNS0uNS4zNzUtLjgyNS41NzUtLjcyNS40eiIvPjxwYXRoIGQ9Im03OS41IDUuODc1Yy0uMzUtLjItLjUtLjM1LS4zNzUtLjM1LjE1IDAgLjUyNS4xNS44NzUuMzVzLjUyNS4zNS4zNzUuMzVjLS4xMjUgMC0uNTI1LS4xNS0uODc1LS4zNXoiLz48cGF0aCBkPSJtNjAgNS4zNzVjMC0uMTc1IDIuMDI1LTEuMTc1IDIuMTUtMS4wNzUuMDUuMDc1LS40MjUuMzUtMS4wMjUuNjUtLjYyNS4zLTEuMTI1LjUtMS4xMjUuNDI1eiIvPjxwYXRoIGQ9Im02Ny43IDMuMDc1Yy4zLS4wNS44LS4wNSAxLjEyNSAwIC4zLjA1LjA1LjEtLjU3NS4xcy0uODc1LS4wNS0uNTUtLjF6Ii8+PC9nPjwvc3ZnPg==;" parent="1" vertex="1">
          <mxGeometry x="477.2" y="550" width="65.39" height="90" as="geometry" />
        </mxCell>
        <mxCell id="G6czuGKD653RPVQLfgZw-7" value="Pulls the code" style="text;html=1;align=center;verticalAlign=middle;resizable=0;points=[];autosize=1;strokeColor=none;fillColor=none;" parent="1" vertex="1">
          <mxGeometry x="357.2" y="568" width="100" height="30" as="geometry" />
        </mxCell>
        <mxCell id="mC8NbQeeErdKrk85uzCq-1" value="VideoKYC ECR &lt;br&gt;(Non Production)" style="outlineConnect=0;dashed=0;verticalLabelPosition=top;verticalAlign=bottom;align=center;html=1;shape=mxgraph.aws3.ecr_registry;fillColor=#F58534;gradientColor=none;whiteSpace=wrap;labelPosition=center;" parent="1" vertex="1">
          <mxGeometry x="637.2" y="553" width="57" height="60" as="geometry" />
        </mxCell>
        <mxCell id="mC8NbQeeErdKrk85uzCq-9" style="edgeStyle=orthogonalEdgeStyle;rounded=0;orthogonalLoop=1;jettySize=auto;html=1;" parent="1" source="mC8NbQeeErdKrk85uzCq-1" target="mC8NbQeeErdKrk85uzCq-2" edge="1">
          <mxGeometry relative="1" as="geometry" />
        </mxCell>
        <mxCell id="mC8NbQeeErdKrk85uzCq-38" value="Pulls" style="edgeLabel;html=1;align=center;verticalAlign=middle;resizable=0;points=[];" parent="mC8NbQeeErdKrk85uzCq-9" vertex="1" connectable="0">
          <mxGeometry x="0.0865" y="-1" relative="1" as="geometry">
            <mxPoint y="-1" as="offset" />
          </mxGeometry>
        </mxCell>
        <mxCell id="mC8NbQeeErdKrk85uzCq-12" style="edgeStyle=orthogonalEdgeStyle;rounded=0;orthogonalLoop=1;jettySize=auto;html=1;" parent="1" source="mC8NbQeeErdKrk85uzCq-2" target="mC8NbQeeErdKrk85uzCq-11" edge="1">
          <mxGeometry relative="1" as="geometry" />
        </mxCell>
        <mxCell id="mC8NbQeeErdKrk85uzCq-2" value="" style="shape=image;verticalLabelPosition=bottom;labelBackgroundColor=default;verticalAlign=top;aspect=fixed;imageAspect=0;image=data:image/svg+xml,PHN2ZyB4bWxucz0iaHR0cDovL3d3dy53My5vcmcvMjAwMC9zdmciIHdpZHRoPSI5Mi43NSIgdmlld0JveD0iMTcuNSAwLjAwOTI4NDM0NzI5NTc2MTEwOCA5Mi43NSAxMjcuOTQ5NzkwOTU0NTg5ODQiIHByZXNlcnZlQXNwZWN0UmF0aW89InhNaWRZTWlkIG1lZXQiIGhlaWdodD0iMTI3Ljk0OTc5MDk1NDU4OTg0Ij48cGF0aCBmaWxsPSIjMjAxZDFlIiBkPSJtNjMuNjI1IDEyNy44MjVjLTEuNDc1LS4xNzUtMy43NzUtLjYtNS4wMjUtLjk1bC0xLjMtLjM3NS0uNy0xLjkyNWMtLjQtMS4wNzUtMS4zNS00LjAyNS0yLjEtNi41NzVsLTEuNC00LjYyNS0xLjk3NS0uMTVjLTMuMDI1LS4yMjUtNC43NS0uNzc1LTkuNzI1LTMuMDc1LTIuNDc1LTEuMTUtNC44NzUtMi4yMjUtNS4zMjUtMi4zNzUtLjQyNS0uMTc1LTEuMDI1LS42LTEuMzUtLjkyNS0uNTI1LS41NzUtLjYtLjkyNS0uOC00LjcyNWwtLjItNC4xMjUtMS40LTEuM2MtNy43LTcuMjUtMTIuODc1LTE3LjI3NS0xNC40NS0yNy45NzUtLjUtMy40NzUtLjUtMTAuMjI1IDAtMTMuNyAxLjU1LTEwLjYgNi43MjUtMjAuNjc1IDE0LjIyNS0yNy43bDIuMS0xLjk3NS4zLTIuMDc1Yy40NzUtMy41NSAxLjc1LTYuMTI1IDMuNjI1LTcuMzI1LjU1LS4zNzUgMS0uOTc1IDEuMjc1LTEuNyAxLjMyNS0zLjQ1IDMuNDc1LTUuMzI1IDEwLjYtOS4yNSA0LjY1LTIuNTc1IDkuMDc1LTQuMTI1IDEzLjM3NS00Ljc1IDIuMzI1LS4zMjUgNy4yMjUtLjMyNSA5LjQ1LjAyNSA2LjM3NS45NSA5Ljk1IDIuNzUgMTQuNTI1IDcuMyAzLjEgMy4xIDQuODc1IDUuNTUgNS45MjUgOC4yNzUuODc1IDIuMjUgMS44MjUgNi41NSAyLjEgOS4zNzVsLjE3NSAxLjg1IDIuMzc1IDIuNjVjOC4wMjUgOC45NSAxMi4zMjUgMjAuMiAxMi4zMjUgMzIuMTUgMCA3LjYtMS43IDE0Ljg3NS01LjAyNSAyMS40MjVsLTEuMjc1IDIuNTI1Ljc3NS42YzEuMTUuOSAxLjkgMi4zNzUgMy4xNSA2LjE3NS45MjUgMi43NzUgMS4xMjUgMy43NSAxLjEyNSA1LjIyNSAwIDMuMDUtMS4xIDYuMjUtMi43IDcuNzUtMS4zMjUgMS4yNS00LjgyNSAxLjc1LTkgMS4yNzUtMS4zNzUtLjE1LTEuNjUtLjI3NS0yLjEyNS0uOTI1bC0uNTUtLjcyNS0yLjEyNS4xMjVjLTIuNi4xNzUtNCAuNi00IDEuMiAwIC44MjUtLjMyNSAxLjI1LTEuMjc1IDEuNzUtLjkyNS40NS0uOTc1LjU1LS45NzUgMS42IDAgLjYyNS4yNzUgMi40MjUuNjI1IDQuMDI1IDEuMjI1IDUuNjc1LjcyNSA2LjcyNS0zLjcyNSA3LjcyNS0uNy4xNS0uNy4xNS0uNTUgMS42MjUuMzI1IDIuODUtMS4xNzUgNC01LjgyNSA0LjQ3NS0yLjM1LjI1LTExLjM3NS4zMjUtMTMuMTUuMXoiLz48ZyBmaWxsPSIjMzM1MDYxIj48cGF0aCBkPSJtNTEuMzc1IDExMC4yMjVjLTIuNTc1LS4zNS02LjEtMS42NzUtMTAuNDc1LTMuOTI1LTMuMTc1LTEuNjI1LTQuMjUtMi4zLTQuMy0yLjY3NS0uMDI1LS4yNzUtLjEyNS0xLjk1LS4yLTMuNzUtLjQyNS04Ljk1LTIuNC0xOC43LTUuMy0yNi0uNjI1LTEuNi0xLjEtMi45NS0xLjA1LTMgLjAyNS0uMDI1IDEuNDc1LTEuMSAzLjItMi4zNzUgMy41MjUtMi42IDguMDc1LTUuMzc1IDEwLjc3NS02LjU1bDEuOC0uOCAyLjE1IDIuMjc1YzIuMyAyLjQ3NSAzLjUyNSAzLjMgNy43NzUgNS4zNWwyLjY3NSAxLjI3NS40NSAxLjkyNWMuMjUgMS4wNS44MjUgMy4xIDEuMjc1IDQuNTc1LjY3NSAyLjEgMS4wMjUgMi44IDEuNjI1IDMuMy44MjUuNyAxLjMyNS44IDIuMzI1LjQuODUtLjMyNS44MjUtLjEtLjIyNSAxLjM1LTEuMDI1IDEuNDI1LTEuMSAyLjM1LS4zIDMuMDc1LjU1LjUyNSA3LjEgMy44NSA5LjA1IDQuNmwxIC40LTIuMzc1LjE1Yy0xLjMuMS00LjE1LjI3NS02LjM1LjQyNS0zLjUyNS4yNS03Ljg3NS42NzUtMTEuMiAxLjE1LTEuMTI1LjE1LTEuMTc1LjE1LTEuMzc1LS41NS0uMjI1LS44MjUtLjI1LTQuODc1LS4wNzUtOC45LjEyNS0yLjctLjA1LTMuNC0uNzI1LTIuOTc1LS41NzUuMzUtLjcyNSAyLjE1LS40NSA1LjQ3NS4yNzUgMy40NS4wNzUgNi0uNDUgNi4yLS4xNzUuMDc1LS45MjUtLjI3NS0xLjY3NS0uNzUtLjcyNS0uNS0xLjQtLjktMS41LS45LS4zNzUgMC0uMi45NS4zIDEuNTc1LjI3NS4zNS41LjguNSAxLjAyNSAwIC40MjUtLjc1LjktMS40NS45LS41MjUgMC0xLjQ3NS45LTEuMiAxLjE3NS4wNzUuMSAxLjMuMTUgMi43MjUuMTI1IDEuNC0uMDI1IDIuNjc1LjAyNSAyLjg1LjE1LjE3NS4xLjQyNSAxLjM3NS41NzUgMi45NS4xNSAxLjUyNS42IDUuMTI1IDEgOCAuNjc1IDQuOTUuNyA1LjY1LjMgNS41NzUtLjEtLjAyNS0uODUtLjEyNS0xLjY3NS0uMjV6Ii8+PHBhdGggZD0ibTgwLjQgMTA1LjkyNWMtLjMyNS0yLjQ1LS43LTEyLjcyNS0uNDUtMTIuOTc1LjEyNS0uMTI1IDEtLjI1IDEuOTUtLjI3NWwxLjctLjA1LjMgMS4zNWMuMTc1Ljc1LjUgMy41NS43MjUgNi4yNXMuNDI1IDUuMTI1LjQ1IDUuNGMuMDUuNS0uNDc1LjY3NS0zLjYgMS4yLS45MjUuMTI1LS45MjUuMTI1LTEuMDc1LS45eiIvPjxwYXRoIGQ9Im04Mi4xNzUgODguODI1Yy4zNzUtLjY3NSAxLjQtMi4zNzUgMi4zLTMuODI1czIuNDUtNC4wMjUgMy40NS01LjcyNWwxLjg1LTMuMS0uNzI1LS45Yy0xLjA3NS0xLjM1LTEuMDc1LTEuNC0uNjI1LTIuNDI1LjMtLjcyNS40MjUtMS43MjUuNDI1LTMuODUgMC0zLjQtLjQ1LTUuMy0xLjY1LTYuNjUtLjctLjc3NS0uOS0uODc1LTEuNzUtLjgtLjUyNS4wNS0uOTI1LjAyNS0uOS0uMDc1LjA1LS4xLjc3NS0uNzUgMS42LTEuNDVsMS41NS0xLjI3NSAyLjg3NSAyLjY3NWMxLjU3NSAxLjUgMy40NSAzLjIyNSA0LjE1IDMuODc1IDEuNTc1IDEuNDUgMS42IDEuNjc1LjQyNSA2LjUyNS0xLjI1IDUuMi00LjMyNSAxMy45NzUtNS42NSAxNi4xMjUtLjY1IDEuMDUtMS4xIDEuMi00LjIgMS40LTEuNDI1LjA3NS0yLjguMjUtMy4wNS40LS43NzUuNDI1LS44LjMtLjA3NS0uOTI1eiIvPjxwYXRoIGQ9Im04MC44NzUgODcuNzc1Yy40NzUtMS41LjkyNS00LjQyNSAxLjI3NS04LjI3NS40NzUtNC44NS41MjUtNSAyLjE3NS01IDEuMiAwIDIuMzc1LjUyNSAzLjMgMS41bC43LjcyNS0xLjU3NSAyLjdjLTIuMTI1IDMuNjUtNS41NSA4LjgyNS01LjgyNSA4LjgyNS0uMSAwLS4xNS0uMi0uMDUtLjQ3NXoiLz48L2c+PGcgZmlsbD0iI2QzMzgzMyI+PHBhdGggZD0ibTMxLjkgOTIuMjI1Yy0xNC40MjUtMTUuOS0xNS42LTQwLjMtMi43NS01Ny4zNzUgMS41NS0yLjA1IDUuMDI1LTUuODUgNS4zNzUtNS44NS4xIDAgLjI3NS4zNzUuMzUuODI1LjEyNS42NS0uMDI1IDEuMTc1LS42NzUgMi40MjUtLjggMS41NzUtLjgyNSAxLjY1LS44IDQuNzI1IDAgMi44MjUuMDc1IDMuMzUuNyA1LjAyNSAxLjM1IDMuNiAzLjQyNSA1LjgyNSA2LjI1IDYuNzc1bDEuMjUuNDI1LjQ1IDEuODI1Yy4yNS45NzUuOTUgMi43MjUgMS41NzUgMy44NSAxLjIyNSAyLjI1IDEuMzc1IDMuMDc1LjcgMy43LS4yNS4yLTIuNDI1IDEuNTI1LTQuODI1IDIuOTI1LTIuNCAxLjQyNS01LjMgMy4xNzUtNi40NSAzLjktMS4xMjUuNzUtMi42MjUgMS42MjUtMy4yNzUgMS45NzUtMS42MjUuODI1LTIuNTI1IDEuOS0yLjUyNSAzLjEgMCAuODc1IDIuMTI1IDcuMzUgMy42NzUgMTEuMjc1LjQyNSAxLjAyNSAxIDIuODI1IDEuMjc1IDQgLjYgMi41IDEuMzc1IDcuMzc1IDEuMjUgNy43NzUtLjA1LjE3NS0uNzUtLjQyNS0xLjU1LTEuM3oiLz48cGF0aCBkPSJtOTEuNzUgODguMzI1YzAtLjEuNjc1LTIuMTI1IDEuNTI1LTQuNTUgMi41LTcuMjUgNS0xNS41NSA1LjE1LTE3LjAyNS4xNS0xLjc1LS4yMjUtMi4zNS0zLjQyNS01LjItNC42LTQuMS01LjUtNS4wNS01LjUtNS43MjUgMC0uMzUuNTI1LTEuNiAxLjE1LTIuNzUgMS4yNS0yLjMgMi4wNS00LjQ1IDMtOC4xLjcyNS0yLjgyNSAxLjYtOC41MjUgMS42LTEwLjUgMC0uNzc1LjA3NS0xLjc3NS4xNS0yLjJsLjE3NS0uOC42MjUuNTc1YzIuNjUgMi40NzUgNi44IDkuNDI1IDguNTI1IDE0LjMgMS45MjUgNS40MjUgMi42IDkuNTUgMi42IDE1LjUyNSAwIDQuNjI1LS4yNzUgNy4xNzUtMS4yMjUgMTAuOS0uOSAzLjYtMS45NzUgNi41LTMuNjI1IDkuNzc1bC0xLjUgMi45LTEuNi4yNzVjLTEuNi4yNzUtMy41NzUuOTUtNi4xNzUgMi4xLS44LjM1LTEuNDUuNTc1LTEuNDUuNXoiLz48cGF0aCBkPSJtNjIuMTUgNzcuOTVjLS4xNzUtLjMyNS0uNzI1LTEuNjUtMS4xNzUtMi45NS0uNzc1LTIuMi0uODUtMi42LS44NS01LjUgMC0zLjQ1LjM1LTQuNiAxLjQ3NS00LjkgMS0uMjUgNC41MjUuODc1IDcuNiAyLjQyNSAxLjYuODI1IDMuMDc1IDEuNDc1IDMuMjUgMS40NzUuMzc1IDAgLjQuNjUuMDI1LjktLjE1LjEtLjguMy0xLjQ1LjQ3NS0xLjIuMzI1LTEuMTc1LjM3NS44Ljg3NSAxLjEyNS4zIDEuMTc1LjM1IDEuMTc1IDEuMjUgMCAuODUtLjE1IDEuMDI1LTIuMDUgMi41NS0yLjc3NSAyLjItMy41IDIuNi01Ljc3NSAzLjMyNS0yLjQuNzc1LTIuNTc1Ljc3NS0zLjAyNS4wNzV6Ii8+PHBhdGggZD0ibTgxLjM3NSA3Mi44NWMtMi43MjUtLjQ3NS0yLjYyNS0uNC0yLjYyNS0xLjgyNSAwLTEuMzc1LjM3NS0xLjc3NSAxLjYyNS0xLjc3NS4zNzUgMCAuNi0uMS41LS4yNS0uMDc1LS4xMjUtLjYyNS0uMjUtMS4yLS4yNS0uOTUgMC0xLjEtLjA3NS0xLjM1LS43NS0uMjc1LS43MjUtLjI3NS0uNzUgMS43MjUtMiA1LjQtMy40NzUgNi40NzUtMy4xIDcuMiAyLjU3NS4yMjUgMS44NzUuMTI1IDMuNDI1LS4zIDQuMjUtLjI3NS41MjUtMi42LjU1LTUuNTc1LjAyNXoiLz48cGF0aCBkPSJtNzQuNjI1IDcxLjY1Yy0uMzc1LS4yNzUtLjQ3NS0uNjc1LS41LTEuOCAwLTEuNDI1LjAyNS0xLjQ1LjgtMS42NzUgMi4xMjUtLjYyNSAzLjIgMi42MjUgMS4xNzUgMy41NS0uOC4zNS0uOS4zNS0xLjQ3NS0uMDc1eiIvPjwvZz48ZyBmaWxsPSIjNmY2YzZlIj48cGF0aCBkPSJtNjQuNjI1IDEyNC45NzVjLS44MjUtLjEyNS0yLjUtLjQ3NS0zLjc1LS43NzVsLTIuMjUtLjU3NS0xLjAyNS0zLjVjLTItNi43LTMuNTI1LTE0LjI1LTQuNTc1LTIyLjM3NS0uMjUtMi0uMzc1LTMuNzI1LS4yNzUtMy44MjUuMy0uMzUgOC4yLTEuMzc1IDEyLjgtMS42NzUgMy4yMjUtLjIgNS4zMjUtLjIgNy43NS0uMDI1IDQuMjc1LjM1IDQuNzUuNSA0Ljk3NSAxLjQuMTI1LjM3NS4zMjUgMy4yNS40NzUgNi4zNS4xNzUgMy4xLjMyNSA1LjcyNS40IDUuOC4wNS4wNzUuMiAzIC4zNSA2LjUuMjUgNS44NzUuNTc1IDEwLjI1LjkgMTEuMjc1LjE1LjUtLjY3NS44LTMuNjc1IDEuMzI1LTIuMzI1LjQtOS41MjUuNDc1LTEyLjEuMXoiLz48cGF0aCBkPSJtODAuOSAxMTcuMzI1Yy0uMDc1LTEuMDc1LS4yLTMuMy0uMy00Ljk3NS0uMTc1LTMuNC0uMjc1LTMuMiAxLjg1LTMuNWwxLjItLjE1LjY3NSAzLjQ1Yy4zNzUgMS45MjUuNjc1IDQuMS42NzUgNC44NzV2MS40bC0xLjQ1LjQyNWMtMi40NzUuNy0yLjQ3NS43LTIuNjUtMS41MjV6Ii8+PHBhdGggZD0ibTk3IDEwNS4wMjVjLS41NzUtLjQyNS0uMDI1LS42NSAyLjU3NS0xLjE3NSAzLjQtLjY1IDIuMjc1LS45NzUtMi43MjUtLjc1bC00LjA3NS4xNS0uMTI1LTEuMDVjLS4wNzUtLjYtLjI3NS0yLjI1LS40MjUtMy43LS4xMjUtMS40NS0uNDI1LTMuNDUtLjYyNS00LjQ3NS0uMzUtMS42NzUtLjM1LTEuODc1LjAyNS0yLjI3NS41NS0uNiAyLjIyNS0xLjM3NSA0Ljc1LTIuMjUgMS4xLS4zNzUgMi40NzUtLjkyNSAzLjA1LTEuMjI1IDIuNTUtMS4yNzUgNC41IDAgNS42NzUgMy42NzUgMS45NSA2LjE3NSAxLjk3NSA5LjA1LjE1IDExLjM3NS0xIDEuMjUtMi4zMjUgMS43MjUtNS4yNSAxLjg1LTEuNjI1LjA3NS0yLjc3NSAwLTMtLjE1em00LjUtNi4zYy0uOS0uMzc1LTQuMDI1LS41NzUtNS4xNS0uMzVsLS45NzUuMjI1Ljg3NS4xNWMuNDc1LjEgMiAuMiAzLjM3NS4yIDEuOTI1LjAyNSAyLjM1LS4wNSAxLjg3NS0uMjI1em0tMS4zNS0zLjE1YzEuMTUtLjE3NSAxLjE3NS0uMi40NzUtLjM1LTEuMy0uMy0zLjcyNS0uMjI1LTQuNS4xNS0uNzI1LjMyNS0uNjc1LjMyNSAxLjAyNS4zNS45NzUuMDI1IDIuMzI1LS4wNSAzLS4xNXptLTIuNC0yLjg3NWMxLjcyNS0xIDEuOTUtMS4yIDEuMjUtMS4wNzUtMS44NS4zNS0zLjIyNS45MjUtNC4xNSAxLjc3NWwtLjk3NS44NzUuODc1LS4xNzVjLjQ3NS0uMDc1IDEuODI1LS43IDMtMS40eiIvPjxwYXRoIGQ9Im04Ny45IDEwMy45NzVjLS4wNS0uMi0uMjc1LTEuNzUtLjUtMy40NzVzLS41NzUtNC4yNS0uOC01LjZjLS4yMjUtMS40NzUtLjI3NS0yLjU3NS0uMTUtMi43cy43NzUtLjIgMS40NS0uMTVsMS4yMjUuMDc1LjYgMS41Yy44IDIuMDI1IDEuMjUgNC43NzUgMS4yNzUgNy41NzUgMCAyLjMgMCAyLjMyNS0uNjc1IDIuNTc1LTEuMjUuNDc1LTIuMy41NzUtMi40MjUuMnoiLz48cGF0aCBkPSJtNzMuODc1IDg3LjE1Yy0xLjc3NS0uNzI1LTQuNTI1LTEuOTUtNi4wNzUtMi43NS0yLjUyNS0xLjMtMi44LTEuNS0yLjY1LTEuOTc1LjU1LTEuNzc1IDIuMTc1LTMuNiA0Ljc3NS01LjM3NS44NzUtLjU3NSAxLjYyNS0xLjA1IDEuNjc1LTEuMDUuNDc1IDAgMy43NSA2LjI3NSA1LjYyNSAxMC43LjY1IDEuNTUuNyAxLjguMzI1IDEuOC0uMjI1IDAtMS44NzUtLjYtMy42NzUtMS4zNXoiLz48cGF0aCBkPSJtODAuODc1IDg3Ljc3NWMuNDc1LTEuNS45MjUtNC40MjUgMS4yNzUtOC4yNzUuMzI1LTMuMjc1LjUyNS00LjQ1LjgtNC42NzUuOTUtLjc3NSAzLjQ3NS0uMSA0Ljc1IDEuMjVsLjU3NS42LS42MjUgMS4xYy0xLjM3NSAyLjQ3NS0yLjQ3NSA0LjI3NS00LjQ1IDcuMy0xLjkyNSAyLjk1LTIuNyAzLjg1LTIuMzI1IDIuN3oiLz48cGF0aCBkPSJtNzkuMzI1IDg3LjEyNWMtLjI3NS0uNTUtMS4wNS0yLjIyNS0xLjctMy43NS0xLjYyNS0zLjc3NS0yLjUtNS41LTMuNjc1LTcuMi0uOTUtMS40LS45NzUtMS41LS41NS0xLjk1LjI1LS4yNzUuNzc1LS40NzUgMS4yLS40NzUuNDI1LS4wMjUgMS4wNS0uMTc1IDEuNC0uMzc1LjkyNS0uNTI1IDEuNTI1LS40NSAyLjgyNS4zNzUuNjUuNCAxLjQ3NS44MjUgMS44MjUuOWwuNjc1LjE3NS0uMTc1IDMuOTc1Yy0uMTc1IDMuOS0uNjI1IDcuNDUtMS4xIDguNy0uMjI1LjYyNS0uMjI1LjYyNS0uNzI1LS4zNzV6bS4zLTZjMC0uNjI1LS4xLS43NS0uNjI1LS43NS0uNCAwLS42NS4xNS0uNy40NS0uMTUuNzUuMTUgMS4yMjUuNzUgMS4xMjUuNDUtLjA1LjU3NS0uMjI1LjU3NS0uODI1em0tLjc3NS00Yy4yMjUtLjYyNS0uMTI1LTEuMTI1LS43NS0xLjEyNS0uMzUgMC0uNjc1LjE3NS0uNzUuMzc1LS4yNS42MjUuMSAxLjEyNS43NSAxLjEyNS4zMjUgMCAuNjUtLjE3NS43NS0uMzc1eiIvPjxwYXRoIGQ9Im01Ni4xMjUgNjcuMjc1Yy0xLjc3NS0uNjI1LTMuMTc1LTEuMzc1LTMuNzI1LTJzLS4zNzUtMS40MjUuMy0xLjE1Yy43NzUuMzI1IDIuMTUuNTc1IDQuMTI1Ljc1IDIuMTI1LjE3NSAyLjE1LjIgMS42NSAxLjk1LS4yNzUgMS4wNS0uNSAxLjEtMi4zNS40NXoiLz48cGF0aCBkPSJtNzMuMzUgNjYuNTI1Yy0uODUtLjIyNS0yLjg1LTEuMjc1LTIuODUtMS41MjUgMC0uMS44MjUtLjEyNSAxLjgyNS0uMDUgMS4zNS4wNzUgMi41LS4wNSA0LjI1LS40NSAxLjM1LS4zIDIuNTUtLjUgMi42NzUtLjQ1LjE1LjA1LS41LjY3NS0xLjQyNSAxLjQtMS43NSAxLjM3NS0yLjQ3NSAxLjU1LTQuNDc1IDEuMDc1eiIvPjxwYXRoIGQ9Im01Ni44NzUgNjMuNzVjLTIuMzc1LS4yNS01LjA1LTEuMDc1LTYuNDI1LTItMS4zLS44NzUtMi41NzUtMi42MjUtMy43MjUtNS4xNzUtMS4xMjUtMi40NzUtMi4yMjUtNS43NS0yLjM3NS03LjI1LS4xNS0xLjIyNS0uMTI1LTEuMzUuNzUtMi40MjUuNjI1LS43MjUuOS0xLjMyNS44NS0xLjctLjEtLjc1LS42NzUtLjY1LTIuMDI1LjMyNS0xLjc3NSAxLjI3NS00LjA1Ljg3NS01Ljc1LTEtMS43NzUtMS45NzUtMy4xLTUuNDUtMi44NS03LjU1LjQ1LTMuODI1IDQuMzI1LTYuNSA3LjM1LTUuMDc1LjkyNS40NSAyLjEyNSAyLjI3NSAyLjU3NSAzLjkyNS4yNS44NzUuMzI1LjkyNSAxLjI3NS45MjUuNTUgMCAxLjM3NS0uMTc1IDEuODUtLjM1IDEuMDc1LS40NSAxLjEyNS0xLjAyNS4zMjUtMy45NzUtLjctMi42NzUtLjY3NS01IC4xNS04LjkuNy0zLjMuODI1LTUuODc1LjM3NS03LjY1LS4yNzUtMS4wNS0uMjI1LTEuMi41LTIuMzI1IDIuMjUtMy41IDguOTUtOC40IDEzLjc3NS0xMC4wNzUgMi4wNzUtLjcgNi42LS43NzUgOS41NzUtLjEyNSA0LjI1LjkyNSA4Ljg3NSAyLjkyNSAxMS4wNzUgNC44IDEuMDUuOSA1LjEgNS44NSA1LjEgNi4yNSAwIC4wNS0uNDI1LjA1LS45NS0uMDUtMi4wMjUtLjMyNS00LjA1Ljg1LTQuMDUgMi4zMjUgMCAuNTc1LjAyNS41NzUuNTUuMjI1Ljk3NS0uNyAzLjAyNS0uNTI1IDQuNzUuNCAyLjYgMS4zNzUgMy41MjUgMy4yIDMuOTc1IDcuODUuNDI1IDQuMjc1LjE1IDEyLjgtLjQ3NSAxNS45LTEuMDUgNC45NS0yLjY1IDguOTc1LTUuMjI1IDEyLjk1LTIuMDUgMy4xNS0yLjk3NSA0LjItNC44NSA1LjQyNS0zLjYyNSAyLjMyNS03LjQgMy41NzUtMTAuODUgMy41NzUtMi40NzUgMC00LjA1LS40NS02Ljk3NS0xLjk1LTIuNjc1LTEuMzc1LTUuODUtNC4yNzUtOC4zNS03LjYtLjktMS4yLTEuNjc1LTIuMTUtMS43NS0yLjEtLjI3NS4zLjY1IDIuMTI1IDEuOTUgMy44NSAxLjcgMi4yNzUgNS4yNSA1Ljc1IDYuNzI1IDYuNTc1LjU1LjMyNSAxLjAyNS43IDEuMDI1LjggMCAuMTI1LS42LjEyNS0xLjMyNS4wNS0xLjU3NS0uMi0zLjE1LjE3NS0zLjguODc1LS4yNS4yNzUtLjU3NS40NzUtLjcyNS40NzUtLjE1LS4wMjUtMS4wNS0uMTI1LTIuMDI1LS4yMjV6bTIzLjctOC43NWMuNS0uMTUgMS4xNS0uNTI1IDEuNDUtLjgyNWwuNS0uNTUtNC4yLS4xNWMtNS44LS4yLTcuMzUtLjctOS40LTIuOTc1LS42NS0uNy0xLjMyNS0xLjI1LTEuNTUtMS4yLS4yNS4wNS4xMjUuNyAxLjM1IDIuMiAyLjI3NSAyLjggMi44IDMuMjUgNC4yIDMuNjVzNi4xNzUuMyA3LjY1LS4xNXptLjMyNS01LjQyNWMtLjA3NS0uNTI1LS4xNS0xLjEyNS0uMTUtMS4zNSAwLS4zNS0uNTUtLjQyNS00LjA1LS41NS0zLjY3NS0uMS01LjM1LS4zNS03LjMyNS0xLjA3NS0uOTI1LS4zMjUgMS4xNzUgMS42NSAyLjQgMi4zIDEuNzUuODc1IDQuNzUgMS41IDcuNyAxLjU3NWwxLjYuMDI1em0zLjU1LjNjMS42MjUtLjUgMy40NS0xLjk1IDQuNi0zLjY1LjUtLjc1Ljg3NS0xLjM3NS44MjUtMS40MjUtLjAyNS0uMDUtMS4wNzUuNDI1LTIuMzI1IDEuMDUtMS4yMjUuNjI1LTIuNzc1IDEuMjc1LTMuNDUgMS40MjVzLTEuMzc1LjMyNS0xLjUyNS4zNzVjLS4yLjA1LS4zMjUuNTUtLjMyNSAxLjM1IDAgMS40NS4xIDEuNDc1IDIuMi44NzV6bS0zLjM3NS00LjZjMi0uNTI1IDMuMS0xIDUuNTUtMi40NzUgMS40MjUtLjgyNSAxLjU1LS45NzUgMS45NS0yLjMyNS4yMjUtLjguNDI1LTEuNTc1LjQyNS0xLjc1IDAtLjE1LS45NzUtMS4zLTIuMTUtMi41NS0zLjYyNS0zLjg3NS01Ljg1LTcuMDc1LTcuMjUtMTAuNTUtLjE3NS0uMzc1LS4yMjUtLjIyNS0uMy42NS0uMTUgMi4yNSAxLjQ1IDUuMzI1IDUuMDI1IDkuNjI1IDIuNTI1IDMgMi44NzUgMy43NSAyLjQgNC45LS4yNS42NS0uNzUuOTc1LTIuODI1IDEuOTc1LTMgMS40LTQuMSAxLjcyNS01LjggMS43MjUtMS41IDAtMi4yNzUtLjY1LTIuNTI1LTIuMTI1LS4xMjUtLjc1LS4yLS44NS0uNC0uNS0uMzUuNjUtLjI1IDIuMjI1LjIgMy4xLjM3NS43NS40NS43NzUgMi4xLjc3NS45MjUgMCAyLjU1LS4yMjUgMy42LS40NzV6bS00MC45LTUuOTVjLjA3NS0yLjE1LjUtMy4wNzUgMS40MjUtMy4wNzUuNjc1IDAgMS4xMjUuNDc1IDEuOTI1IDIgLjU3NSAxLjEyNS42IDEuMTI1LjY3NS40LjEyNS0xLjEtLjYyNS0yLjc3NS0xLjcyNS0zLjc1LS44LS43NS0xLjE3NS0uOS0yLjA3NS0uOS0uOTI1IDAtMS4yLjEyNS0xLjc1Ljc3NS0uOC45NS0uODI1IDEuMzUtLjA1Ljg1LjctLjQ3NSAxLjUyNS0uMjUgMS4yMjUuMzUtLjQuNzc1LS4yIDUuMjc1LjIyNSA1LjI3NS4wNSAwIC4xLS44NS4xMjUtMS45MjV6bTMxLjc1LTYuOTc1Yy43NS0uNTc1Ljk3NS0xLjEuODI1LTIuMS0uMDI1LS4yLS40NzUtLjgyNS0xLTEuMzc1LS41NS0uNTUtMS4zNzUtMS44NS0xLjg3NS0yLjg3NWwtLjg3NS0xLjg3NS4wNzUgMS4xMjVjLjEgMS4xNS43MjUgMi42NSAxLjcgNC4yLjUuNzc1LjUyNS44NzUuMTI1IDEuMjUtLjMyNS4zMjUtLjc3NS40LTEuOTc1LjM1LTMuNzUtLjItMy41NS0uMi0zLjYyNS4zNS0uMjUgMS43MjUgNC43IDIuNDI1IDYuNjI1Ljk1em0xOC43LTEuMDc1Yy41NS0uMjUgMS4yLS42NzUgMS40MjUtLjk1LjQyNS0uNDUuMzc1LS42LTEuMDUtMy40LTEuMzI1LTIuNTc1LTEuNS0yLjgyNS0xLjUtMi4wNSAwIC40NzUuMyAxLjYuNjc1IDIuNS41IDEuMi42IDEuNy40IDEuOS0uMTc1LjE3NS0xLjE3NS4zNzUtMi4yNS41LTEuMDc1LjEtMS45NzUuMi0yIC4yLS4yLjA1LS4wMjUuNzUuMzI1IDEuMjI1LjMuNDUuNjI1LjU1IDEuNjc1LjU1LjcyNSAwIDEuNzUtLjIyNSAyLjMtLjQ3NXptLTMxLjEyNS0xMC44NzVjMS41LTIuMDI1IDIuOTc1LTIuNzc1IDUuMzI1LTIuNzUgMS42NzUgMCAxLjcgMCAxLjYyNS0uNjI1LS4xMjUtMS0xLjU3NS0xLjg1LTIuOC0xLjY1LTIuMTc1LjMyNS00LjkyNSAyLjUyNS01LjggNC42LS42IDEuNC0uMzUgMy40NzUuMjc1IDIuMzc1LjEyNS0uMjI1Ljc1LTEuMSAxLjM3NS0xLjk1eiIvPjxwYXRoIGQ9Im00Ni45MjUgMzQuNTc1Yy0uMS0uMDc1LS4xNzUtLjQyNS0uMTc1LS43NSAwLTEuNTc1LTEuODc1LTMuNjc1LTMuOTI1LTQuMzUtMS4yLS40LTQuMi0uMTc1LTQuOC4zNzUtLjIyNS4yMjUtLjUyNS4zMjUtLjYuMjI1LS4xLS4wNzUtLjE3NS0xLjY1LS4xNzUtMy40NSAwLTQuMjUuMzUtNS40NzUgMi4wNzUtNy4zIDEuNzUtMS44NSA0LjgtMy4zNzUgNi44NS0zLjQyNWwxLjQ1LS4wMjUuMjI1IDEuNzI1Yy4yIDEuMzUuMTI1IDIuNTUtLjMgNS43NS0uNjc1IDUuMDI1LS42NzUgNS41IDAgOC4zMjUuNDUgMS45LjQ3NSAyLjM1LjIyNSAyLjY3NS0uMzc1LjQyNS0uNi41LS44NS4yMjV6Ii8+PHBhdGggZD0ibTQxLjY3NSAxNC4yYy44NS0xLjQ3NSAzLjE1LTMuNzI1IDUuMy01LjE1IDMuOC0yLjU1IDguOS00LjQyNSA4LjktMy4zIDAgLjItLjIyNS40NzUtLjUuNjI1LTIuMDI1IDEuMDI1LTQuMTUgMy4wNS01LjI1IDQuOTI1LS4zNzUuNjUtLjk3NSAxLjUyNS0xLjM3NSAxLjk1LS42NS43LS44MjUuNzUtMi4zLjcyNS0xLjAyNS0uMDI1LTIuMDc1LjE1LTMuMDUuNS0yLjA3NS43NS0yLjI3NS43LTEuNzI1LS4yNzV6Ii8+PC9nPjxnIGZpbGw9IiM0YTczOGQiPjxwYXRoIGQ9Im0zNy4yNSAxMDQuNDI1Yy0uMzUtLjItLjYtLjQ1LS41NzUtLjU3NS4wNzUtLjQyNS0uNC03LjQtLjY3NS05LjcyNS0uNTc1LTQuODUtMS43NS0xMC44NzUtMi43NzUtMTQuMjUtLjc3NS0yLjYyNS0xLjUyNS00LjgyNS0xLjc1LTUuMzc1LS4xNzUtLjM1LS4zNzUtLjg1LS41LTEuMTI1LS45LTIuMi0uOTc1LTIuNS0uNzI1LTIuNTc1LjE1LS4wNS45NS0uNjI1IDEuNzUtMS4yNzUgMy4yLTIuNTI1IDguMTUtNS43MjUgMTEtNy4wNS45LS40MjUgMS45LS45IDIuMjI1LTEuMDUuNTUtLjI3NS43LS4xNzUgMi4xNzUgMS40NS44NzUuOTUgMS42IDEuOCAxLjYgMS44NzUgMCAuMTc1LjE1LjEtOC4zNzUgMy44NzUtMy4zIDEuNDc1LTYuMDUgMi43LTYuMDc1IDIuNzUtLjA1LjA1LjIgMS40MjUuNTc1IDMuMDUgMS40MjUgNi4zMjUgMi41MjUgMTIuOCAzLjEyNSAxOC4yNzUuNDUgNC4xMjUuMyAxMi4wNS0uMjI1IDEyLjA1LS4wNzUgMC0uNDI1LS4xNS0uNzc1LS4zMjV6Ii8+PHBhdGggZD0ibTc5Ljk1IDk2LjZjLS4yNS0uMjI1LS4yNS0xLjc1LS4wNS0yLjguMTc1LS44NzUuNS0xLjA1IDIuMzI1LTEuMTUgMS4yLS4xIDEuMjUtLjA3NSAxLjUuNjc1LjE1LjQuMjc1IDEuMTI1LjI3NSAxLjYgMCAuNzUtLjEyNS45LS45MjUgMS4yNS0xLjEuNDUtMi44NzUuNy0zLjEyNS40MjV6Ii8+PHBhdGggZD0ibTQ5IDk1Ljc1Yy0xLjc1LS4zLTIuNjUtLjYtMy40NS0xLjEyNS0uNzI1LS40NzUtLjk3NS0uNzc1LS43NS0uOS4xNS0uMS40MjUtLjEyNS41NzUtLjAyNS4xMjUuMSAxLjQ1LjE3NSAyLjkyNS4xNzUgMS42MjUgMCAyLjc3NS4xIDIuOTUuMjc1LjE1LjE1LjI1LjY3NS4yIDEuMTVsLS4wNzUuODV6Ii8+PHBhdGggZD0ibTUyLjQgOTEuMWMtLjItLjUyNS0uMi02LjY3NSAwLTkuNTVsLjE3NS0yLjI3NS45NSAxLjIuOTc1IDEuMjI1djQuNzc1YzAgMi42MjUtLjA3NSA0Ljc3NS0uMTc1IDQuOC0uMTI1IDAtLjU1LjA1LTEgLjEtLjU1LjA3NS0uODI1IDAtLjkyNS0uMjc1eiIvPjxwYXRoIGQ9Im03NC41MjUgODcuMzc1Yy0yLjctMS4wNzUtOC41NS0zLjg3NS05LjItNC40MjUtLjQ3NS0uNC42NS0yLjM3NSAyLjItMy44MjUgMS43NS0xLjY1IDMuNjc1LTIuOTUgNC4xLTIuOC42LjI1IDIuODI1IDQuMTc1IDQuNSA3Ljk1IDEuNiAzLjcgMS44IDQuMjI1IDEuNDUgNC4yMjUtLjEyNSAwLTEuNDc1LS41MjUtMy4wNS0xLjEyNXoiLz48cGF0aCBkPSJtODAuODc1IDg3Ljg3NWMuNjc1LTEuOTUgMS4yNzUtNiAxLjUyNS0xMC4wNzUuMTc1LTIuNy4yLTIuODUuNzc1LTMuMDc1IDEuNDI1LS41MjUgMy4zLjAyNSA0LjUyNSAxLjM1bC41NzUuNi0uNjI1IDEuMWMtMy4wNSA1LjQ3NS03LjQgMTEuOTI1LTYuNzc1IDEwLjF6Ii8+PHBhdGggZD0ibTkxLjk1IDY2LjEyNWMtMi4wMjUtMS41LTQuMDc1LTMuMTUtNC41MjUtMy42LS40NzUtLjQ3NS0xLjItMS0xLjY1LTEuMTVsLS44LS4yNSAxLjM1LTEuMTc1IDEuMzUtMS4xNzUgMi4zNSAyLjNjMS4zIDEuMjc1IDMuMSAyLjk1IDQuMDI1IDMuNzUgMS43NSAxLjUgMi4yMjUgMi40NSAxLjc3NSAzLjU1LS4xNzUuNDUtLjU1LjI1LTMuODc1LTIuMjV6Ii8+PC9nPjxnIGZpbGw9IiM4M2IzYzciPjxwYXRoIGQ9Im02NSAxMjQuOWMtMy4yMjUtLjUtNS45MjUtMS4xNS02LjItMS40NzUtLjM1LS40MjUtMS42MjUtNC45MjUtMi43NzUtOS43LTEuNi02LjUtMy42LTE5LjI3NS0zLjEtMTkuNzI1LjI3NS0uMjc1IDYuNTI1LTEuMTc1IDEwLjU3NS0xLjUyNSA0LjgyNS0uNDI1IDE0LS4wNSAxNC42MjUuNTc1LjA3NS4wNS4zIDMuMDc1LjUgNi43MjUuMiAzLjYyNS40MjUgNy4wNS41IDcuNnMuMjUgMy42NzUuMzc1IDYuOTI1LjM3NSA2LjcyNS41MjUgNy43MjVjLjIyNSAxLjQyNS4yIDEuODI1LS4wNSAyLTEuNS45MjUtMTEuMDI1IDEuNDc1LTE0Ljk3NS44NzV6Ii8+PHBhdGggZD0ibTgxLjEyNSAxMTljLS4wNS0uMDc1LS4xNzUtMi4zLS4yNzUtNC45bC0uMTc1LTQuNzUgMS4zLS4zYzEuNS0uMzUgMS43NzUtLjI1IDEuNzc1LjU1IDAgLjMyNS4yMjUgMS42MjUuNSAyLjkyNXMuNTc1IDMuMS42NSA0LjAyNWMuMTc1IDEuNjc1LjE3NSAxLjY3NS0uNTUgMS45NzUtLjk3NS4zNzUtMy4xLjctMy4yMjUuNDc1eiIvPjxwYXRoIGQ9Im05Ny42MjUgMTA1LjAyNWMtLjk3NS0uMTc1LS45NzUtLjItLjM3NS0uNDUuMzUtLjE1IDEuMDI1LS4zMjUgMS41LS40MjUgMi43MjUtLjUyNSAzLjI3NS0uNzI1IDMtMS0uMi0uMTc1LTEuNjI1LS4yNS00LjYtLjJsLTQuMy4wNzUtLjQyNS0zLjk1Yy0uMjUtMi4xNzUtLjYtNC42MjUtLjgtNS40NWwtLjM1LTEuNS42NzUtLjU1Yy4zNzUtLjMyNSAxLjQ3NS0uODc1IDIuNDI1LTEuMjI1Ljk3NS0uMzc1IDIuNy0xLjA1IDMuODc1LTEuNTUgMi41NS0xLjA1IDMuNi0xLjEyNSA0LjcyNS0uMyAxLjEuNzc1IDEuODI1IDIuNDI1IDIuNzc1IDYuMjUuOCAzLjM1LjkyNSA1IC40NSA2LjU3NS0uNDI1IDEuNC0yLjA1IDMuMDUtMy4zMjUgMy4zNzUtMS40MjUuMzc1LTQuMDc1LjUyNS01LjI1LjMyNXptNC4xNzUtNi4zYy0xLjMyNS0uNTI1LTMuODUtLjc1LTUuMi0uNDc1LTIuMzI1LjUtMS41MjUuNzUgMi4yMjUuNzI1IDIuNDUgMCAzLjM3NS0uMDc1IDIuOTc1LS4yNXptLS40NzUtMy4yYy40NS0uMTc1LjM1LS4yNS0uNy0uNDI1LTIuNTI1LS40MjUtNS4zNzUtLjA1LTUuMzc1LjcyNSAwIC4yNzUgNS4yLjAyNSA2LjA3NS0uM3ptLTMuNC0yLjhjMS4zLS43IDIuMzI1LTEuMyAyLjI3NS0xLjM1LS4xNzUtLjE3NS0yLjUyNS40LTMuNjc1Ljg3NS0uNjc1LjMtMS41NS44NzUtMS45MjUgMS4zbC0uNzI1Ljc3NS44NS0uMTc1Yy40NS0uMDc1IDEuOS0uNzI1IDMuMi0xLjQyNXoiLz48cGF0aCBkPSJtODggMTA0YzAtLjI3NS0xLjQtOS45LTEuNjI1LTExLjA1LS4xLS43LS4xLS43IDEuMjc1LS43aDEuMzc1bC41IDEuMTI1Yy43NSAxLjY3NSAxLjIgNC4xMjUgMS40IDcuMjc1bC4xNSAyLjc3NS0xLjIuNDI1Yy0xLjQuNDUtMS44NzUuNS0xLjg3NS4xNXoiLz48cGF0aCBkPSJtNzYuODc1IDg4LjE3NWMtMy40NS0xLjEyNS0xMS42MjUtNC45NS0xMS42MjUtNS40NSAwLTEuMyAyLjItMy45IDQuNjUtNS41bDEuNjUtMS4wNS41NzUuNzI1YzEuMTI1IDEuMzUgNS45IDExLjIgNS41NzUgMTEuNDc1LS4wNS4wMjUtLjQtLjA1LS44MjUtLjJ6Ii8+PHBhdGggZD0ibTgxLjEgODcuNjI1Yy40NzUtMS4yNzUgMS4zNS03Ljg1IDEuNDI1LTExLjA3NWwuMDUtMS41NS45LS4yNWMxLjI3NS0uMzI1IDIuNjc1LjA1IDMuNjc1IDEuMDI1LjQ3NS40NS44NS45MjUuODUgMS4wNSAwIC4zMjUtMy4zNSA1Ljk1LTUuMiA4Ljc1LTEuNSAyLjI3NS0yLjA1IDIuOTI1LTEuNyAyLjA1eiIvPjxwYXRoIGQ9Im03OS4xNzUgODYuNTc1Yy0uMzI1LS42NS0xLjMtMi44LTIuMTUtNC43MjUtLjg1LTEuOTUtMi4wNS00LjMtMi42NzUtNS4yNS0xLTEuNTUtMS4xLTEuNzc1LS44LTIuMy4yLS40LjQ1LS41NS43NzUtLjQ1LjI3NS4wNzUgMS4wNS0uMSAxLjcyNS0uMzc1bDEuMjI1LS40NzUgMS41NzUuODc1Yy44NzUuNDc1IDEuNzUuODc1IDEuOTc1Ljg3NS41IDAgLjUtLjIyNS4xNzUgNC45LS4yMjUgMy41NzUtLjc3NSA3LjcyNS0xLjEgOC4wMjUtLjA3NS4wNzUtLjQtLjQyNS0uNzI1LTEuMXptLjYtNC45NzVjLjQyNS0uNTI1IDAtMS4yMjUtLjc3NS0xLjIyNXMtMS4yLjctLjc3NSAxLjIyNWMuMi4yMjUuNTI1LjQuNzc1LjRzLjU3NS0uMTc1Ljc3NS0uNHptLS45MjUtNC40Yy4zMjUtLjUyNS0uMDUtMS4yNzUtLjY1LTEuNC0uNC0uMDc1LTEuMi41NzUtMS4yLjk1cy44IDEuMDI1IDEuMi45NWMuMi0uMDUuNS0uMjc1LjY1LS41eiIvPjxwYXRoIGQ9Im01Ni4xMjUgNjcuMTVjLTEuNjI1LS41MjUtMy41NzUtMS42LTMuODc1LTIuMTUtLjQyNS0uNzc1LS4xLTEgLjg1LS42MjUuNDUuMiAxLjg1LjQyNSAzLjEyNS41MjUgMS4yNS4xIDIuMzI1LjI1IDIuNC4zNS4wNS4wNzUtLjAyNS42MjUtLjE3NSAxLjItLjMgMS4xNzUtLjU3NSAxLjI1LTIuMzI1Ljd6Ii8+PHBhdGggZD0ibTczIDY2LjMyNWMtLjg1LS4zLTIuNS0xLjE3NS0yLjUtMS4zMjUgMC0uMS41NzUtLjA1IDEuMjc1LjEgMS4wNzUuMjI1IDEuNzUuMTUgNC4zNzUtLjM3NSAxLjctLjM3NSAzLjEtLjYyNSAzLjEtLjU3NSAwIC4wMjUtLjY3NS41NzUtMS40NzUgMS4yLTEuNCAxLjA3NS0xLjU3NSAxLjE1LTIuOTUgMS4xMjUtLjggMC0xLjYyNS0uMDc1LTEuODI1LS4xNXoiLz48cGF0aCBkPSJtNTYuMzc1IDYzLjU3NWMtMS4yNzUtLjEyNS00LjIyNS0xLTUuNC0xLjU3NS0xLjI3NS0uNjUtMi40NS0yLjA3NS0zLjY1LTQuMzc1LTEuMTI1LTIuMi0yLjY3NS02LjYtMi45NS04LjQtLjE1LTEuMDc1LS4xMjUtMS4yLjg1LTIuMzI1IDEuMDc1LTEuMjI1IDEuMTc1LTEuNTI1Ljc3NS0yLjE1LS4yLS4zMjUtLjM3NS0uMy0xLjE3NS4xNzUtMi4zIDEuMzI1LTIuNDc1IDEuNC0zLjY3NSAxLjIyNS0xLjgyNS0uMjc1LTMuMDc1LTEuNDI1LTQuMzc1LTMuOTUtLjk3NS0xLjg3NS0xLjEyNS0yLjQyNS0xLjIyNS00LjEyNXMtLjAyNS0yLjE1LjQ1LTMuMWMxLjI1LTIuNSAyLjktMy40IDUuODUtMy4yNSAxLjA1LjA1IDIuNDI1IDEuNiAzLjAyNSAzLjQuMjUuODI1LjU1IDEuNi42NSAxLjcuMy4zNzUgMi43NS0uMTI1IDMuNDI1LS43bC42NS0uNTUtLjY3NS0yLjg1Yy0uODUtMy42MjUtLjg1LTQuODI1LjA3NS05LjMuODUtNC4xMjUuOS01LjIyNS40LTcuMTc1bC0uMzc1LTEuMzc1LjgtMS4zNWMyLjEtMy41IDEwLjA1LTkuMSAxNC40MjUtMTAuMTI1IDUuOTc1LTEuNDI1IDE2LjAyNSAxLjIyNSAyMC4zMjUgNS4zMjUgMS4xNzUgMS4xMjUgNC40MjUgNS4yIDQuNDI1IDUuNTc1IDAgLjAyNS0uNzI1LjA3NS0xLjYuMDc1LTEuMzc1IDAtMS43LjEtMi4yNzUuNjI1LS43MjUuNjc1LTEuMiAxLjY1LTEgMiAuMDc1LjEyNS41MjUuMDUgMS0uMTUgMS42NzUtLjcgMy44NS0uMiA1LjYgMS4zMjUgMi4xMjUgMS44MjUgMi43IDQuMDI1IDIuOTI1IDExLjMyNS4yNzUgOC43NzUtLjk1IDE1LjE1LTQuMDUgMjEuMzI1LS43MjUgMS40LTMuMjc1IDUuMzI1LTQuMyA2LjU1LTIuMDUgMi40NzUtNy45NzUgNS4xNzUtMTIuMTUgNS41MjUtMi4zNS4yLTQuMjUtLjItNy4wMjUtMS41LTMuODUtMS44MjUtNi40MjUtNC4xLTkuNy04LjYyNS0uODUtMS4xNS0xLjU3NS0xLjk3NS0xLjYyNS0xLjgtLjE1LjQyNSAxLjEyNSAzLjAyNSAyLjE3NSA0LjQgMS40NzUgMS45NSA1LjAyNSA1LjQ3NSA2LjM1IDYuMzI1bDEuMi43NS0yIC4wNzVjLTEuNjUuMDc1LTIuMS4yLTIuNTc1LjY3NS0uNjI1LjU1LTEuMS42LTMuNTc1LjM3NXptMjQuMDI1LTguNDVjMS4wNzUtLjMyNSAyLjM1LTEuMjI1IDIuMzUtMS42MjUgMC0uMS0xLjY1LS4xNzUtMy42NzUtLjE3NS01Ljg3NS4wMjUtOC41MjUtLjc3NS0xMC4yNzUtMy4wNzUtLjQ3NS0uNjI1LTEtMS4xNS0xLjE3NS0xLjItLjcyNS0uMTc1LS42LjUuMjI1IDEuNTI1LjUuNTc1IDEuMzc1IDEuNjUgMS45NSAyLjQgMS4yIDEuNSAyLjMyNSAyLjIgNC4xMjUgMi41MjUgMS41MjUuMjc1IDUgLjA3NSA2LjQ3NS0uMzc1em0uNTUtNS45MjUtLjA3NS0xLjMyNS0zLjUtLjE3NWMtMy43NzUtLjE3NS02LjIyNS0uNTI1LTcuNi0xLjEtLjQ3NS0uMi0uOS0uMzI1LS45MjUtLjI3NS0uMDUuMDUuMjUuNS42NzUgMSAxLjUgMS44IDUuMzc1IDMuMTI1IDkuNDI1IDMuMTVsMi4wNzUuMDI1em00LjkyNS4yYy42LS4zNSAxLjUtMS4wNzUgMi0xLjYyNSAxLjAyNS0xLjA3NSAyLjQyNS0zLjA3NSAyLjI1LTMuMjI1LS4wNS0uMDUtLjkyNS4zNS0xLjkyNS44NzUtMS45MjUgMS4wNS00LjYgMi4wNzUtNS40NSAyLjA3NS0uNDUgMC0uNS4xNzUtLjUgMS40djEuNDI1bDEuMjc1LS4xNWMuNy0uMSAxLjc1LS40NSAyLjM1LS43NzV6bS00LjYyNS00LjA3NWMxLjY3NS0uNDI1IDMuNTUtMS4yNzUgNS41MjUtMi40NzUgMS4zMjUtLjggMS41LTEgMS44NS0yLjE1LjU3NS0yIC41LTIuMjUtMS4wNzUtMy44NzUtMy40MjUtMy40NS03LjE1LTguNzc1LTcuNjUtMTAuODc1LS4wNzUtLjQtLjMyNS0uNy0uNTI1LS43LS45MjUgMCAuMDUgMy43MjUgMS42MjUgNi4zNS40NzUuNzc1IDEuNjc1IDIuNCAyLjYyNSAzLjU1IDMuMzc1IDQuMTI1IDMuNTI1IDQuNDI1IDIuODUgNS45MjUtLjU1IDEuMjI1LTcuMiAzLjY3NS05LjA1IDMuMzI1LTEuMDc1LS4yLTEuNDUtLjY1LTEuNjUtMS44NS0uMTc1LTEuMDc1LS41NS0xLjE3NS0uODc1LS4yNS0uMzI1LjkuMDUgMi40Ljc1IDMuMTI1LjYuNi43MjUuNjI1IDIuNDI1LjQ1IDEtLjEgMi40MjUtLjM1IDMuMTc1LS41NXptLTQwLjQtOC41NWMuMjc1LS4zLjYtLjUyNS43NzUtLjUyNS40MjUgMCAxLjIyNS45NSAxLjkgMi4yNWwuNiAxLjEyNS4wNzUtMS4xNzVjLjEtMS40LS41NS0yLjgyNS0xLjctMy44LTEuNTI1LTEuMjUtMy4yLTEuMTI1LTQuMTc1LjMyNS0uNzI1IDEuMDc1LS43MjUgMS40MjUtLjAyNS45MjUuMy0uMjI1Ljc3NS0uNCAxLjAyNS0uNC40IDAgLjQyNS4xMjUuMjUuODI1LS4zIDEuMTc1LS4yIDMuNy4yIDQuNTUuMy43MjUuMzI1LjY1LjQ3NS0xLjQyNS4xLTEuNjI1LjI1LTIuMy42LTIuNjc1em0zMS4zLTQuNTI1YzEuMTc1LTEuMTc1IDEuMTI1LTEuODc1LS4yNzUtMy40NS0uNjI1LS43LTEuNTUtMi4xNS0yLjA3NS0zLjIyNS0uOC0xLjcyNS0uOTI1LTEuODc1LTEtMS4yMjUtLjEuNzUuNzc1IDMuNSAxLjMyNSA0LjE1LjE3NS4yLjUuNzI1LjcgMS4xNS40LjguNC44LS4zMjUgMS4xLS41MjUuMjI1LTEuMy4yNS0yLjY3NS4xLTEuMDc1LS4xLTIuMDUtLjItMi4yLS4yMjUtLjQ1IDAtLjQyNSAxLjE1LjAyNSAxLjY1LjY1LjcyNSAxLjc1Ljk3NSAzLjguODc1IDEuNjc1LS4wNzUgMS45LS4xNSAyLjctLjl6bTE5LjAyNS0xLjEyNWMuNi0uMzc1IDEuMTc1LS44MjUgMS4yNS0xIC4xLS4zMjUtMi44NS02LjYyNS0zLjEyNS02LjYyNS0uMzI1IDAgLjIyNSAyLjguODI1IDQuMS43NzUgMS43NS43MjUgMS44LTEuNjI1IDIuMDI1LS45LjEtMS43NzUuMi0xLjkyNS4yNS0uNTUuMTc1LS4zNSAxLjA3NS4zNzUgMS42MjUuNTUuNDUuODc1LjUyNSAxLjkuNC42NS0uMDc1IDEuNy0uNDI1IDIuMzI1LS43NzV6bS0zMi40NS05LjQ3NWMuOS0xLjUyNSAyLjQyNS0zLjAyNSAzLjY3NS0zLjU1LjQ1LS4yIDEuNTUtLjM1IDIuNDUtLjM1czEuNy0uMTI1IDEuNzc1LS4yNWMuNS0uODI1LTEuMTc1LTIuMjUtMi42NzUtMi4yNS0xLjE1IDAtMy4yIDEuMDUtNC40NzUgMi4zMjUtMS4wNSAxLjA1LTIuMjI1IDMuMTUtMi4yMjUgNCAwIC40NS40MjUgMS40MjUuNjI1IDEuNDI1LjA1IDAgLjQyNS0uNi44NS0xLjM1eiIvPjxwYXRoIGQ9Im0zNy4zNSAyOC42Yy0uMi0xLjcgMC01LjM3NS40LTYuNjUuODI1LTIuOCA0LjYyNS01LjQ3NSA4LjY1LTYuMS45MjUtLjEyNSAxLjA1LS4xIDEuMTc1LjQyNS4yNS45LjIyNS45NzUtLjQuOTc1LS45NzUgMC0zLjcyNSAxLTQuOTc1IDEuOC0zIDEuOS00Ljc3NSA1LjgtNC4zIDkuNDI1LjEuNzUuMDUgMS4yNzUtLjEgMS4zNzUtLjE3NS4xLS4zMjUtLjM3NS0uNDUtMS4yNXoiLz48cGF0aCBkPSJtNDEuNSAxNC43NWMwLS4xLjUyNS0uODc1IDEuMTUtMS43MjUgMS4zNS0xLjggNC4xNS0zLjk3NSA3LjA1LTUuNDc1IDIuMjc1LTEuMTc1IDUuNDc1LTIuMzc1IDUuODI1LTIuMTUuNDUuMjUuMi43NzUtLjUgMS4xMjUtNS4zMjUgMi42LTcuMTUgMy44LTkuNSA2LjI1LTEuMSAxLjEyNS0xLjcgMS41MjUtMi43IDEuODI1LS43MjUuMi0xLjMyNS4yNzUtMS4zMjUuMTV6Ii8+PC9nPjxnIGZpbGw9IiNmMWQ4YjkiPjxwYXRoIGQ9Im03MyA2Ni4yNzVjLS44NzUtLjI3NS0yLjItLjk3NS0yLjM3NS0xLjI3NS0uMS0uMTc1LjA3NS0uMTc1LjUgMCAxLjAyNS4zNzUgMi41LjMgNS40NS0uMzUgMS40NzUtLjMyNSAyLjY3NS0uNTUgMi42NzUtLjUyNXMtLjY3NS41NzUtMS40NzUgMS4yMjVjLTEuMzUgMS4wNS0xLjYgMS4xNS0yLjgyNSAxLjEyNS0uNzI1IDAtMS42LS4xLTEuOTUtLjJ6Ii8+PHBhdGggZD0ibTU2LjA3NSA2My40NzVjLTIuMDI1LS4yNS00LjYyNS0xLjE1LTUuOC0xLjk3NS0xLjM1LS45NzUtMi42NzUtMy4wNS0zLjk3NS02LjE1LS45NzUtMi4zNzUtMi4wNS01Ljk3NS0yLjA1LTYuODc1IDAtLjI1LjQ1LS45NzUgMS4wMjUtMS42MjUgMS4wNS0xLjIgMS4yMjUtMi4xNS40MjUtMi4zLS4yMjUtLjA1LTEuMDUuMzI1LTEuOC44NS0xLjIuOC0xLjUyNS45LTIuNDI1Ljc3NS0xLjctLjIyNS0zLjIyNS0xLjM1LTQuMy0zLjE3NS0yLjUyNS00LjM1LTIuMTc1LTguMzc1LjkyNS0xMC40MjUgMS4wNS0uNzI1IDEuNDI1LS44MjUgMi43NzUtLjgyNSAxLjIyNSAwIDEuNy4xMjUgMi4yNS41NS43LjU1IDIuMTI1IDMuMjI1IDIuMTI1IDQuMDI1IDAgLjI1LjE3NS41LjM3NS41NzUuNy4yNzUgMi42MjUtLjE3NSAzLjMtLjc1bC42NS0uNTc1LS42NS0yLjljLS44NS0zLjY3NS0uODUtNC43MjUuMDc1LTkuMTUuODUtNC4wMjUuOTI1LTUuNjI1LjM3NS03LjQyNS0uMzUtMS4xNzUtLjMyNS0xLjI1LjI1LTIuMjUgMS41MjUtMi42IDUuMTI1LTUuNyA5LjYyNS04LjI1IDMuMzUtMS44NzUgNC44NzUtMi4zNzUgOC0yLjUyNSA0LjQtLjIyNSA4LjcyNS43NzUgMTMuNjUgMy4xNzUgMi4xNzUgMS4wNSAyLjc3NSAxLjQ3NSA0LjI1IDMuMDc1Ljk1IDEuMDI1IDIuMiAyLjU1IDIuOCAzLjRsMS4wNzUgMS41MjVoLTEuNDI1Yy0xLjYgMC0yLjU3NS40NzUtMy4yIDEuNS0uNTUuOTUtLjUyNSAxLjYuMDUgMS4zNzUgMi0uODUgMy41NzUtLjY3NSA1LjYuNiAyLjQ1IDEuNTUgMy4wNzUgMy4zNzUgMy41IDEwIC41MjUgOC41LS42MjUgMTUuODI1LTMuNDI1IDIxLjk1LTEuMTI1IDIuNDUtNC4xIDYuOTc1LTUuNDI1IDguMjI1LTEuOSAxLjgyNS01LjM3NSAzLjYtOC43IDQuNDc1LTIuMjUuNi01Ljc1LjYtNy41LjAyNS00LjMyNS0xLjQ1LTcuODc1LTQuMTc1LTExLjM1LTguNzI1LTEuMjI1LTEuNi0yLjI3NS0yLjg3NS0yLjM1LTIuODI1LS4yMjUuMjI1Ljc1IDIuNTc1IDEuNTI1IDMuNyAxLjQgMi4wMjUgNS4xIDUuODUgNi43MjUgNi45NWwxLjU1IDEuMDI1LTEuMzI1LS4xYy0xLjYtLjE1LTIuNjUuMTI1LTMuNC44MjUtLjU3NS41NS0uOTc1LjU1LTMuOC4yMjV6bTIzLjY1LTguMTVjMS41MjUtLjMyNSAzLjAyNS0xLjI1IDMuMDI1LTEuODc1IDAtLjEtMS42NS0uMi0zLjY3NS0uMi00LjI1LjAyNS01LjQ1LS4xMjUtNy4yNzUtLjgtMS41MjUtLjU3NS0yLjU1LTEuMzc1LTMuMy0yLjU3NS0uMzI1LS41LS43NS0uODc1LTEuMDI1LS44NzUtLjg3NSAwLS43MjUuMjI1IDIuNTUgNC4zMjUuNDI1LjUyNSAxLjAyNSAxLjEyNSAxLjM3NSAxLjMyNSAxLjYgMS4wNzUgNS4xMjUgMS4zNSA4LjMyNS42NzV6bTEuMjc1LTZjMC0uODUtLjEyNS0xLjM3NS0uMy0xLjQ1LS4xNzUtLjA1LTEuNzc1LS4xNS0zLjU3NS0uMjUtNC4xLS4xNzUtNi4xNS0uNTI1LTcuOTc1LTEuMjUtLjQtLjE3NS0uNDI1LS4xMjUtLjE3NS4zIDEuMTc1IDIuMjUgNS44NSAzLjkyNSAxMC45NzUgMy45NzVoMS4wNXptNC40LjNjLjcyNS0uMyAxLjc1LTEuMDI1IDIuMzI1LTEuNi45NS0uOTUgMi42LTMuMyAyLjQyNS0zLjQ3NS0uMDUtLjAyNS0xLjIyNS41LTIuNjI1IDEuMTc1cy0zLjE1IDEuMzc1LTMuOSAxLjUyNWwtMS4zNzUuMjc1djEuNTI1IDEuNWwuOTUtLjE3NWMuNS0uMDc1IDEuNS0uNDI1IDIuMi0uNzV6bS0zLjg1LTQuMjc1YzEuNDc1LS40NSAzLjEyNS0xLjIyNSA1LjI1LTIuNSAxLjItLjcyNSAxLjQ3NS0xLjA1IDEuOC0yLjAyNS42MjUtMS44LjUyNS0yLjctLjM1LTMuMzc1LTIuMjc1LTEuNzc1LTcuMzUtOC42MjUtOC4xMjUtMTAuOTUtLjI1LS43NzUtLjU1LTEuMjUtLjgtMS4yNS0uMzI1IDAtLjM3NS4yMjUtLjIyNSAxLjQ1LjI1IDIuMSAyIDUuNDUgNC4yNzUgOC4xNzUgMi45NSAzLjUyNSAzLjM3NSA0LjE1IDMuMzc1IDQuOSAwIDEuNDI1LS40IDEuOC0zLjIyNSAzLjA1LTIuOSAxLjI3NS00LjM1IDEuNjI1LTUuODc1IDEuNS0xLjI1LS4xLTEuNjI1LS40MjUtMS44LTEuNjI1LS4yLTEuMTUtLjQ3NS0xLjQtLjgyNS0uNzI1LS41NSAxLjAyNS0uMjc1IDIuNS43IDMuNjI1LjM1LjQuNjUuNDI1IDIuNDUuMyAxLjEyNS0uMSAyLjY1LS4zNSAzLjM3NS0uNTV6bS00MC42LTguNjVjLjUtLjUuNTUtLjUgMS4xNS0uMS4zNS4yMjUuOTUgMSAxLjMyNSAxLjcyNWwuNyAxLjMuMDc1LTEuMTc1Yy4yLTMtMy4wNzUtNS43NS01LjE1LTQuMy0uNi40LTEuNDI1IDEuOC0xLjIgMi4wMjUuMDc1LjA3NS4zLS4wNS41MjUtLjI3NXMuNjI1LS40LjkyNS0uNGMuNDI1IDAgLjQ3NS4xLjI3NS44MjUtLjMgMS4yMjUtLjIgMy45NzUuMiA0LjY3NS4zMjUuNTc1LjM1LjQ3NS41LTEuNTc1LjEyNS0xLjc3NS4yNS0yLjMyNS42NzUtMi43MjV6bTMwLjQ1LTMuODVjMS45NS0uOTI1IDIuMS0yLjMyNS40NzUtNC4wNzUtLjYtLjY1LTEuNTI1LTIuMDc1LTIuMDUtMy4xNzUtLjgyNS0xLjc1LS45NS0xLjktMS4wMjUtMS4yNS0uMTI1LjkyNS41NSAzIDEuNDc1IDQuNDI1LjQuNjI1LjcyNSAxLjI3NS43MjUgMS40MjUgMCAuOC0yLjE1Ljk3NS00LjguNC0uOC0uMTc1LTEuMS4yNzUtLjg1IDEuMjUuMyAxLjI1IDQuMTc1IDEuODc1IDYuMDUgMXptMTkuNjUtMS42NWMxLjctLjk1IDEuNy0xLS4wNS00LjUyNS0uODUtMS43NS0xLjYtMy4xNzUtMS42NzUtMy4xNzUtLjM1IDAgLjIgMi44MjUuOCA0LjEyNS43MjUgMS42LjYyNSAxLjg1LS43NSAxLjktLjk3NS4wMjUtMi40MjUuMi0yLjguMzUtLjU1LjItLjM1IDEuMDc1LjM3NSAxLjYyNS41NS40NS44NzUuNTI1IDEuODc1LjQuNjc1LS4wNzUgMS42NzUtLjQgMi4yMjUtLjd6bS0zMi40NS05LjI3NWMuMjc1LS41NzUgMS4wNzUtMS42MjUgMS43NS0yLjMyNSAxLjQ3NS0xLjQ1IDIuOTI1LTEuOTc1IDQuOS0xLjggMS4wNS4xIDEuMjc1LjA1IDEuMzc1LS4zMjUuMzUtMS4wNS0xLjEtMi4yMjUtMi42NzUtMi4yMjUtMi4wNSAwLTUgMi4yMjUtNi4xIDQuNTc1LS42NSAxLjQyNS0uNzI1IDEuOTc1LS4zNSAyLjcuMzc1LjcuNTc1LjYgMS4xLS42eiIvPjwvZz48ZyBmaWxsPSIjZjZmNWY1Ij48cGF0aCBkPSJtNjYuNzUgMTI1LjFjLS4zNS0uMDUtMS40NzUtLjIyNS0yLjUtLjM3NS0yLjMtLjMyNS01LjA1LS45NzUtNS4zNS0xLjI1LS41MjUtLjQ3NS0yLjc1LTguNjUtMy44NzUtMTQuMjc1LS44MjUtNC4wMjUtMS45NzUtMTEuOC0yLjA3NS0xMy45NWwtLjA3NS0xLjM1IDEuMTI1LS4yYzYuNTI1LTEuMTc1IDE2LjA3NS0xLjc1IDIwLjg3NS0xLjIyNSAxLjUyNS4xNzUgMi45LjQ1IDMuMDUuNi4zLjMuNzUgNi4yMjUgMS4zMjUgMTcuOTI1LjI3NSA1LjYuNyAxMS4yNS45IDEyLjI3NS4xNS42MjUuMDc1LjY3NS0xLjQ3NSAxLjA1LTMgLjc1LTkuMjUgMS4xNS0xMS45MjUuNzc1eiIvPjxwYXRoIGQ9Im04MC45MjUgMTE1Ljg1Yy0uMS0xLjc3NS0uMTc1LTMuOTUtLjE3NS00Ljg3NXYtMS42MjVsMS4zMjUtLjI3NWMuNy0uMTUgMS4zNS0uMjI1IDEuNC0uMi4xNzUuMTc1IDEuNSA3LjU1IDEuNTI1IDguNDUgMCAxLjA3NS0uNDc1IDEuMzc1LTIuNjUgMS42bC0xLjI3NS4xMjV6Ii8+PHBhdGggZD0ibTk3Ljk1IDEwNS4wNzVjLS41MjUtLjA1LS45NS0uMi0uOTUtLjM1IDAtLjEyNS4wNS0uMjI1LjEtLjIyNS4xMjUgMCAzLjUtLjY3NSA0LjM3NS0uOS40NzUtLjEuNTI1LS4yLjMtLjQyNXMtMS41MjUtLjI3NS00LjYtLjIyNWwtNC4zMjUuMDUtLjQyNS00LjA1Yy0uMjUtMi4yNS0uNi00LjctLjgtNS40NWwtLjM3NS0xLjM3NS42NzUtLjU1Yy4zNzUtLjMyNSAyLTEuMDI1IDMuNTc1LTEuNnMzLjQyNS0xLjMyNSA0LjA3NS0xLjY1YzEuODUtLjkyNSAzLjctLjI1IDQuNjc1IDEuNjc1LjcgMS4zNSAyLjI1IDcuNTUgMi4yNSA4Ljk1IDAgMi44LTEuNTI1IDUuMjI1LTMuNjI1IDUuNzUtMS4yNS4zMjUtMy43MjUuNS00LjkyNS4zNzV6bTQuNS02LjJjLS4wNzUtLjA3NS0xLjAyNS0uMy0yLjEtLjUyNS0yLjM3NS0uNDUtNS4xLS4yMjUtNS4xLjQyNSAwIC4xMjUgMS42NS4yMjUgMy42NzUuMjI1IDIgMCAzLjYtLjA1IDMuNTI1LS4xMjV6bS0uOTUtMy4zNzVjLjQyNS0uMjUtMS41MjUtLjYtMy4zNzUtLjYyNS0xLjMgMC0yLjg3NS41LTIuODc1Ljk1IDAgLjI3NSA1LjY1IDAgNi4yNS0uMzI1em0tNC45NzUtMmMuNzUtLjQyNSAxLjk1LTEuMDUgMi42NzUtMS40czEuMjc1LS43IDEuMjI1LS43NWMtLjA1LS4wNzUtLjkyNS4wNS0xLjk1LjI1LTEuNzc1LjM3NS00LjQ3NSAxLjgyNS00LjQ3NSAyLjQgMCAuNDc1IDEuMi4yNSAyLjUyNS0uNXoiLz48cGF0aCBkPSJtODcuODc1IDEwMi44MjVjLS4wNzUtLjgtLjQyNS0zLjItLjc3NS01LjMyNS0uMzI1LTIuMTI1LS42LTQuMTc1LS42LTQuNTUgMC0uNjc1LjA1LS43IDEuMjc1LS43IDEuMjUgMCAxLjI1IDAgMS43NSAxLjEyNS43MjUgMS42NSAxLjIgNC4xIDEuMzc1IDcuMjc1bC4xNzUgMi43NS0xLjMyNS40MjVjLS43MjUuMjI1LTEuNC40MjUtMS41LjQyNXMtLjI3NS0uNjUtLjM3NS0xLjQyNXoiLz48cGF0aCBkPSJtNzguOTUgODZjLS41LTEuMDI1LTEuNDc1LTMuMi0yLjItNC44LS43LTEuNi0xLjgtMy42NzUtMi40LTQuNnMtMS4xLTEuNzI1LTEuMS0xLjhjMC0uMzUuODI1LTEgMS4xMjUtLjkuMTc1LjA3NS43MjUtLjA1IDEuMjUtLjI1IDEuMzUtLjU3NSAyLjEtLjUgMy4zNzUuMzUuNjI1LjQgMS4zNzUuNzUgMS43Ljc1LjU1IDAgLjU1LjAyNS40MjUgMi44MjUtLjIgMy45MjUtLjYyNSA3LjY3NS0xIDkuMWwtLjMyNSAxLjJ6bS44MjUtNC40Yy40MjUtLjUyNSAwLTEuMjI1LS43NzUtMS4yMjVzLTEuMi43LS43NzUgMS4yMjVjLjIuMjI1LjUyNS40Ljc3NS40cy41NzUtLjE3NS43NzUtLjR6bS0uOTI1LTQuNGMuMzI1LS41MjUtLjA1LTEuMjc1LS42NS0xLjQtLjQtLjA3NS0xLjIuNTc1LTEuMi45NXMuOCAxLjAyNSAxLjIuOTVjLjItLjA1LjUtLjI3NS42NS0uNXoiLz48cGF0aCBkPSJtNTUuOCA2N2MtMi41MjUtLjktNC4xLTIuMDc1LTMuNjc1LTIuNzUuMDc1LS4xMjUuNS0uMDc1Ljk1LjEyNS40MjUuMTc1IDEuODUuNDI1IDMuMTI1LjU3NSAxLjI3NS4xMjUgMi4zNzUuMjc1IDIuNDI1LjM1LjA1LjA1LS4wMjUuNTc1LS4xNzUgMS4xNS0uMyAxLjIyNS0uNiAxLjMtMi42NS41NXoiLz48cGF0aCBkPSJtNTAuODI1IDYxLjc1Yy0xLjE1LS42NzUtMS4wMjUtLjg1LjEyNS0uMiAxLjE1LjY3NSAxLjIuNy45LjctLjEyNSAwLS42LS4yMjUtMS4wMjUtLjV6Ii8+PHBhdGggZD0ibTQ3LjM1IDU3LjQ3NWMtLjM1LS43LS42LTEuMzI1LS41NS0xLjM3NXMuNC41MjUuNzc1IDEuMjc1LjYyNSAxLjM3NS41NSAxLjM3NS0uNC0uNTc1LS43NzUtMS4yNzV6Ii8+PHBhdGggZD0ibTQ0LjUgNDcuOTc1YzAtLjIuMzI1LS41NzUuNy0uODI1bC42NzUtLjQ3NS0uNjI1LjcyNWMtLjM1LjQtLjY1Ljc3NS0uNjc1LjgyNS0uMDUuMDUtLjA3NS0uMDUtLjA3NS0uMjV6Ii8+PHBhdGggZD0ibTM1LjU3NSAzNy42MjVjMC0uNTUuMDUtLjc1LjEtLjQyNS4wNS4zLjA1Ljc1IDAgMS0uMDc1LjIyNS0uMTI1LS4wMjUtLjEtLjU3NXoiLz48cGF0aCBkPSJtMzcuMjUgMzMuMzc1Yy40NzUtLjQ3NS45LS44NzUuOTc1LS44NzVzLS4yNS40LS43MjUuODc1LS45Ljg3NS0uOTc1Ljg3NS4yNS0uNC43MjUtLjg3NXoiLz48cGF0aCBkPSJtNDMuNTc1IDMzLjE3NWMtLjEtLjE3NS0uNDc1LS41MjUtLjgyNS0uNzUtLjMyNS0uMjI1LS41MjUtLjQyNS0uNDI1LS40MjUuMzUgMCAxLjM3NS43NzUgMS41MjUgMS4xNS4xNzUuNDUgMCAuNDUtLjI3NS4wMjV6Ii8+PHBhdGggZD0ibTQwLjQ1IDMxLjgyNWMuMy0uMDUuNzUtLjA1IDEgMCAuMjI1LjA3NS0uMDI1LjEyNS0uNTc1LjEtLjU1IDAtLjc1LS4wNS0uNDI1LS4xeiIvPjxwYXRoIGQ9Im0zNy4zNzUgMjguMzVjLS4yNS0yLjIgMC01LjE1LjUyNS02LjcyNS44MjUtMi4zNzUgNC4wMjUtNC43MjUgNy41NzUtNS41MjUgMS0uMjI1IDEuODUtLjM1IDEuOS0uMy4wNzUuMDUuMTUuMzUuMTc1LjY3NS4wNzUuNS0uMS42MjUtMS43NSAxLjA1LTIuNDUuNjI1LTQuMSAxLjU1LTUuNTUgMy4xNS0xLjcgMS44NzUtMi4zMjUgMy41NzUtMi4zNzUgNi42MjUtLjAyNSAxLjM1LS4xIDIuNS0uMTc1IDIuNi0uMS4wNzUtLjIyNS0uNjI1LS4zMjUtMS41NXoiLz48cGF0aCBkPSJtNTguMTc1IDE4LjYyNWMuMy0uNC45LTEuMDc1IDEuMzUtMS41LjYyNS0uNTUuNTUtLjQyNS0uMjUuNS0xLjQ3NSAxLjY3NS0xLjcgMS44NzUtMS4xIDF6Ii8+PHBhdGggZD0ibTQxLjUgMTQuODc1YzAtLjM3NSAxLjIyNS0xLjk3NSAyLjQyNS0zLjIgMi4zMjUtMi4zNSA1LjY3NS00LjQgOS41NS01Ljc3NSAxLjI3NS0uNDc1IDEuOTI1LS42IDIuMTI1LS40LjQyNS40MjUtLjEuOC0zLjI1IDIuMzI1LTIuNiAxLjI1LTQuNzUgMi43NzUtNi42IDQuNjc1LS45LjkyNS0xLjg1IDEuNzUtMi4xMjUgMS44MjVzLS44NzUuMjUtMS4zLjM3NWMtLjQ1LjE1LS44MjUuMjI1LS44MjUuMTc1eiIvPjxwYXRoIGQ9Im04OC4yNSAxMy43NWMtLjE1LS4yNzUtLjE3NS0uNS0uMDc1LS41LjEyNSAwIC4zNS4yMjUuNTI1LjVzLjIuNS4wNS41Yy0uMTI1IDAtLjM1LS4yMjUtLjUtLjV6Ii8+PHBhdGggZD0ibTUyLjEyNSAxMWMuOTUtLjk1IDEuOC0xLjc1IDEuODUtMS43NS4wNzUgMC0uNjUuOC0xLjYgMS43NS0uOTUuOTc1LTEuOCAxLjc1LTEuODUgMS43NS0uMDc1IDAgLjY1LS43NzUgMS42LTEuNzV6Ii8+PHBhdGggZD0ibTU0LjM1IDkuMDVjLjItLjMyNSAxLjY1LTEuNCAxLjY1LTEuMjI1IDAgLjA3NS0uNDI1LjQyNS0uOTI1LjgyNS0uNS4zNzUtLjgyNS41NzUtLjcyNS40eiIvPjxwYXRoIGQ9Im03OS41IDUuODc1Yy0uMzUtLjItLjUtLjM1LS4zNzUtLjM1LjE1IDAgLjUyNS4xNS44NzUuMzVzLjUyNS4zNS4zNzUuMzVjLS4xMjUgMC0uNTI1LS4xNS0uODc1LS4zNXoiLz48cGF0aCBkPSJtNjAgNS4zNzVjMC0uMTc1IDIuMDI1LTEuMTc1IDIuMTUtMS4wNzUuMDUuMDc1LS40MjUuMzUtMS4wMjUuNjUtLjYyNS4zLTEuMTI1LjUtMS4xMjUuNDI1eiIvPjxwYXRoIGQ9Im02Ny43IDMuMDc1Yy4zLS4wNS44LS4wNSAxLjEyNSAwIC4zLjA1LjA1LjEtLjU3NS4xcy0uODc1LS4wNS0uNTUtLjF6Ii8+PC9nPjwvc3ZnPg==;" parent="1" vertex="1">
          <mxGeometry x="633" y="700" width="65.39" height="90" as="geometry" />
        </mxCell>
        <mxCell id="mC8NbQeeErdKrk85uzCq-3" value="Non-Prod jenkins deployer Job" style="shape=image;verticalLabelPosition=bottom;labelBackgroundColor=default;verticalAlign=top;aspect=fixed;imageAspect=0;image=data:image/svg+xml,PHN2ZyB4bWxucz0iaHR0cDovL3d3dy53My5vcmcvMjAwMC9zdmciIHdpZHRoPSI5Mi43NSIgdmlld0JveD0iMTcuNSAwLjAwOTI4NDM0NzI5NTc2MTEwOCA5Mi43NSAxMjcuOTQ5NzkwOTU0NTg5ODQiIHByZXNlcnZlQXNwZWN0UmF0aW89InhNaWRZTWlkIG1lZXQiIGhlaWdodD0iMTI3Ljk0OTc5MDk1NDU4OTg0Ij48cGF0aCBmaWxsPSIjMjAxZDFlIiBkPSJtNjMuNjI1IDEyNy44MjVjLTEuNDc1LS4xNzUtMy43NzUtLjYtNS4wMjUtLjk1bC0xLjMtLjM3NS0uNy0xLjkyNWMtLjQtMS4wNzUtMS4zNS00LjAyNS0yLjEtNi41NzVsLTEuNC00LjYyNS0xLjk3NS0uMTVjLTMuMDI1LS4yMjUtNC43NS0uNzc1LTkuNzI1LTMuMDc1LTIuNDc1LTEuMTUtNC44NzUtMi4yMjUtNS4zMjUtMi4zNzUtLjQyNS0uMTc1LTEuMDI1LS42LTEuMzUtLjkyNS0uNTI1LS41NzUtLjYtLjkyNS0uOC00LjcyNWwtLjItNC4xMjUtMS40LTEuM2MtNy43LTcuMjUtMTIuODc1LTE3LjI3NS0xNC40NS0yNy45NzUtLjUtMy40NzUtLjUtMTAuMjI1IDAtMTMuNyAxLjU1LTEwLjYgNi43MjUtMjAuNjc1IDE0LjIyNS0yNy43bDIuMS0xLjk3NS4zLTIuMDc1Yy40NzUtMy41NSAxLjc1LTYuMTI1IDMuNjI1LTcuMzI1LjU1LS4zNzUgMS0uOTc1IDEuMjc1LTEuNyAxLjMyNS0zLjQ1IDMuNDc1LTUuMzI1IDEwLjYtOS4yNSA0LjY1LTIuNTc1IDkuMDc1LTQuMTI1IDEzLjM3NS00Ljc1IDIuMzI1LS4zMjUgNy4yMjUtLjMyNSA5LjQ1LjAyNSA2LjM3NS45NSA5Ljk1IDIuNzUgMTQuNTI1IDcuMyAzLjEgMy4xIDQuODc1IDUuNTUgNS45MjUgOC4yNzUuODc1IDIuMjUgMS44MjUgNi41NSAyLjEgOS4zNzVsLjE3NSAxLjg1IDIuMzc1IDIuNjVjOC4wMjUgOC45NSAxMi4zMjUgMjAuMiAxMi4zMjUgMzIuMTUgMCA3LjYtMS43IDE0Ljg3NS01LjAyNSAyMS40MjVsLTEuMjc1IDIuNTI1Ljc3NS42YzEuMTUuOSAxLjkgMi4zNzUgMy4xNSA2LjE3NS45MjUgMi43NzUgMS4xMjUgMy43NSAxLjEyNSA1LjIyNSAwIDMuMDUtMS4xIDYuMjUtMi43IDcuNzUtMS4zMjUgMS4yNS00LjgyNSAxLjc1LTkgMS4yNzUtMS4zNzUtLjE1LTEuNjUtLjI3NS0yLjEyNS0uOTI1bC0uNTUtLjcyNS0yLjEyNS4xMjVjLTIuNi4xNzUtNCAuNi00IDEuMiAwIC44MjUtLjMyNSAxLjI1LTEuMjc1IDEuNzUtLjkyNS40NS0uOTc1LjU1LS45NzUgMS42IDAgLjYyNS4yNzUgMi40MjUuNjI1IDQuMDI1IDEuMjI1IDUuNjc1LjcyNSA2LjcyNS0zLjcyNSA3LjcyNS0uNy4xNS0uNy4xNS0uNTUgMS42MjUuMzI1IDIuODUtMS4xNzUgNC01LjgyNSA0LjQ3NS0yLjM1LjI1LTExLjM3NS4zMjUtMTMuMTUuMXoiLz48ZyBmaWxsPSIjMzM1MDYxIj48cGF0aCBkPSJtNTEuMzc1IDExMC4yMjVjLTIuNTc1LS4zNS02LjEtMS42NzUtMTAuNDc1LTMuOTI1LTMuMTc1LTEuNjI1LTQuMjUtMi4zLTQuMy0yLjY3NS0uMDI1LS4yNzUtLjEyNS0xLjk1LS4yLTMuNzUtLjQyNS04Ljk1LTIuNC0xOC43LTUuMy0yNi0uNjI1LTEuNi0xLjEtMi45NS0xLjA1LTMgLjAyNS0uMDI1IDEuNDc1LTEuMSAzLjItMi4zNzUgMy41MjUtMi42IDguMDc1LTUuMzc1IDEwLjc3NS02LjU1bDEuOC0uOCAyLjE1IDIuMjc1YzIuMyAyLjQ3NSAzLjUyNSAzLjMgNy43NzUgNS4zNWwyLjY3NSAxLjI3NS40NSAxLjkyNWMuMjUgMS4wNS44MjUgMy4xIDEuMjc1IDQuNTc1LjY3NSAyLjEgMS4wMjUgMi44IDEuNjI1IDMuMy44MjUuNyAxLjMyNS44IDIuMzI1LjQuODUtLjMyNS44MjUtLjEtLjIyNSAxLjM1LTEuMDI1IDEuNDI1LTEuMSAyLjM1LS4zIDMuMDc1LjU1LjUyNSA3LjEgMy44NSA5LjA1IDQuNmwxIC40LTIuMzc1LjE1Yy0xLjMuMS00LjE1LjI3NS02LjM1LjQyNS0zLjUyNS4yNS03Ljg3NS42NzUtMTEuMiAxLjE1LTEuMTI1LjE1LTEuMTc1LjE1LTEuMzc1LS41NS0uMjI1LS44MjUtLjI1LTQuODc1LS4wNzUtOC45LjEyNS0yLjctLjA1LTMuNC0uNzI1LTIuOTc1LS41NzUuMzUtLjcyNSAyLjE1LS40NSA1LjQ3NS4yNzUgMy40NS4wNzUgNi0uNDUgNi4yLS4xNzUuMDc1LS45MjUtLjI3NS0xLjY3NS0uNzUtLjcyNS0uNS0xLjQtLjktMS41LS45LS4zNzUgMC0uMi45NS4zIDEuNTc1LjI3NS4zNS41LjguNSAxLjAyNSAwIC40MjUtLjc1LjktMS40NS45LS41MjUgMC0xLjQ3NS45LTEuMiAxLjE3NS4wNzUuMSAxLjMuMTUgMi43MjUuMTI1IDEuNC0uMDI1IDIuNjc1LjAyNSAyLjg1LjE1LjE3NS4xLjQyNSAxLjM3NS41NzUgMi45NS4xNSAxLjUyNS42IDUuMTI1IDEgOCAuNjc1IDQuOTUuNyA1LjY1LjMgNS41NzUtLjEtLjAyNS0uODUtLjEyNS0xLjY3NS0uMjV6Ii8+PHBhdGggZD0ibTgwLjQgMTA1LjkyNWMtLjMyNS0yLjQ1LS43LTEyLjcyNS0uNDUtMTIuOTc1LjEyNS0uMTI1IDEtLjI1IDEuOTUtLjI3NWwxLjctLjA1LjMgMS4zNWMuMTc1Ljc1LjUgMy41NS43MjUgNi4yNXMuNDI1IDUuMTI1LjQ1IDUuNGMuMDUuNS0uNDc1LjY3NS0zLjYgMS4yLS45MjUuMTI1LS45MjUuMTI1LTEuMDc1LS45eiIvPjxwYXRoIGQ9Im04Mi4xNzUgODguODI1Yy4zNzUtLjY3NSAxLjQtMi4zNzUgMi4zLTMuODI1czIuNDUtNC4wMjUgMy40NS01LjcyNWwxLjg1LTMuMS0uNzI1LS45Yy0xLjA3NS0xLjM1LTEuMDc1LTEuNC0uNjI1LTIuNDI1LjMtLjcyNS40MjUtMS43MjUuNDI1LTMuODUgMC0zLjQtLjQ1LTUuMy0xLjY1LTYuNjUtLjctLjc3NS0uOS0uODc1LTEuNzUtLjgtLjUyNS4wNS0uOTI1LjAyNS0uOS0uMDc1LjA1LS4xLjc3NS0uNzUgMS42LTEuNDVsMS41NS0xLjI3NSAyLjg3NSAyLjY3NWMxLjU3NSAxLjUgMy40NSAzLjIyNSA0LjE1IDMuODc1IDEuNTc1IDEuNDUgMS42IDEuNjc1LjQyNSA2LjUyNS0xLjI1IDUuMi00LjMyNSAxMy45NzUtNS42NSAxNi4xMjUtLjY1IDEuMDUtMS4xIDEuMi00LjIgMS40LTEuNDI1LjA3NS0yLjguMjUtMy4wNS40LS43NzUuNDI1LS44LjMtLjA3NS0uOTI1eiIvPjxwYXRoIGQ9Im04MC44NzUgODcuNzc1Yy40NzUtMS41LjkyNS00LjQyNSAxLjI3NS04LjI3NS40NzUtNC44NS41MjUtNSAyLjE3NS01IDEuMiAwIDIuMzc1LjUyNSAzLjMgMS41bC43LjcyNS0xLjU3NSAyLjdjLTIuMTI1IDMuNjUtNS41NSA4LjgyNS01LjgyNSA4LjgyNS0uMSAwLS4xNS0uMi0uMDUtLjQ3NXoiLz48L2c+PGcgZmlsbD0iI2QzMzgzMyI+PHBhdGggZD0ibTMxLjkgOTIuMjI1Yy0xNC40MjUtMTUuOS0xNS42LTQwLjMtMi43NS01Ny4zNzUgMS41NS0yLjA1IDUuMDI1LTUuODUgNS4zNzUtNS44NS4xIDAgLjI3NS4zNzUuMzUuODI1LjEyNS42NS0uMDI1IDEuMTc1LS42NzUgMi40MjUtLjggMS41NzUtLjgyNSAxLjY1LS44IDQuNzI1IDAgMi44MjUuMDc1IDMuMzUuNyA1LjAyNSAxLjM1IDMuNiAzLjQyNSA1LjgyNSA2LjI1IDYuNzc1bDEuMjUuNDI1LjQ1IDEuODI1Yy4yNS45NzUuOTUgMi43MjUgMS41NzUgMy44NSAxLjIyNSAyLjI1IDEuMzc1IDMuMDc1LjcgMy43LS4yNS4yLTIuNDI1IDEuNTI1LTQuODI1IDIuOTI1LTIuNCAxLjQyNS01LjMgMy4xNzUtNi40NSAzLjktMS4xMjUuNzUtMi42MjUgMS42MjUtMy4yNzUgMS45NzUtMS42MjUuODI1LTIuNTI1IDEuOS0yLjUyNSAzLjEgMCAuODc1IDIuMTI1IDcuMzUgMy42NzUgMTEuMjc1LjQyNSAxLjAyNSAxIDIuODI1IDEuMjc1IDQgLjYgMi41IDEuMzc1IDcuMzc1IDEuMjUgNy43NzUtLjA1LjE3NS0uNzUtLjQyNS0xLjU1LTEuM3oiLz48cGF0aCBkPSJtOTEuNzUgODguMzI1YzAtLjEuNjc1LTIuMTI1IDEuNTI1LTQuNTUgMi41LTcuMjUgNS0xNS41NSA1LjE1LTE3LjAyNS4xNS0xLjc1LS4yMjUtMi4zNS0zLjQyNS01LjItNC42LTQuMS01LjUtNS4wNS01LjUtNS43MjUgMC0uMzUuNTI1LTEuNiAxLjE1LTIuNzUgMS4yNS0yLjMgMi4wNS00LjQ1IDMtOC4xLjcyNS0yLjgyNSAxLjYtOC41MjUgMS42LTEwLjUgMC0uNzc1LjA3NS0xLjc3NS4xNS0yLjJsLjE3NS0uOC42MjUuNTc1YzIuNjUgMi40NzUgNi44IDkuNDI1IDguNTI1IDE0LjMgMS45MjUgNS40MjUgMi42IDkuNTUgMi42IDE1LjUyNSAwIDQuNjI1LS4yNzUgNy4xNzUtMS4yMjUgMTAuOS0uOSAzLjYtMS45NzUgNi41LTMuNjI1IDkuNzc1bC0xLjUgMi45LTEuNi4yNzVjLTEuNi4yNzUtMy41NzUuOTUtNi4xNzUgMi4xLS44LjM1LTEuNDUuNTc1LTEuNDUuNXoiLz48cGF0aCBkPSJtNjIuMTUgNzcuOTVjLS4xNzUtLjMyNS0uNzI1LTEuNjUtMS4xNzUtMi45NS0uNzc1LTIuMi0uODUtMi42LS44NS01LjUgMC0zLjQ1LjM1LTQuNiAxLjQ3NS00LjkgMS0uMjUgNC41MjUuODc1IDcuNiAyLjQyNSAxLjYuODI1IDMuMDc1IDEuNDc1IDMuMjUgMS40NzUuMzc1IDAgLjQuNjUuMDI1LjktLjE1LjEtLjguMy0xLjQ1LjQ3NS0xLjIuMzI1LTEuMTc1LjM3NS44Ljg3NSAxLjEyNS4zIDEuMTc1LjM1IDEuMTc1IDEuMjUgMCAuODUtLjE1IDEuMDI1LTIuMDUgMi41NS0yLjc3NSAyLjItMy41IDIuNi01Ljc3NSAzLjMyNS0yLjQuNzc1LTIuNTc1Ljc3NS0zLjAyNS4wNzV6Ii8+PHBhdGggZD0ibTgxLjM3NSA3Mi44NWMtMi43MjUtLjQ3NS0yLjYyNS0uNC0yLjYyNS0xLjgyNSAwLTEuMzc1LjM3NS0xLjc3NSAxLjYyNS0xLjc3NS4zNzUgMCAuNi0uMS41LS4yNS0uMDc1LS4xMjUtLjYyNS0uMjUtMS4yLS4yNS0uOTUgMC0xLjEtLjA3NS0xLjM1LS43NS0uMjc1LS43MjUtLjI3NS0uNzUgMS43MjUtMiA1LjQtMy40NzUgNi40NzUtMy4xIDcuMiAyLjU3NS4yMjUgMS44NzUuMTI1IDMuNDI1LS4zIDQuMjUtLjI3NS41MjUtMi42LjU1LTUuNTc1LjAyNXoiLz48cGF0aCBkPSJtNzQuNjI1IDcxLjY1Yy0uMzc1LS4yNzUtLjQ3NS0uNjc1LS41LTEuOCAwLTEuNDI1LjAyNS0xLjQ1LjgtMS42NzUgMi4xMjUtLjYyNSAzLjIgMi42MjUgMS4xNzUgMy41NS0uOC4zNS0uOS4zNS0xLjQ3NS0uMDc1eiIvPjwvZz48ZyBmaWxsPSIjNmY2YzZlIj48cGF0aCBkPSJtNjQuNjI1IDEyNC45NzVjLS44MjUtLjEyNS0yLjUtLjQ3NS0zLjc1LS43NzVsLTIuMjUtLjU3NS0xLjAyNS0zLjVjLTItNi43LTMuNTI1LTE0LjI1LTQuNTc1LTIyLjM3NS0uMjUtMi0uMzc1LTMuNzI1LS4yNzUtMy44MjUuMy0uMzUgOC4yLTEuMzc1IDEyLjgtMS42NzUgMy4yMjUtLjIgNS4zMjUtLjIgNy43NS0uMDI1IDQuMjc1LjM1IDQuNzUuNSA0Ljk3NSAxLjQuMTI1LjM3NS4zMjUgMy4yNS40NzUgNi4zNS4xNzUgMy4xLjMyNSA1LjcyNS40IDUuOC4wNS4wNzUuMiAzIC4zNSA2LjUuMjUgNS44NzUuNTc1IDEwLjI1LjkgMTEuMjc1LjE1LjUtLjY3NS44LTMuNjc1IDEuMzI1LTIuMzI1LjQtOS41MjUuNDc1LTEyLjEuMXoiLz48cGF0aCBkPSJtODAuOSAxMTcuMzI1Yy0uMDc1LTEuMDc1LS4yLTMuMy0uMy00Ljk3NS0uMTc1LTMuNC0uMjc1LTMuMiAxLjg1LTMuNWwxLjItLjE1LjY3NSAzLjQ1Yy4zNzUgMS45MjUuNjc1IDQuMS42NzUgNC44NzV2MS40bC0xLjQ1LjQyNWMtMi40NzUuNy0yLjQ3NS43LTIuNjUtMS41MjV6Ii8+PHBhdGggZD0ibTk3IDEwNS4wMjVjLS41NzUtLjQyNS0uMDI1LS42NSAyLjU3NS0xLjE3NSAzLjQtLjY1IDIuMjc1LS45NzUtMi43MjUtLjc1bC00LjA3NS4xNS0uMTI1LTEuMDVjLS4wNzUtLjYtLjI3NS0yLjI1LS40MjUtMy43LS4xMjUtMS40NS0uNDI1LTMuNDUtLjYyNS00LjQ3NS0uMzUtMS42NzUtLjM1LTEuODc1LjAyNS0yLjI3NS41NS0uNiAyLjIyNS0xLjM3NSA0Ljc1LTIuMjUgMS4xLS4zNzUgMi40NzUtLjkyNSAzLjA1LTEuMjI1IDIuNTUtMS4yNzUgNC41IDAgNS42NzUgMy42NzUgMS45NSA2LjE3NSAxLjk3NSA5LjA1LjE1IDExLjM3NS0xIDEuMjUtMi4zMjUgMS43MjUtNS4yNSAxLjg1LTEuNjI1LjA3NS0yLjc3NSAwLTMtLjE1em00LjUtNi4zYy0uOS0uMzc1LTQuMDI1LS41NzUtNS4xNS0uMzVsLS45NzUuMjI1Ljg3NS4xNWMuNDc1LjEgMiAuMiAzLjM3NS4yIDEuOTI1LjAyNSAyLjM1LS4wNSAxLjg3NS0uMjI1em0tMS4zNS0zLjE1YzEuMTUtLjE3NSAxLjE3NS0uMi40NzUtLjM1LTEuMy0uMy0zLjcyNS0uMjI1LTQuNS4xNS0uNzI1LjMyNS0uNjc1LjMyNSAxLjAyNS4zNS45NzUuMDI1IDIuMzI1LS4wNSAzLS4xNXptLTIuNC0yLjg3NWMxLjcyNS0xIDEuOTUtMS4yIDEuMjUtMS4wNzUtMS44NS4zNS0zLjIyNS45MjUtNC4xNSAxLjc3NWwtLjk3NS44NzUuODc1LS4xNzVjLjQ3NS0uMDc1IDEuODI1LS43IDMtMS40eiIvPjxwYXRoIGQ9Im04Ny45IDEwMy45NzVjLS4wNS0uMi0uMjc1LTEuNzUtLjUtMy40NzVzLS41NzUtNC4yNS0uOC01LjZjLS4yMjUtMS40NzUtLjI3NS0yLjU3NS0uMTUtMi43cy43NzUtLjIgMS40NS0uMTVsMS4yMjUuMDc1LjYgMS41Yy44IDIuMDI1IDEuMjUgNC43NzUgMS4yNzUgNy41NzUgMCAyLjMgMCAyLjMyNS0uNjc1IDIuNTc1LTEuMjUuNDc1LTIuMy41NzUtMi40MjUuMnoiLz48cGF0aCBkPSJtNzMuODc1IDg3LjE1Yy0xLjc3NS0uNzI1LTQuNTI1LTEuOTUtNi4wNzUtMi43NS0yLjUyNS0xLjMtMi44LTEuNS0yLjY1LTEuOTc1LjU1LTEuNzc1IDIuMTc1LTMuNiA0Ljc3NS01LjM3NS44NzUtLjU3NSAxLjYyNS0xLjA1IDEuNjc1LTEuMDUuNDc1IDAgMy43NSA2LjI3NSA1LjYyNSAxMC43LjY1IDEuNTUuNyAxLjguMzI1IDEuOC0uMjI1IDAtMS44NzUtLjYtMy42NzUtMS4zNXoiLz48cGF0aCBkPSJtODAuODc1IDg3Ljc3NWMuNDc1LTEuNS45MjUtNC40MjUgMS4yNzUtOC4yNzUuMzI1LTMuMjc1LjUyNS00LjQ1LjgtNC42NzUuOTUtLjc3NSAzLjQ3NS0uMSA0Ljc1IDEuMjVsLjU3NS42LS42MjUgMS4xYy0xLjM3NSAyLjQ3NS0yLjQ3NSA0LjI3NS00LjQ1IDcuMy0xLjkyNSAyLjk1LTIuNyAzLjg1LTIuMzI1IDIuN3oiLz48cGF0aCBkPSJtNzkuMzI1IDg3LjEyNWMtLjI3NS0uNTUtMS4wNS0yLjIyNS0xLjctMy43NS0xLjYyNS0zLjc3NS0yLjUtNS41LTMuNjc1LTcuMi0uOTUtMS40LS45NzUtMS41LS41NS0xLjk1LjI1LS4yNzUuNzc1LS40NzUgMS4yLS40NzUuNDI1LS4wMjUgMS4wNS0uMTc1IDEuNC0uMzc1LjkyNS0uNTI1IDEuNTI1LS40NSAyLjgyNS4zNzUuNjUuNCAxLjQ3NS44MjUgMS44MjUuOWwuNjc1LjE3NS0uMTc1IDMuOTc1Yy0uMTc1IDMuOS0uNjI1IDcuNDUtMS4xIDguNy0uMjI1LjYyNS0uMjI1LjYyNS0uNzI1LS4zNzV6bS4zLTZjMC0uNjI1LS4xLS43NS0uNjI1LS43NS0uNCAwLS42NS4xNS0uNy40NS0uMTUuNzUuMTUgMS4yMjUuNzUgMS4xMjUuNDUtLjA1LjU3NS0uMjI1LjU3NS0uODI1em0tLjc3NS00Yy4yMjUtLjYyNS0uMTI1LTEuMTI1LS43NS0xLjEyNS0uMzUgMC0uNjc1LjE3NS0uNzUuMzc1LS4yNS42MjUuMSAxLjEyNS43NSAxLjEyNS4zMjUgMCAuNjUtLjE3NS43NS0uMzc1eiIvPjxwYXRoIGQ9Im01Ni4xMjUgNjcuMjc1Yy0xLjc3NS0uNjI1LTMuMTc1LTEuMzc1LTMuNzI1LTJzLS4zNzUtMS40MjUuMy0xLjE1Yy43NzUuMzI1IDIuMTUuNTc1IDQuMTI1Ljc1IDIuMTI1LjE3NSAyLjE1LjIgMS42NSAxLjk1LS4yNzUgMS4wNS0uNSAxLjEtMi4zNS40NXoiLz48cGF0aCBkPSJtNzMuMzUgNjYuNTI1Yy0uODUtLjIyNS0yLjg1LTEuMjc1LTIuODUtMS41MjUgMC0uMS44MjUtLjEyNSAxLjgyNS0uMDUgMS4zNS4wNzUgMi41LS4wNSA0LjI1LS40NSAxLjM1LS4zIDIuNTUtLjUgMi42NzUtLjQ1LjE1LjA1LS41LjY3NS0xLjQyNSAxLjQtMS43NSAxLjM3NS0yLjQ3NSAxLjU1LTQuNDc1IDEuMDc1eiIvPjxwYXRoIGQ9Im01Ni44NzUgNjMuNzVjLTIuMzc1LS4yNS01LjA1LTEuMDc1LTYuNDI1LTItMS4zLS44NzUtMi41NzUtMi42MjUtMy43MjUtNS4xNzUtMS4xMjUtMi40NzUtMi4yMjUtNS43NS0yLjM3NS03LjI1LS4xNS0xLjIyNS0uMTI1LTEuMzUuNzUtMi40MjUuNjI1LS43MjUuOS0xLjMyNS44NS0xLjctLjEtLjc1LS42NzUtLjY1LTIuMDI1LjMyNS0xLjc3NSAxLjI3NS00LjA1Ljg3NS01Ljc1LTEtMS43NzUtMS45NzUtMy4xLTUuNDUtMi44NS03LjU1LjQ1LTMuODI1IDQuMzI1LTYuNSA3LjM1LTUuMDc1LjkyNS40NSAyLjEyNSAyLjI3NSAyLjU3NSAzLjkyNS4yNS44NzUuMzI1LjkyNSAxLjI3NS45MjUuNTUgMCAxLjM3NS0uMTc1IDEuODUtLjM1IDEuMDc1LS40NSAxLjEyNS0xLjAyNS4zMjUtMy45NzUtLjctMi42NzUtLjY3NS01IC4xNS04LjkuNy0zLjMuODI1LTUuODc1LjM3NS03LjY1LS4yNzUtMS4wNS0uMjI1LTEuMi41LTIuMzI1IDIuMjUtMy41IDguOTUtOC40IDEzLjc3NS0xMC4wNzUgMi4wNzUtLjcgNi42LS43NzUgOS41NzUtLjEyNSA0LjI1LjkyNSA4Ljg3NSAyLjkyNSAxMS4wNzUgNC44IDEuMDUuOSA1LjEgNS44NSA1LjEgNi4yNSAwIC4wNS0uNDI1LjA1LS45NS0uMDUtMi4wMjUtLjMyNS00LjA1Ljg1LTQuMDUgMi4zMjUgMCAuNTc1LjAyNS41NzUuNTUuMjI1Ljk3NS0uNyAzLjAyNS0uNTI1IDQuNzUuNCAyLjYgMS4zNzUgMy41MjUgMy4yIDMuOTc1IDcuODUuNDI1IDQuMjc1LjE1IDEyLjgtLjQ3NSAxNS45LTEuMDUgNC45NS0yLjY1IDguOTc1LTUuMjI1IDEyLjk1LTIuMDUgMy4xNS0yLjk3NSA0LjItNC44NSA1LjQyNS0zLjYyNSAyLjMyNS03LjQgMy41NzUtMTAuODUgMy41NzUtMi40NzUgMC00LjA1LS40NS02Ljk3NS0xLjk1LTIuNjc1LTEuMzc1LTUuODUtNC4yNzUtOC4zNS03LjYtLjktMS4yLTEuNjc1LTIuMTUtMS43NS0yLjEtLjI3NS4zLjY1IDIuMTI1IDEuOTUgMy44NSAxLjcgMi4yNzUgNS4yNSA1Ljc1IDYuNzI1IDYuNTc1LjU1LjMyNSAxLjAyNS43IDEuMDI1LjggMCAuMTI1LS42LjEyNS0xLjMyNS4wNS0xLjU3NS0uMi0zLjE1LjE3NS0zLjguODc1LS4yNS4yNzUtLjU3NS40NzUtLjcyNS40NzUtLjE1LS4wMjUtMS4wNS0uMTI1LTIuMDI1LS4yMjV6bTIzLjctOC43NWMuNS0uMTUgMS4xNS0uNTI1IDEuNDUtLjgyNWwuNS0uNTUtNC4yLS4xNWMtNS44LS4yLTcuMzUtLjctOS40LTIuOTc1LS42NS0uNy0xLjMyNS0xLjI1LTEuNTUtMS4yLS4yNS4wNS4xMjUuNyAxLjM1IDIuMiAyLjI3NSAyLjggMi44IDMuMjUgNC4yIDMuNjVzNi4xNzUuMyA3LjY1LS4xNXptLjMyNS01LjQyNWMtLjA3NS0uNTI1LS4xNS0xLjEyNS0uMTUtMS4zNSAwLS4zNS0uNTUtLjQyNS00LjA1LS41NS0zLjY3NS0uMS01LjM1LS4zNS03LjMyNS0xLjA3NS0uOTI1LS4zMjUgMS4xNzUgMS42NSAyLjQgMi4zIDEuNzUuODc1IDQuNzUgMS41IDcuNyAxLjU3NWwxLjYuMDI1em0zLjU1LjNjMS42MjUtLjUgMy40NS0xLjk1IDQuNi0zLjY1LjUtLjc1Ljg3NS0xLjM3NS44MjUtMS40MjUtLjAyNS0uMDUtMS4wNzUuNDI1LTIuMzI1IDEuMDUtMS4yMjUuNjI1LTIuNzc1IDEuMjc1LTMuNDUgMS40MjVzLTEuMzc1LjMyNS0xLjUyNS4zNzVjLS4yLjA1LS4zMjUuNTUtLjMyNSAxLjM1IDAgMS40NS4xIDEuNDc1IDIuMi44NzV6bS0zLjM3NS00LjZjMi0uNTI1IDMuMS0xIDUuNTUtMi40NzUgMS40MjUtLjgyNSAxLjU1LS45NzUgMS45NS0yLjMyNS4yMjUtLjguNDI1LTEuNTc1LjQyNS0xLjc1IDAtLjE1LS45NzUtMS4zLTIuMTUtMi41NS0zLjYyNS0zLjg3NS01Ljg1LTcuMDc1LTcuMjUtMTAuNTUtLjE3NS0uMzc1LS4yMjUtLjIyNS0uMy42NS0uMTUgMi4yNSAxLjQ1IDUuMzI1IDUuMDI1IDkuNjI1IDIuNTI1IDMgMi44NzUgMy43NSAyLjQgNC45LS4yNS42NS0uNzUuOTc1LTIuODI1IDEuOTc1LTMgMS40LTQuMSAxLjcyNS01LjggMS43MjUtMS41IDAtMi4yNzUtLjY1LTIuNTI1LTIuMTI1LS4xMjUtLjc1LS4yLS44NS0uNC0uNS0uMzUuNjUtLjI1IDIuMjI1LjIgMy4xLjM3NS43NS40NS43NzUgMi4xLjc3NS45MjUgMCAyLjU1LS4yMjUgMy42LS40NzV6bS00MC45LTUuOTVjLjA3NS0yLjE1LjUtMy4wNzUgMS40MjUtMy4wNzUuNjc1IDAgMS4xMjUuNDc1IDEuOTI1IDIgLjU3NSAxLjEyNS42IDEuMTI1LjY3NS40LjEyNS0xLjEtLjYyNS0yLjc3NS0xLjcyNS0zLjc1LS44LS43NS0xLjE3NS0uOS0yLjA3NS0uOS0uOTI1IDAtMS4yLjEyNS0xLjc1Ljc3NS0uOC45NS0uODI1IDEuMzUtLjA1Ljg1LjctLjQ3NSAxLjUyNS0uMjUgMS4yMjUuMzUtLjQuNzc1LS4yIDUuMjc1LjIyNSA1LjI3NS4wNSAwIC4xLS44NS4xMjUtMS45MjV6bTMxLjc1LTYuOTc1Yy43NS0uNTc1Ljk3NS0xLjEuODI1LTIuMS0uMDI1LS4yLS40NzUtLjgyNS0xLTEuMzc1LS41NS0uNTUtMS4zNzUtMS44NS0xLjg3NS0yLjg3NWwtLjg3NS0xLjg3NS4wNzUgMS4xMjVjLjEgMS4xNS43MjUgMi42NSAxLjcgNC4yLjUuNzc1LjUyNS44NzUuMTI1IDEuMjUtLjMyNS4zMjUtLjc3NS40LTEuOTc1LjM1LTMuNzUtLjItMy41NS0uMi0zLjYyNS4zNS0uMjUgMS43MjUgNC43IDIuNDI1IDYuNjI1Ljk1em0xOC43LTEuMDc1Yy41NS0uMjUgMS4yLS42NzUgMS40MjUtLjk1LjQyNS0uNDUuMzc1LS42LTEuMDUtMy40LTEuMzI1LTIuNTc1LTEuNS0yLjgyNS0xLjUtMi4wNSAwIC40NzUuMyAxLjYuNjc1IDIuNS41IDEuMi42IDEuNy40IDEuOS0uMTc1LjE3NS0xLjE3NS4zNzUtMi4yNS41LTEuMDc1LjEtMS45NzUuMi0yIC4yLS4yLjA1LS4wMjUuNzUuMzI1IDEuMjI1LjMuNDUuNjI1LjU1IDEuNjc1LjU1LjcyNSAwIDEuNzUtLjIyNSAyLjMtLjQ3NXptLTMxLjEyNS0xMC44NzVjMS41LTIuMDI1IDIuOTc1LTIuNzc1IDUuMzI1LTIuNzUgMS42NzUgMCAxLjcgMCAxLjYyNS0uNjI1LS4xMjUtMS0xLjU3NS0xLjg1LTIuOC0xLjY1LTIuMTc1LjMyNS00LjkyNSAyLjUyNS01LjggNC42LS42IDEuNC0uMzUgMy40NzUuMjc1IDIuMzc1LjEyNS0uMjI1Ljc1LTEuMSAxLjM3NS0xLjk1eiIvPjxwYXRoIGQ9Im00Ni45MjUgMzQuNTc1Yy0uMS0uMDc1LS4xNzUtLjQyNS0uMTc1LS43NSAwLTEuNTc1LTEuODc1LTMuNjc1LTMuOTI1LTQuMzUtMS4yLS40LTQuMi0uMTc1LTQuOC4zNzUtLjIyNS4yMjUtLjUyNS4zMjUtLjYuMjI1LS4xLS4wNzUtLjE3NS0xLjY1LS4xNzUtMy40NSAwLTQuMjUuMzUtNS40NzUgMi4wNzUtNy4zIDEuNzUtMS44NSA0LjgtMy4zNzUgNi44NS0zLjQyNWwxLjQ1LS4wMjUuMjI1IDEuNzI1Yy4yIDEuMzUuMTI1IDIuNTUtLjMgNS43NS0uNjc1IDUuMDI1LS42NzUgNS41IDAgOC4zMjUuNDUgMS45LjQ3NSAyLjM1LjIyNSAyLjY3NS0uMzc1LjQyNS0uNi41LS44NS4yMjV6Ii8+PHBhdGggZD0ibTQxLjY3NSAxNC4yYy44NS0xLjQ3NSAzLjE1LTMuNzI1IDUuMy01LjE1IDMuOC0yLjU1IDguOS00LjQyNSA4LjktMy4zIDAgLjItLjIyNS40NzUtLjUuNjI1LTIuMDI1IDEuMDI1LTQuMTUgMy4wNS01LjI1IDQuOTI1LS4zNzUuNjUtLjk3NSAxLjUyNS0xLjM3NSAxLjk1LS42NS43LS44MjUuNzUtMi4zLjcyNS0xLjAyNS0uMDI1LTIuMDc1LjE1LTMuMDUuNS0yLjA3NS43NS0yLjI3NS43LTEuNzI1LS4yNzV6Ii8+PC9nPjxnIGZpbGw9IiM0YTczOGQiPjxwYXRoIGQ9Im0zNy4yNSAxMDQuNDI1Yy0uMzUtLjItLjYtLjQ1LS41NzUtLjU3NS4wNzUtLjQyNS0uNC03LjQtLjY3NS05LjcyNS0uNTc1LTQuODUtMS43NS0xMC44NzUtMi43NzUtMTQuMjUtLjc3NS0yLjYyNS0xLjUyNS00LjgyNS0xLjc1LTUuMzc1LS4xNzUtLjM1LS4zNzUtLjg1LS41LTEuMTI1LS45LTIuMi0uOTc1LTIuNS0uNzI1LTIuNTc1LjE1LS4wNS45NS0uNjI1IDEuNzUtMS4yNzUgMy4yLTIuNTI1IDguMTUtNS43MjUgMTEtNy4wNS45LS40MjUgMS45LS45IDIuMjI1LTEuMDUuNTUtLjI3NS43LS4xNzUgMi4xNzUgMS40NS44NzUuOTUgMS42IDEuOCAxLjYgMS44NzUgMCAuMTc1LjE1LjEtOC4zNzUgMy44NzUtMy4zIDEuNDc1LTYuMDUgMi43LTYuMDc1IDIuNzUtLjA1LjA1LjIgMS40MjUuNTc1IDMuMDUgMS40MjUgNi4zMjUgMi41MjUgMTIuOCAzLjEyNSAxOC4yNzUuNDUgNC4xMjUuMyAxMi4wNS0uMjI1IDEyLjA1LS4wNzUgMC0uNDI1LS4xNS0uNzc1LS4zMjV6Ii8+PHBhdGggZD0ibTc5Ljk1IDk2LjZjLS4yNS0uMjI1LS4yNS0xLjc1LS4wNS0yLjguMTc1LS44NzUuNS0xLjA1IDIuMzI1LTEuMTUgMS4yLS4xIDEuMjUtLjA3NSAxLjUuNjc1LjE1LjQuMjc1IDEuMTI1LjI3NSAxLjYgMCAuNzUtLjEyNS45LS45MjUgMS4yNS0xLjEuNDUtMi44NzUuNy0zLjEyNS40MjV6Ii8+PHBhdGggZD0ibTQ5IDk1Ljc1Yy0xLjc1LS4zLTIuNjUtLjYtMy40NS0xLjEyNS0uNzI1LS40NzUtLjk3NS0uNzc1LS43NS0uOS4xNS0uMS40MjUtLjEyNS41NzUtLjAyNS4xMjUuMSAxLjQ1LjE3NSAyLjkyNS4xNzUgMS42MjUgMCAyLjc3NS4xIDIuOTUuMjc1LjE1LjE1LjI1LjY3NS4yIDEuMTVsLS4wNzUuODV6Ii8+PHBhdGggZD0ibTUyLjQgOTEuMWMtLjItLjUyNS0uMi02LjY3NSAwLTkuNTVsLjE3NS0yLjI3NS45NSAxLjIuOTc1IDEuMjI1djQuNzc1YzAgMi42MjUtLjA3NSA0Ljc3NS0uMTc1IDQuOC0uMTI1IDAtLjU1LjA1LTEgLjEtLjU1LjA3NS0uODI1IDAtLjkyNS0uMjc1eiIvPjxwYXRoIGQ9Im03NC41MjUgODcuMzc1Yy0yLjctMS4wNzUtOC41NS0zLjg3NS05LjItNC40MjUtLjQ3NS0uNC42NS0yLjM3NSAyLjItMy44MjUgMS43NS0xLjY1IDMuNjc1LTIuOTUgNC4xLTIuOC42LjI1IDIuODI1IDQuMTc1IDQuNSA3Ljk1IDEuNiAzLjcgMS44IDQuMjI1IDEuNDUgNC4yMjUtLjEyNSAwLTEuNDc1LS41MjUtMy4wNS0xLjEyNXoiLz48cGF0aCBkPSJtODAuODc1IDg3Ljg3NWMuNjc1LTEuOTUgMS4yNzUtNiAxLjUyNS0xMC4wNzUuMTc1LTIuNy4yLTIuODUuNzc1LTMuMDc1IDEuNDI1LS41MjUgMy4zLjAyNSA0LjUyNSAxLjM1bC41NzUuNi0uNjI1IDEuMWMtMy4wNSA1LjQ3NS03LjQgMTEuOTI1LTYuNzc1IDEwLjF6Ii8+PHBhdGggZD0ibTkxLjk1IDY2LjEyNWMtMi4wMjUtMS41LTQuMDc1LTMuMTUtNC41MjUtMy42LS40NzUtLjQ3NS0xLjItMS0xLjY1LTEuMTVsLS44LS4yNSAxLjM1LTEuMTc1IDEuMzUtMS4xNzUgMi4zNSAyLjNjMS4zIDEuMjc1IDMuMSAyLjk1IDQuMDI1IDMuNzUgMS43NSAxLjUgMi4yMjUgMi40NSAxLjc3NSAzLjU1LS4xNzUuNDUtLjU1LjI1LTMuODc1LTIuMjV6Ii8+PC9nPjxnIGZpbGw9IiM4M2IzYzciPjxwYXRoIGQ9Im02NSAxMjQuOWMtMy4yMjUtLjUtNS45MjUtMS4xNS02LjItMS40NzUtLjM1LS40MjUtMS42MjUtNC45MjUtMi43NzUtOS43LTEuNi02LjUtMy42LTE5LjI3NS0zLjEtMTkuNzI1LjI3NS0uMjc1IDYuNTI1LTEuMTc1IDEwLjU3NS0xLjUyNSA0LjgyNS0uNDI1IDE0LS4wNSAxNC42MjUuNTc1LjA3NS4wNS4zIDMuMDc1LjUgNi43MjUuMiAzLjYyNS40MjUgNy4wNS41IDcuNnMuMjUgMy42NzUuMzc1IDYuOTI1LjM3NSA2LjcyNS41MjUgNy43MjVjLjIyNSAxLjQyNS4yIDEuODI1LS4wNSAyLTEuNS45MjUtMTEuMDI1IDEuNDc1LTE0Ljk3NS44NzV6Ii8+PHBhdGggZD0ibTgxLjEyNSAxMTljLS4wNS0uMDc1LS4xNzUtMi4zLS4yNzUtNC45bC0uMTc1LTQuNzUgMS4zLS4zYzEuNS0uMzUgMS43NzUtLjI1IDEuNzc1LjU1IDAgLjMyNS4yMjUgMS42MjUuNSAyLjkyNXMuNTc1IDMuMS42NSA0LjAyNWMuMTc1IDEuNjc1LjE3NSAxLjY3NS0uNTUgMS45NzUtLjk3NS4zNzUtMy4xLjctMy4yMjUuNDc1eiIvPjxwYXRoIGQ9Im05Ny42MjUgMTA1LjAyNWMtLjk3NS0uMTc1LS45NzUtLjItLjM3NS0uNDUuMzUtLjE1IDEuMDI1LS4zMjUgMS41LS40MjUgMi43MjUtLjUyNSAzLjI3NS0uNzI1IDMtMS0uMi0uMTc1LTEuNjI1LS4yNS00LjYtLjJsLTQuMy4wNzUtLjQyNS0zLjk1Yy0uMjUtMi4xNzUtLjYtNC42MjUtLjgtNS40NWwtLjM1LTEuNS42NzUtLjU1Yy4zNzUtLjMyNSAxLjQ3NS0uODc1IDIuNDI1LTEuMjI1Ljk3NS0uMzc1IDIuNy0xLjA1IDMuODc1LTEuNTUgMi41NS0xLjA1IDMuNi0xLjEyNSA0LjcyNS0uMyAxLjEuNzc1IDEuODI1IDIuNDI1IDIuNzc1IDYuMjUuOCAzLjM1LjkyNSA1IC40NSA2LjU3NS0uNDI1IDEuNC0yLjA1IDMuMDUtMy4zMjUgMy4zNzUtMS40MjUuMzc1LTQuMDc1LjUyNS01LjI1LjMyNXptNC4xNzUtNi4zYy0xLjMyNS0uNTI1LTMuODUtLjc1LTUuMi0uNDc1LTIuMzI1LjUtMS41MjUuNzUgMi4yMjUuNzI1IDIuNDUgMCAzLjM3NS0uMDc1IDIuOTc1LS4yNXptLS40NzUtMy4yYy40NS0uMTc1LjM1LS4yNS0uNy0uNDI1LTIuNTI1LS40MjUtNS4zNzUtLjA1LTUuMzc1LjcyNSAwIC4yNzUgNS4yLjAyNSA2LjA3NS0uM3ptLTMuNC0yLjhjMS4zLS43IDIuMzI1LTEuMyAyLjI3NS0xLjM1LS4xNzUtLjE3NS0yLjUyNS40LTMuNjc1Ljg3NS0uNjc1LjMtMS41NS44NzUtMS45MjUgMS4zbC0uNzI1Ljc3NS44NS0uMTc1Yy40NS0uMDc1IDEuOS0uNzI1IDMuMi0xLjQyNXoiLz48cGF0aCBkPSJtODggMTA0YzAtLjI3NS0xLjQtOS45LTEuNjI1LTExLjA1LS4xLS43LS4xLS43IDEuMjc1LS43aDEuMzc1bC41IDEuMTI1Yy43NSAxLjY3NSAxLjIgNC4xMjUgMS40IDcuMjc1bC4xNSAyLjc3NS0xLjIuNDI1Yy0xLjQuNDUtMS44NzUuNS0xLjg3NS4xNXoiLz48cGF0aCBkPSJtNzYuODc1IDg4LjE3NWMtMy40NS0xLjEyNS0xMS42MjUtNC45NS0xMS42MjUtNS40NSAwLTEuMyAyLjItMy45IDQuNjUtNS41bDEuNjUtMS4wNS41NzUuNzI1YzEuMTI1IDEuMzUgNS45IDExLjIgNS41NzUgMTEuNDc1LS4wNS4wMjUtLjQtLjA1LS44MjUtLjJ6Ii8+PHBhdGggZD0ibTgxLjEgODcuNjI1Yy40NzUtMS4yNzUgMS4zNS03Ljg1IDEuNDI1LTExLjA3NWwuMDUtMS41NS45LS4yNWMxLjI3NS0uMzI1IDIuNjc1LjA1IDMuNjc1IDEuMDI1LjQ3NS40NS44NS45MjUuODUgMS4wNSAwIC4zMjUtMy4zNSA1Ljk1LTUuMiA4Ljc1LTEuNSAyLjI3NS0yLjA1IDIuOTI1LTEuNyAyLjA1eiIvPjxwYXRoIGQ9Im03OS4xNzUgODYuNTc1Yy0uMzI1LS42NS0xLjMtMi44LTIuMTUtNC43MjUtLjg1LTEuOTUtMi4wNS00LjMtMi42NzUtNS4yNS0xLTEuNTUtMS4xLTEuNzc1LS44LTIuMy4yLS40LjQ1LS41NS43NzUtLjQ1LjI3NS4wNzUgMS4wNS0uMSAxLjcyNS0uMzc1bDEuMjI1LS40NzUgMS41NzUuODc1Yy44NzUuNDc1IDEuNzUuODc1IDEuOTc1Ljg3NS41IDAgLjUtLjIyNS4xNzUgNC45LS4yMjUgMy41NzUtLjc3NSA3LjcyNS0xLjEgOC4wMjUtLjA3NS4wNzUtLjQtLjQyNS0uNzI1LTEuMXptLjYtNC45NzVjLjQyNS0uNTI1IDAtMS4yMjUtLjc3NS0xLjIyNXMtMS4yLjctLjc3NSAxLjIyNWMuMi4yMjUuNTI1LjQuNzc1LjRzLjU3NS0uMTc1Ljc3NS0uNHptLS45MjUtNC40Yy4zMjUtLjUyNS0uMDUtMS4yNzUtLjY1LTEuNC0uNC0uMDc1LTEuMi41NzUtMS4yLjk1cy44IDEuMDI1IDEuMi45NWMuMi0uMDUuNS0uMjc1LjY1LS41eiIvPjxwYXRoIGQ9Im01Ni4xMjUgNjcuMTVjLTEuNjI1LS41MjUtMy41NzUtMS42LTMuODc1LTIuMTUtLjQyNS0uNzc1LS4xLTEgLjg1LS42MjUuNDUuMiAxLjg1LjQyNSAzLjEyNS41MjUgMS4yNS4xIDIuMzI1LjI1IDIuNC4zNS4wNS4wNzUtLjAyNS42MjUtLjE3NSAxLjItLjMgMS4xNzUtLjU3NSAxLjI1LTIuMzI1Ljd6Ii8+PHBhdGggZD0ibTczIDY2LjMyNWMtLjg1LS4zLTIuNS0xLjE3NS0yLjUtMS4zMjUgMC0uMS41NzUtLjA1IDEuMjc1LjEgMS4wNzUuMjI1IDEuNzUuMTUgNC4zNzUtLjM3NSAxLjctLjM3NSAzLjEtLjYyNSAzLjEtLjU3NSAwIC4wMjUtLjY3NS41NzUtMS40NzUgMS4yLTEuNCAxLjA3NS0xLjU3NSAxLjE1LTIuOTUgMS4xMjUtLjggMC0xLjYyNS0uMDc1LTEuODI1LS4xNXoiLz48cGF0aCBkPSJtNTYuMzc1IDYzLjU3NWMtMS4yNzUtLjEyNS00LjIyNS0xLTUuNC0xLjU3NS0xLjI3NS0uNjUtMi40NS0yLjA3NS0zLjY1LTQuMzc1LTEuMTI1LTIuMi0yLjY3NS02LjYtMi45NS04LjQtLjE1LTEuMDc1LS4xMjUtMS4yLjg1LTIuMzI1IDEuMDc1LTEuMjI1IDEuMTc1LTEuNTI1Ljc3NS0yLjE1LS4yLS4zMjUtLjM3NS0uMy0xLjE3NS4xNzUtMi4zIDEuMzI1LTIuNDc1IDEuNC0zLjY3NSAxLjIyNS0xLjgyNS0uMjc1LTMuMDc1LTEuNDI1LTQuMzc1LTMuOTUtLjk3NS0xLjg3NS0xLjEyNS0yLjQyNS0xLjIyNS00LjEyNXMtLjAyNS0yLjE1LjQ1LTMuMWMxLjI1LTIuNSAyLjktMy40IDUuODUtMy4yNSAxLjA1LjA1IDIuNDI1IDEuNiAzLjAyNSAzLjQuMjUuODI1LjU1IDEuNi42NSAxLjcuMy4zNzUgMi43NS0uMTI1IDMuNDI1LS43bC42NS0uNTUtLjY3NS0yLjg1Yy0uODUtMy42MjUtLjg1LTQuODI1LjA3NS05LjMuODUtNC4xMjUuOS01LjIyNS40LTcuMTc1bC0uMzc1LTEuMzc1LjgtMS4zNWMyLjEtMy41IDEwLjA1LTkuMSAxNC40MjUtMTAuMTI1IDUuOTc1LTEuNDI1IDE2LjAyNSAxLjIyNSAyMC4zMjUgNS4zMjUgMS4xNzUgMS4xMjUgNC40MjUgNS4yIDQuNDI1IDUuNTc1IDAgLjAyNS0uNzI1LjA3NS0xLjYuMDc1LTEuMzc1IDAtMS43LjEtMi4yNzUuNjI1LS43MjUuNjc1LTEuMiAxLjY1LTEgMiAuMDc1LjEyNS41MjUuMDUgMS0uMTUgMS42NzUtLjcgMy44NS0uMiA1LjYgMS4zMjUgMi4xMjUgMS44MjUgMi43IDQuMDI1IDIuOTI1IDExLjMyNS4yNzUgOC43NzUtLjk1IDE1LjE1LTQuMDUgMjEuMzI1LS43MjUgMS40LTMuMjc1IDUuMzI1LTQuMyA2LjU1LTIuMDUgMi40NzUtNy45NzUgNS4xNzUtMTIuMTUgNS41MjUtMi4zNS4yLTQuMjUtLjItNy4wMjUtMS41LTMuODUtMS44MjUtNi40MjUtNC4xLTkuNy04LjYyNS0uODUtMS4xNS0xLjU3NS0xLjk3NS0xLjYyNS0xLjgtLjE1LjQyNSAxLjEyNSAzLjAyNSAyLjE3NSA0LjQgMS40NzUgMS45NSA1LjAyNSA1LjQ3NSA2LjM1IDYuMzI1bDEuMi43NS0yIC4wNzVjLTEuNjUuMDc1LTIuMS4yLTIuNTc1LjY3NS0uNjI1LjU1LTEuMS42LTMuNTc1LjM3NXptMjQuMDI1LTguNDVjMS4wNzUtLjMyNSAyLjM1LTEuMjI1IDIuMzUtMS42MjUgMC0uMS0xLjY1LS4xNzUtMy42NzUtLjE3NS01Ljg3NS4wMjUtOC41MjUtLjc3NS0xMC4yNzUtMy4wNzUtLjQ3NS0uNjI1LTEtMS4xNS0xLjE3NS0xLjItLjcyNS0uMTc1LS42LjUuMjI1IDEuNTI1LjUuNTc1IDEuMzc1IDEuNjUgMS45NSAyLjQgMS4yIDEuNSAyLjMyNSAyLjIgNC4xMjUgMi41MjUgMS41MjUuMjc1IDUgLjA3NSA2LjQ3NS0uMzc1em0uNTUtNS45MjUtLjA3NS0xLjMyNS0zLjUtLjE3NWMtMy43NzUtLjE3NS02LjIyNS0uNTI1LTcuNi0xLjEtLjQ3NS0uMi0uOS0uMzI1LS45MjUtLjI3NS0uMDUuMDUuMjUuNS42NzUgMSAxLjUgMS44IDUuMzc1IDMuMTI1IDkuNDI1IDMuMTVsMi4wNzUuMDI1em00LjkyNS4yYy42LS4zNSAxLjUtMS4wNzUgMi0xLjYyNSAxLjAyNS0xLjA3NSAyLjQyNS0zLjA3NSAyLjI1LTMuMjI1LS4wNS0uMDUtLjkyNS4zNS0xLjkyNS44NzUtMS45MjUgMS4wNS00LjYgMi4wNzUtNS40NSAyLjA3NS0uNDUgMC0uNS4xNzUtLjUgMS40djEuNDI1bDEuMjc1LS4xNWMuNy0uMSAxLjc1LS40NSAyLjM1LS43NzV6bS00LjYyNS00LjA3NWMxLjY3NS0uNDI1IDMuNTUtMS4yNzUgNS41MjUtMi40NzUgMS4zMjUtLjggMS41LTEgMS44NS0yLjE1LjU3NS0yIC41LTIuMjUtMS4wNzUtMy44NzUtMy40MjUtMy40NS03LjE1LTguNzc1LTcuNjUtMTAuODc1LS4wNzUtLjQtLjMyNS0uNy0uNTI1LS43LS45MjUgMCAuMDUgMy43MjUgMS42MjUgNi4zNS40NzUuNzc1IDEuNjc1IDIuNCAyLjYyNSAzLjU1IDMuMzc1IDQuMTI1IDMuNTI1IDQuNDI1IDIuODUgNS45MjUtLjU1IDEuMjI1LTcuMiAzLjY3NS05LjA1IDMuMzI1LTEuMDc1LS4yLTEuNDUtLjY1LTEuNjUtMS44NS0uMTc1LTEuMDc1LS41NS0xLjE3NS0uODc1LS4yNS0uMzI1LjkuMDUgMi40Ljc1IDMuMTI1LjYuNi43MjUuNjI1IDIuNDI1LjQ1IDEtLjEgMi40MjUtLjM1IDMuMTc1LS41NXptLTQwLjQtOC41NWMuMjc1LS4zLjYtLjUyNS43NzUtLjUyNS40MjUgMCAxLjIyNS45NSAxLjkgMi4yNWwuNiAxLjEyNS4wNzUtMS4xNzVjLjEtMS40LS41NS0yLjgyNS0xLjctMy44LTEuNTI1LTEuMjUtMy4yLTEuMTI1LTQuMTc1LjMyNS0uNzI1IDEuMDc1LS43MjUgMS40MjUtLjAyNS45MjUuMy0uMjI1Ljc3NS0uNCAxLjAyNS0uNC40IDAgLjQyNS4xMjUuMjUuODI1LS4zIDEuMTc1LS4yIDMuNy4yIDQuNTUuMy43MjUuMzI1LjY1LjQ3NS0xLjQyNS4xLTEuNjI1LjI1LTIuMy42LTIuNjc1em0zMS4zLTQuNTI1YzEuMTc1LTEuMTc1IDEuMTI1LTEuODc1LS4yNzUtMy40NS0uNjI1LS43LTEuNTUtMi4xNS0yLjA3NS0zLjIyNS0uOC0xLjcyNS0uOTI1LTEuODc1LTEtMS4yMjUtLjEuNzUuNzc1IDMuNSAxLjMyNSA0LjE1LjE3NS4yLjUuNzI1LjcgMS4xNS40LjguNC44LS4zMjUgMS4xLS41MjUuMjI1LTEuMy4yNS0yLjY3NS4xLTEuMDc1LS4xLTIuMDUtLjItMi4yLS4yMjUtLjQ1IDAtLjQyNSAxLjE1LjAyNSAxLjY1LjY1LjcyNSAxLjc1Ljk3NSAzLjguODc1IDEuNjc1LS4wNzUgMS45LS4xNSAyLjctLjl6bTE5LjAyNS0xLjEyNWMuNi0uMzc1IDEuMTc1LS44MjUgMS4yNS0xIC4xLS4zMjUtMi44NS02LjYyNS0zLjEyNS02LjYyNS0uMzI1IDAgLjIyNSAyLjguODI1IDQuMS43NzUgMS43NS43MjUgMS44LTEuNjI1IDIuMDI1LS45LjEtMS43NzUuMi0xLjkyNS4yNS0uNTUuMTc1LS4zNSAxLjA3NS4zNzUgMS42MjUuNTUuNDUuODc1LjUyNSAxLjkuNC42NS0uMDc1IDEuNy0uNDI1IDIuMzI1LS43NzV6bS0zMi40NS05LjQ3NWMuOS0xLjUyNSAyLjQyNS0zLjAyNSAzLjY3NS0zLjU1LjQ1LS4yIDEuNTUtLjM1IDIuNDUtLjM1czEuNy0uMTI1IDEuNzc1LS4yNWMuNS0uODI1LTEuMTc1LTIuMjUtMi42NzUtMi4yNS0xLjE1IDAtMy4yIDEuMDUtNC40NzUgMi4zMjUtMS4wNSAxLjA1LTIuMjI1IDMuMTUtMi4yMjUgNCAwIC40NS40MjUgMS40MjUuNjI1IDEuNDI1LjA1IDAgLjQyNS0uNi44NS0xLjM1eiIvPjxwYXRoIGQ9Im0zNy4zNSAyOC42Yy0uMi0xLjcgMC01LjM3NS40LTYuNjUuODI1LTIuOCA0LjYyNS01LjQ3NSA4LjY1LTYuMS45MjUtLjEyNSAxLjA1LS4xIDEuMTc1LjQyNS4yNS45LjIyNS45NzUtLjQuOTc1LS45NzUgMC0zLjcyNSAxLTQuOTc1IDEuOC0zIDEuOS00Ljc3NSA1LjgtNC4zIDkuNDI1LjEuNzUuMDUgMS4yNzUtLjEgMS4zNzUtLjE3NS4xLS4zMjUtLjM3NS0uNDUtMS4yNXoiLz48cGF0aCBkPSJtNDEuNSAxNC43NWMwLS4xLjUyNS0uODc1IDEuMTUtMS43MjUgMS4zNS0xLjggNC4xNS0zLjk3NSA3LjA1LTUuNDc1IDIuMjc1LTEuMTc1IDUuNDc1LTIuMzc1IDUuODI1LTIuMTUuNDUuMjUuMi43NzUtLjUgMS4xMjUtNS4zMjUgMi42LTcuMTUgMy44LTkuNSA2LjI1LTEuMSAxLjEyNS0xLjcgMS41MjUtMi43IDEuODI1LS43MjUuMi0xLjMyNS4yNzUtMS4zMjUuMTV6Ii8+PC9nPjxnIGZpbGw9IiNmMWQ4YjkiPjxwYXRoIGQ9Im03MyA2Ni4yNzVjLS44NzUtLjI3NS0yLjItLjk3NS0yLjM3NS0xLjI3NS0uMS0uMTc1LjA3NS0uMTc1LjUgMCAxLjAyNS4zNzUgMi41LjMgNS40NS0uMzUgMS40NzUtLjMyNSAyLjY3NS0uNTUgMi42NzUtLjUyNXMtLjY3NS41NzUtMS40NzUgMS4yMjVjLTEuMzUgMS4wNS0xLjYgMS4xNS0yLjgyNSAxLjEyNS0uNzI1IDAtMS42LS4xLTEuOTUtLjJ6Ii8+PHBhdGggZD0ibTU2LjA3NSA2My40NzVjLTIuMDI1LS4yNS00LjYyNS0xLjE1LTUuOC0xLjk3NS0xLjM1LS45NzUtMi42NzUtMy4wNS0zLjk3NS02LjE1LS45NzUtMi4zNzUtMi4wNS01Ljk3NS0yLjA1LTYuODc1IDAtLjI1LjQ1LS45NzUgMS4wMjUtMS42MjUgMS4wNS0xLjIgMS4yMjUtMi4xNS40MjUtMi4zLS4yMjUtLjA1LTEuMDUuMzI1LTEuOC44NS0xLjIuOC0xLjUyNS45LTIuNDI1Ljc3NS0xLjctLjIyNS0zLjIyNS0xLjM1LTQuMy0zLjE3NS0yLjUyNS00LjM1LTIuMTc1LTguMzc1LjkyNS0xMC40MjUgMS4wNS0uNzI1IDEuNDI1LS44MjUgMi43NzUtLjgyNSAxLjIyNSAwIDEuNy4xMjUgMi4yNS41NS43LjU1IDIuMTI1IDMuMjI1IDIuMTI1IDQuMDI1IDAgLjI1LjE3NS41LjM3NS41NzUuNy4yNzUgMi42MjUtLjE3NSAzLjMtLjc1bC42NS0uNTc1LS42NS0yLjljLS44NS0zLjY3NS0uODUtNC43MjUuMDc1LTkuMTUuODUtNC4wMjUuOTI1LTUuNjI1LjM3NS03LjQyNS0uMzUtMS4xNzUtLjMyNS0xLjI1LjI1LTIuMjUgMS41MjUtMi42IDUuMTI1LTUuNyA5LjYyNS04LjI1IDMuMzUtMS44NzUgNC44NzUtMi4zNzUgOC0yLjUyNSA0LjQtLjIyNSA4LjcyNS43NzUgMTMuNjUgMy4xNzUgMi4xNzUgMS4wNSAyLjc3NSAxLjQ3NSA0LjI1IDMuMDc1Ljk1IDEuMDI1IDIuMiAyLjU1IDIuOCAzLjRsMS4wNzUgMS41MjVoLTEuNDI1Yy0xLjYgMC0yLjU3NS40NzUtMy4yIDEuNS0uNTUuOTUtLjUyNSAxLjYuMDUgMS4zNzUgMi0uODUgMy41NzUtLjY3NSA1LjYuNiAyLjQ1IDEuNTUgMy4wNzUgMy4zNzUgMy41IDEwIC41MjUgOC41LS42MjUgMTUuODI1LTMuNDI1IDIxLjk1LTEuMTI1IDIuNDUtNC4xIDYuOTc1LTUuNDI1IDguMjI1LTEuOSAxLjgyNS01LjM3NSAzLjYtOC43IDQuNDc1LTIuMjUuNi01Ljc1LjYtNy41LjAyNS00LjMyNS0xLjQ1LTcuODc1LTQuMTc1LTExLjM1LTguNzI1LTEuMjI1LTEuNi0yLjI3NS0yLjg3NS0yLjM1LTIuODI1LS4yMjUuMjI1Ljc1IDIuNTc1IDEuNTI1IDMuNyAxLjQgMi4wMjUgNS4xIDUuODUgNi43MjUgNi45NWwxLjU1IDEuMDI1LTEuMzI1LS4xYy0xLjYtLjE1LTIuNjUuMTI1LTMuNC44MjUtLjU3NS41NS0uOTc1LjU1LTMuOC4yMjV6bTIzLjY1LTguMTVjMS41MjUtLjMyNSAzLjAyNS0xLjI1IDMuMDI1LTEuODc1IDAtLjEtMS42NS0uMi0zLjY3NS0uMi00LjI1LjAyNS01LjQ1LS4xMjUtNy4yNzUtLjgtMS41MjUtLjU3NS0yLjU1LTEuMzc1LTMuMy0yLjU3NS0uMzI1LS41LS43NS0uODc1LTEuMDI1LS44NzUtLjg3NSAwLS43MjUuMjI1IDIuNTUgNC4zMjUuNDI1LjUyNSAxLjAyNSAxLjEyNSAxLjM3NSAxLjMyNSAxLjYgMS4wNzUgNS4xMjUgMS4zNSA4LjMyNS42NzV6bTEuMjc1LTZjMC0uODUtLjEyNS0xLjM3NS0uMy0xLjQ1LS4xNzUtLjA1LTEuNzc1LS4xNS0zLjU3NS0uMjUtNC4xLS4xNzUtNi4xNS0uNTI1LTcuOTc1LTEuMjUtLjQtLjE3NS0uNDI1LS4xMjUtLjE3NS4zIDEuMTc1IDIuMjUgNS44NSAzLjkyNSAxMC45NzUgMy45NzVoMS4wNXptNC40LjNjLjcyNS0uMyAxLjc1LTEuMDI1IDIuMzI1LTEuNi45NS0uOTUgMi42LTMuMyAyLjQyNS0zLjQ3NS0uMDUtLjAyNS0xLjIyNS41LTIuNjI1IDEuMTc1cy0zLjE1IDEuMzc1LTMuOSAxLjUyNWwtMS4zNzUuMjc1djEuNTI1IDEuNWwuOTUtLjE3NWMuNS0uMDc1IDEuNS0uNDI1IDIuMi0uNzV6bS0zLjg1LTQuMjc1YzEuNDc1LS40NSAzLjEyNS0xLjIyNSA1LjI1LTIuNSAxLjItLjcyNSAxLjQ3NS0xLjA1IDEuOC0yLjAyNS42MjUtMS44LjUyNS0yLjctLjM1LTMuMzc1LTIuMjc1LTEuNzc1LTcuMzUtOC42MjUtOC4xMjUtMTAuOTUtLjI1LS43NzUtLjU1LTEuMjUtLjgtMS4yNS0uMzI1IDAtLjM3NS4yMjUtLjIyNSAxLjQ1LjI1IDIuMSAyIDUuNDUgNC4yNzUgOC4xNzUgMi45NSAzLjUyNSAzLjM3NSA0LjE1IDMuMzc1IDQuOSAwIDEuNDI1LS40IDEuOC0zLjIyNSAzLjA1LTIuOSAxLjI3NS00LjM1IDEuNjI1LTUuODc1IDEuNS0xLjI1LS4xLTEuNjI1LS40MjUtMS44LTEuNjI1LS4yLTEuMTUtLjQ3NS0xLjQtLjgyNS0uNzI1LS41NSAxLjAyNS0uMjc1IDIuNS43IDMuNjI1LjM1LjQuNjUuNDI1IDIuNDUuMyAxLjEyNS0uMSAyLjY1LS4zNSAzLjM3NS0uNTV6bS00MC42LTguNjVjLjUtLjUuNTUtLjUgMS4xNS0uMS4zNS4yMjUuOTUgMSAxLjMyNSAxLjcyNWwuNyAxLjMuMDc1LTEuMTc1Yy4yLTMtMy4wNzUtNS43NS01LjE1LTQuMy0uNi40LTEuNDI1IDEuOC0xLjIgMi4wMjUuMDc1LjA3NS4zLS4wNS41MjUtLjI3NXMuNjI1LS40LjkyNS0uNGMuNDI1IDAgLjQ3NS4xLjI3NS44MjUtLjMgMS4yMjUtLjIgMy45NzUuMiA0LjY3NS4zMjUuNTc1LjM1LjQ3NS41LTEuNTc1LjEyNS0xLjc3NS4yNS0yLjMyNS42NzUtMi43MjV6bTMwLjQ1LTMuODVjMS45NS0uOTI1IDIuMS0yLjMyNS40NzUtNC4wNzUtLjYtLjY1LTEuNTI1LTIuMDc1LTIuMDUtMy4xNzUtLjgyNS0xLjc1LS45NS0xLjktMS4wMjUtMS4yNS0uMTI1LjkyNS41NSAzIDEuNDc1IDQuNDI1LjQuNjI1LjcyNSAxLjI3NS43MjUgMS40MjUgMCAuOC0yLjE1Ljk3NS00LjguNC0uOC0uMTc1LTEuMS4yNzUtLjg1IDEuMjUuMyAxLjI1IDQuMTc1IDEuODc1IDYuMDUgMXptMTkuNjUtMS42NWMxLjctLjk1IDEuNy0xLS4wNS00LjUyNS0uODUtMS43NS0xLjYtMy4xNzUtMS42NzUtMy4xNzUtLjM1IDAgLjIgMi44MjUuOCA0LjEyNS43MjUgMS42LjYyNSAxLjg1LS43NSAxLjktLjk3NS4wMjUtMi40MjUuMi0yLjguMzUtLjU1LjItLjM1IDEuMDc1LjM3NSAxLjYyNS41NS40NS44NzUuNTI1IDEuODc1LjQuNjc1LS4wNzUgMS42NzUtLjQgMi4yMjUtLjd6bS0zMi40NS05LjI3NWMuMjc1LS41NzUgMS4wNzUtMS42MjUgMS43NS0yLjMyNSAxLjQ3NS0xLjQ1IDIuOTI1LTEuOTc1IDQuOS0xLjggMS4wNS4xIDEuMjc1LjA1IDEuMzc1LS4zMjUuMzUtMS4wNS0xLjEtMi4yMjUtMi42NzUtMi4yMjUtMi4wNSAwLTUgMi4yMjUtNi4xIDQuNTc1LS42NSAxLjQyNS0uNzI1IDEuOTc1LS4zNSAyLjcuMzc1LjcuNTc1LjYgMS4xLS42eiIvPjwvZz48ZyBmaWxsPSIjZjZmNWY1Ij48cGF0aCBkPSJtNjYuNzUgMTI1LjFjLS4zNS0uMDUtMS40NzUtLjIyNS0yLjUtLjM3NS0yLjMtLjMyNS01LjA1LS45NzUtNS4zNS0xLjI1LS41MjUtLjQ3NS0yLjc1LTguNjUtMy44NzUtMTQuMjc1LS44MjUtNC4wMjUtMS45NzUtMTEuOC0yLjA3NS0xMy45NWwtLjA3NS0xLjM1IDEuMTI1LS4yYzYuNTI1LTEuMTc1IDE2LjA3NS0xLjc1IDIwLjg3NS0xLjIyNSAxLjUyNS4xNzUgMi45LjQ1IDMuMDUuNi4zLjMuNzUgNi4yMjUgMS4zMjUgMTcuOTI1LjI3NSA1LjYuNyAxMS4yNS45IDEyLjI3NS4xNS42MjUuMDc1LjY3NS0xLjQ3NSAxLjA1LTMgLjc1LTkuMjUgMS4xNS0xMS45MjUuNzc1eiIvPjxwYXRoIGQ9Im04MC45MjUgMTE1Ljg1Yy0uMS0xLjc3NS0uMTc1LTMuOTUtLjE3NS00Ljg3NXYtMS42MjVsMS4zMjUtLjI3NWMuNy0uMTUgMS4zNS0uMjI1IDEuNC0uMi4xNzUuMTc1IDEuNSA3LjU1IDEuNTI1IDguNDUgMCAxLjA3NS0uNDc1IDEuMzc1LTIuNjUgMS42bC0xLjI3NS4xMjV6Ii8+PHBhdGggZD0ibTk3Ljk1IDEwNS4wNzVjLS41MjUtLjA1LS45NS0uMi0uOTUtLjM1IDAtLjEyNS4wNS0uMjI1LjEtLjIyNS4xMjUgMCAzLjUtLjY3NSA0LjM3NS0uOS40NzUtLjEuNTI1LS4yLjMtLjQyNXMtMS41MjUtLjI3NS00LjYtLjIyNWwtNC4zMjUuMDUtLjQyNS00LjA1Yy0uMjUtMi4yNS0uNi00LjctLjgtNS40NWwtLjM3NS0xLjM3NS42NzUtLjU1Yy4zNzUtLjMyNSAyLTEuMDI1IDMuNTc1LTEuNnMzLjQyNS0xLjMyNSA0LjA3NS0xLjY1YzEuODUtLjkyNSAzLjctLjI1IDQuNjc1IDEuNjc1LjcgMS4zNSAyLjI1IDcuNTUgMi4yNSA4Ljk1IDAgMi44LTEuNTI1IDUuMjI1LTMuNjI1IDUuNzUtMS4yNS4zMjUtMy43MjUuNS00LjkyNS4zNzV6bTQuNS02LjJjLS4wNzUtLjA3NS0xLjAyNS0uMy0yLjEtLjUyNS0yLjM3NS0uNDUtNS4xLS4yMjUtNS4xLjQyNSAwIC4xMjUgMS42NS4yMjUgMy42NzUuMjI1IDIgMCAzLjYtLjA1IDMuNTI1LS4xMjV6bS0uOTUtMy4zNzVjLjQyNS0uMjUtMS41MjUtLjYtMy4zNzUtLjYyNS0xLjMgMC0yLjg3NS41LTIuODc1Ljk1IDAgLjI3NSA1LjY1IDAgNi4yNS0uMzI1em0tNC45NzUtMmMuNzUtLjQyNSAxLjk1LTEuMDUgMi42NzUtMS40czEuMjc1LS43IDEuMjI1LS43NWMtLjA1LS4wNzUtLjkyNS4wNS0xLjk1LjI1LTEuNzc1LjM3NS00LjQ3NSAxLjgyNS00LjQ3NSAyLjQgMCAuNDc1IDEuMi4yNSAyLjUyNS0uNXoiLz48cGF0aCBkPSJtODcuODc1IDEwMi44MjVjLS4wNzUtLjgtLjQyNS0zLjItLjc3NS01LjMyNS0uMzI1LTIuMTI1LS42LTQuMTc1LS42LTQuNTUgMC0uNjc1LjA1LS43IDEuMjc1LS43IDEuMjUgMCAxLjI1IDAgMS43NSAxLjEyNS43MjUgMS42NSAxLjIgNC4xIDEuMzc1IDcuMjc1bC4xNzUgMi43NS0xLjMyNS40MjVjLS43MjUuMjI1LTEuNC40MjUtMS41LjQyNXMtLjI3NS0uNjUtLjM3NS0xLjQyNXoiLz48cGF0aCBkPSJtNzguOTUgODZjLS41LTEuMDI1LTEuNDc1LTMuMi0yLjItNC44LS43LTEuNi0xLjgtMy42NzUtMi40LTQuNnMtMS4xLTEuNzI1LTEuMS0xLjhjMC0uMzUuODI1LTEgMS4xMjUtLjkuMTc1LjA3NS43MjUtLjA1IDEuMjUtLjI1IDEuMzUtLjU3NSAyLjEtLjUgMy4zNzUuMzUuNjI1LjQgMS4zNzUuNzUgMS43Ljc1LjU1IDAgLjU1LjAyNS40MjUgMi44MjUtLjIgMy45MjUtLjYyNSA3LjY3NS0xIDkuMWwtLjMyNSAxLjJ6bS44MjUtNC40Yy40MjUtLjUyNSAwLTEuMjI1LS43NzUtMS4yMjVzLTEuMi43LS43NzUgMS4yMjVjLjIuMjI1LjUyNS40Ljc3NS40cy41NzUtLjE3NS43NzUtLjR6bS0uOTI1LTQuNGMuMzI1LS41MjUtLjA1LTEuMjc1LS42NS0xLjQtLjQtLjA3NS0xLjIuNTc1LTEuMi45NXMuOCAxLjAyNSAxLjIuOTVjLjItLjA1LjUtLjI3NS42NS0uNXoiLz48cGF0aCBkPSJtNTUuOCA2N2MtMi41MjUtLjktNC4xLTIuMDc1LTMuNjc1LTIuNzUuMDc1LS4xMjUuNS0uMDc1Ljk1LjEyNS40MjUuMTc1IDEuODUuNDI1IDMuMTI1LjU3NSAxLjI3NS4xMjUgMi4zNzUuMjc1IDIuNDI1LjM1LjA1LjA1LS4wMjUuNTc1LS4xNzUgMS4xNS0uMyAxLjIyNS0uNiAxLjMtMi42NS41NXoiLz48cGF0aCBkPSJtNTAuODI1IDYxLjc1Yy0xLjE1LS42NzUtMS4wMjUtLjg1LjEyNS0uMiAxLjE1LjY3NSAxLjIuNy45LjctLjEyNSAwLS42LS4yMjUtMS4wMjUtLjV6Ii8+PHBhdGggZD0ibTQ3LjM1IDU3LjQ3NWMtLjM1LS43LS42LTEuMzI1LS41NS0xLjM3NXMuNC41MjUuNzc1IDEuMjc1LjYyNSAxLjM3NS41NSAxLjM3NS0uNC0uNTc1LS43NzUtMS4yNzV6Ii8+PHBhdGggZD0ibTQ0LjUgNDcuOTc1YzAtLjIuMzI1LS41NzUuNy0uODI1bC42NzUtLjQ3NS0uNjI1LjcyNWMtLjM1LjQtLjY1Ljc3NS0uNjc1LjgyNS0uMDUuMDUtLjA3NS0uMDUtLjA3NS0uMjV6Ii8+PHBhdGggZD0ibTM1LjU3NSAzNy42MjVjMC0uNTUuMDUtLjc1LjEtLjQyNS4wNS4zLjA1Ljc1IDAgMS0uMDc1LjIyNS0uMTI1LS4wMjUtLjEtLjU3NXoiLz48cGF0aCBkPSJtMzcuMjUgMzMuMzc1Yy40NzUtLjQ3NS45LS44NzUuOTc1LS44NzVzLS4yNS40LS43MjUuODc1LS45Ljg3NS0uOTc1Ljg3NS4yNS0uNC43MjUtLjg3NXoiLz48cGF0aCBkPSJtNDMuNTc1IDMzLjE3NWMtLjEtLjE3NS0uNDc1LS41MjUtLjgyNS0uNzUtLjMyNS0uMjI1LS41MjUtLjQyNS0uNDI1LS40MjUuMzUgMCAxLjM3NS43NzUgMS41MjUgMS4xNS4xNzUuNDUgMCAuNDUtLjI3NS4wMjV6Ii8+PHBhdGggZD0ibTQwLjQ1IDMxLjgyNWMuMy0uMDUuNzUtLjA1IDEgMCAuMjI1LjA3NS0uMDI1LjEyNS0uNTc1LjEtLjU1IDAtLjc1LS4wNS0uNDI1LS4xeiIvPjxwYXRoIGQ9Im0zNy4zNzUgMjguMzVjLS4yNS0yLjIgMC01LjE1LjUyNS02LjcyNS44MjUtMi4zNzUgNC4wMjUtNC43MjUgNy41NzUtNS41MjUgMS0uMjI1IDEuODUtLjM1IDEuOS0uMy4wNzUuMDUuMTUuMzUuMTc1LjY3NS4wNzUuNS0uMS42MjUtMS43NSAxLjA1LTIuNDUuNjI1LTQuMSAxLjU1LTUuNTUgMy4xNS0xLjcgMS44NzUtMi4zMjUgMy41NzUtMi4zNzUgNi42MjUtLjAyNSAxLjM1LS4xIDIuNS0uMTc1IDIuNi0uMS4wNzUtLjIyNS0uNjI1LS4zMjUtMS41NXoiLz48cGF0aCBkPSJtNTguMTc1IDE4LjYyNWMuMy0uNC45LTEuMDc1IDEuMzUtMS41LjYyNS0uNTUuNTUtLjQyNS0uMjUuNS0xLjQ3NSAxLjY3NS0xLjcgMS44NzUtMS4xIDF6Ii8+PHBhdGggZD0ibTQxLjUgMTQuODc1YzAtLjM3NSAxLjIyNS0xLjk3NSAyLjQyNS0zLjIgMi4zMjUtMi4zNSA1LjY3NS00LjQgOS41NS01Ljc3NSAxLjI3NS0uNDc1IDEuOTI1LS42IDIuMTI1LS40LjQyNS40MjUtLjEuOC0zLjI1IDIuMzI1LTIuNiAxLjI1LTQuNzUgMi43NzUtNi42IDQuNjc1LS45LjkyNS0xLjg1IDEuNzUtMi4xMjUgMS44MjVzLS44NzUuMjUtMS4zLjM3NWMtLjQ1LjE1LS44MjUuMjI1LS44MjUuMTc1eiIvPjxwYXRoIGQ9Im04OC4yNSAxMy43NWMtLjE1LS4yNzUtLjE3NS0uNS0uMDc1LS41LjEyNSAwIC4zNS4yMjUuNTI1LjVzLjIuNS4wNS41Yy0uMTI1IDAtLjM1LS4yMjUtLjUtLjV6Ii8+PHBhdGggZD0ibTUyLjEyNSAxMWMuOTUtLjk1IDEuOC0xLjc1IDEuODUtMS43NS4wNzUgMC0uNjUuOC0xLjYgMS43NS0uOTUuOTc1LTEuOCAxLjc1LTEuODUgMS43NS0uMDc1IDAgLjY1LS43NzUgMS42LTEuNzV6Ii8+PHBhdGggZD0ibTU0LjM1IDkuMDVjLjItLjMyNSAxLjY1LTEuNCAxLjY1LTEuMjI1IDAgLjA3NS0uNDI1LjQyNS0uOTI1LjgyNS0uNS4zNzUtLjgyNS41NzUtLjcyNS40eiIvPjxwYXRoIGQ9Im03OS41IDUuODc1Yy0uMzUtLjItLjUtLjM1LS4zNzUtLjM1LjE1IDAgLjUyNS4xNS44NzUuMzVzLjUyNS4zNS4zNzUuMzVjLS4xMjUgMC0uNTI1LS4xNS0uODc1LS4zNXoiLz48cGF0aCBkPSJtNjAgNS4zNzVjMC0uMTc1IDIuMDI1LTEuMTc1IDIuMTUtMS4wNzUuMDUuMDc1LS40MjUuMzUtMS4wMjUuNjUtLjYyNS4zLTEuMTI1LjUtMS4xMjUuNDI1eiIvPjxwYXRoIGQ9Im02Ny43IDMuMDc1Yy4zLS4wNS44LS4wNSAxLjEyNSAwIC4zLjA1LjA1LjEtLjU3NS4xcy0uODc1LS4wNS0uNTUtLjF6Ii8+PC9nPjwvc3ZnPg==;html=1;whiteSpace=wrap;" parent="1" vertex="1">
          <mxGeometry x="830" y="550" width="65.39" height="90" as="geometry" />
        </mxCell>
        <mxCell id="mC8NbQeeErdKrk85uzCq-4" style="edgeStyle=orthogonalEdgeStyle;rounded=0;orthogonalLoop=1;jettySize=auto;html=1;exitX=1;exitY=0.5;exitDx=0;exitDy=0;exitPerimeter=0;" parent="1" source="mC8NbQeeErdKrk85uzCq-1" target="mC8NbQeeErdKrk85uzCq-3" edge="1">
          <mxGeometry relative="1" as="geometry">
            <Array as="points">
              <mxPoint x="827.2" y="590" />
              <mxPoint x="827.2" y="590" />
            </Array>
          </mxGeometry>
        </mxCell>
        <mxCell id="mC8NbQeeErdKrk85uzCq-37" value="Pulls" style="edgeLabel;html=1;align=center;verticalAlign=middle;resizable=0;points=[];" parent="mC8NbQeeErdKrk85uzCq-4" vertex="1" connectable="0">
          <mxGeometry x="0.1022" y="-2" relative="1" as="geometry">
            <mxPoint as="offset" />
          </mxGeometry>
        </mxCell>
        <mxCell id="mC8NbQeeErdKrk85uzCq-5" value="" style="shape=image;html=1;verticalAlign=top;verticalLabelPosition=bottom;labelBackgroundColor=#ffffff;imageAspect=0;aspect=fixed;image=https://cdn1.iconfinder.com/data/icons/unicons-line-vol-3/24/docker-128.png" parent="1" vertex="1">
          <mxGeometry x="745" y="540" width="40" height="40" as="geometry" />
        </mxCell>
        <mxCell id="mC8NbQeeErdKrk85uzCq-6" value="Non Prod k8s env" style="image;aspect=fixed;html=1;points=[];align=center;fontSize=12;image=img/lib/azure2/compute/Kubernetes_Services.svg;" parent="1" vertex="1">
          <mxGeometry x="1083.01" y="553" width="68" height="60" as="geometry" />
        </mxCell>
        <mxCell id="mC8NbQeeErdKrk85uzCq-7" style="edgeStyle=orthogonalEdgeStyle;rounded=0;orthogonalLoop=1;jettySize=auto;html=1;entryX=0;entryY=0.7;entryDx=0;entryDy=0;entryPerimeter=0;" parent="1" source="mC8NbQeeErdKrk85uzCq-3" target="mC8NbQeeErdKrk85uzCq-6" edge="1">
          <mxGeometry relative="1" as="geometry" />
        </mxCell>
        <mxCell id="mC8NbQeeErdKrk85uzCq-8" value="" style="shape=image;html=1;verticalAlign=top;verticalLabelPosition=bottom;labelBackgroundColor=#ffffff;imageAspect=0;aspect=fixed;image=https://cdn1.iconfinder.com/data/icons/unicons-line-vol-3/24/docker-128.png" parent="1" vertex="1">
          <mxGeometry x="960" y="540" width="40" height="40" as="geometry" />
        </mxCell>
        <mxCell id="mC8NbQeeErdKrk85uzCq-11" value="VideoKYC ECR&amp;nbsp; (Production)" style="outlineConnect=0;dashed=0;verticalLabelPosition=bottom;verticalAlign=top;align=center;html=1;shape=mxgraph.aws3.ecr_registry;fillColor=#F58534;gradientColor=none;whiteSpace=wrap;" parent="1" vertex="1">
          <mxGeometry x="637.2" y="910" width="52.8" height="60" as="geometry" />
        </mxCell>
        <mxCell id="mC8NbQeeErdKrk85uzCq-13" value="Build Promotor Jenkins job" style="text;html=1;align=center;verticalAlign=middle;resizable=0;points=[];autosize=1;strokeColor=none;fillColor=none;" parent="1" vertex="1">
          <mxGeometry x="693.4000000000001" y="740" width="170" height="30" as="geometry" />
        </mxCell>
        <mxCell id="mC8NbQeeErdKrk85uzCq-14" value="" style="shape=image;html=1;verticalAlign=top;verticalLabelPosition=bottom;labelBackgroundColor=#ffffff;imageAspect=0;aspect=fixed;image=https://cdn1.iconfinder.com/data/icons/unicons-line-vol-3/24/docker-128.png" parent="1" vertex="1">
          <mxGeometry x="680" y="640" width="40" height="40" as="geometry" />
        </mxCell>
        <mxCell id="mC8NbQeeErdKrk85uzCq-15" value="" style="shape=image;html=1;verticalAlign=top;verticalLabelPosition=bottom;labelBackgroundColor=#ffffff;imageAspect=0;aspect=fixed;image=https://cdn1.iconfinder.com/data/icons/unicons-line-vol-3/24/docker-128.png" parent="1" vertex="1">
          <mxGeometry x="667.2" y="790" width="40" height="40" as="geometry" />
        </mxCell>
        <mxCell id="mC8NbQeeErdKrk85uzCq-17" value="Prod k8s env" style="image;aspect=fixed;html=1;points=[];align=center;fontSize=12;image=img/lib/azure2/compute/Kubernetes_Services.svg;" parent="1" vertex="1">
          <mxGeometry x="1083.01" y="910" width="68" height="60" as="geometry" />
        </mxCell>
        <mxCell id="mC8NbQeeErdKrk85uzCq-18" value="" style="shape=image;html=1;verticalAlign=top;verticalLabelPosition=bottom;labelBackgroundColor=#ffffff;imageAspect=0;aspect=fixed;image=https://cdn1.iconfinder.com/data/icons/unicons-line-vol-3/24/docker-128.png" parent="1" vertex="1">
          <mxGeometry x="980" y="890" width="40" height="40" as="geometry" />
        </mxCell>
        <mxCell id="mC8NbQeeErdKrk85uzCq-32" style="edgeStyle=orthogonalEdgeStyle;rounded=0;orthogonalLoop=1;jettySize=auto;html=1;" parent="1" source="mC8NbQeeErdKrk85uzCq-19" target="mC8NbQeeErdKrk85uzCq-17" edge="1">
          <mxGeometry relative="1" as="geometry" />
        </mxCell>
        <mxCell id="mC8NbQeeErdKrk85uzCq-19" value="Prod Jenkins deployer Job" style="shape=image;verticalLabelPosition=bottom;labelBackgroundColor=default;verticalAlign=top;aspect=fixed;imageAspect=0;image=data:image/svg+xml,PHN2ZyB4bWxucz0iaHR0cDovL3d3dy53My5vcmcvMjAwMC9zdmciIHdpZHRoPSI5Mi43NSIgdmlld0JveD0iMTcuNSAwLjAwOTI4NDM0NzI5NTc2MTEwOCA5Mi43NSAxMjcuOTQ5NzkwOTU0NTg5ODQiIHByZXNlcnZlQXNwZWN0UmF0aW89InhNaWRZTWlkIG1lZXQiIGhlaWdodD0iMTI3Ljk0OTc5MDk1NDU4OTg0Ij48cGF0aCBmaWxsPSIjMjAxZDFlIiBkPSJtNjMuNjI1IDEyNy44MjVjLTEuNDc1LS4xNzUtMy43NzUtLjYtNS4wMjUtLjk1bC0xLjMtLjM3NS0uNy0xLjkyNWMtLjQtMS4wNzUtMS4zNS00LjAyNS0yLjEtNi41NzVsLTEuNC00LjYyNS0xLjk3NS0uMTVjLTMuMDI1LS4yMjUtNC43NS0uNzc1LTkuNzI1LTMuMDc1LTIuNDc1LTEuMTUtNC44NzUtMi4yMjUtNS4zMjUtMi4zNzUtLjQyNS0uMTc1LTEuMDI1LS42LTEuMzUtLjkyNS0uNTI1LS41NzUtLjYtLjkyNS0uOC00LjcyNWwtLjItNC4xMjUtMS40LTEuM2MtNy43LTcuMjUtMTIuODc1LTE3LjI3NS0xNC40NS0yNy45NzUtLjUtMy40NzUtLjUtMTAuMjI1IDAtMTMuNyAxLjU1LTEwLjYgNi43MjUtMjAuNjc1IDE0LjIyNS0yNy43bDIuMS0xLjk3NS4zLTIuMDc1Yy40NzUtMy41NSAxLjc1LTYuMTI1IDMuNjI1LTcuMzI1LjU1LS4zNzUgMS0uOTc1IDEuMjc1LTEuNyAxLjMyNS0zLjQ1IDMuNDc1LTUuMzI1IDEwLjYtOS4yNSA0LjY1LTIuNTc1IDkuMDc1LTQuMTI1IDEzLjM3NS00Ljc1IDIuMzI1LS4zMjUgNy4yMjUtLjMyNSA5LjQ1LjAyNSA2LjM3NS45NSA5Ljk1IDIuNzUgMTQuNTI1IDcuMyAzLjEgMy4xIDQuODc1IDUuNTUgNS45MjUgOC4yNzUuODc1IDIuMjUgMS44MjUgNi41NSAyLjEgOS4zNzVsLjE3NSAxLjg1IDIuMzc1IDIuNjVjOC4wMjUgOC45NSAxMi4zMjUgMjAuMiAxMi4zMjUgMzIuMTUgMCA3LjYtMS43IDE0Ljg3NS01LjAyNSAyMS40MjVsLTEuMjc1IDIuNTI1Ljc3NS42YzEuMTUuOSAxLjkgMi4zNzUgMy4xNSA2LjE3NS45MjUgMi43NzUgMS4xMjUgMy43NSAxLjEyNSA1LjIyNSAwIDMuMDUtMS4xIDYuMjUtMi43IDcuNzUtMS4zMjUgMS4yNS00LjgyNSAxLjc1LTkgMS4yNzUtMS4zNzUtLjE1LTEuNjUtLjI3NS0yLjEyNS0uOTI1bC0uNTUtLjcyNS0yLjEyNS4xMjVjLTIuNi4xNzUtNCAuNi00IDEuMiAwIC44MjUtLjMyNSAxLjI1LTEuMjc1IDEuNzUtLjkyNS40NS0uOTc1LjU1LS45NzUgMS42IDAgLjYyNS4yNzUgMi40MjUuNjI1IDQuMDI1IDEuMjI1IDUuNjc1LjcyNSA2LjcyNS0zLjcyNSA3LjcyNS0uNy4xNS0uNy4xNS0uNTUgMS42MjUuMzI1IDIuODUtMS4xNzUgNC01LjgyNSA0LjQ3NS0yLjM1LjI1LTExLjM3NS4zMjUtMTMuMTUuMXoiLz48ZyBmaWxsPSIjMzM1MDYxIj48cGF0aCBkPSJtNTEuMzc1IDExMC4yMjVjLTIuNTc1LS4zNS02LjEtMS42NzUtMTAuNDc1LTMuOTI1LTMuMTc1LTEuNjI1LTQuMjUtMi4zLTQuMy0yLjY3NS0uMDI1LS4yNzUtLjEyNS0xLjk1LS4yLTMuNzUtLjQyNS04Ljk1LTIuNC0xOC43LTUuMy0yNi0uNjI1LTEuNi0xLjEtMi45NS0xLjA1LTMgLjAyNS0uMDI1IDEuNDc1LTEuMSAzLjItMi4zNzUgMy41MjUtMi42IDguMDc1LTUuMzc1IDEwLjc3NS02LjU1bDEuOC0uOCAyLjE1IDIuMjc1YzIuMyAyLjQ3NSAzLjUyNSAzLjMgNy43NzUgNS4zNWwyLjY3NSAxLjI3NS40NSAxLjkyNWMuMjUgMS4wNS44MjUgMy4xIDEuMjc1IDQuNTc1LjY3NSAyLjEgMS4wMjUgMi44IDEuNjI1IDMuMy44MjUuNyAxLjMyNS44IDIuMzI1LjQuODUtLjMyNS44MjUtLjEtLjIyNSAxLjM1LTEuMDI1IDEuNDI1LTEuMSAyLjM1LS4zIDMuMDc1LjU1LjUyNSA3LjEgMy44NSA5LjA1IDQuNmwxIC40LTIuMzc1LjE1Yy0xLjMuMS00LjE1LjI3NS02LjM1LjQyNS0zLjUyNS4yNS03Ljg3NS42NzUtMTEuMiAxLjE1LTEuMTI1LjE1LTEuMTc1LjE1LTEuMzc1LS41NS0uMjI1LS44MjUtLjI1LTQuODc1LS4wNzUtOC45LjEyNS0yLjctLjA1LTMuNC0uNzI1LTIuOTc1LS41NzUuMzUtLjcyNSAyLjE1LS40NSA1LjQ3NS4yNzUgMy40NS4wNzUgNi0uNDUgNi4yLS4xNzUuMDc1LS45MjUtLjI3NS0xLjY3NS0uNzUtLjcyNS0uNS0xLjQtLjktMS41LS45LS4zNzUgMC0uMi45NS4zIDEuNTc1LjI3NS4zNS41LjguNSAxLjAyNSAwIC40MjUtLjc1LjktMS40NS45LS41MjUgMC0xLjQ3NS45LTEuMiAxLjE3NS4wNzUuMSAxLjMuMTUgMi43MjUuMTI1IDEuNC0uMDI1IDIuNjc1LjAyNSAyLjg1LjE1LjE3NS4xLjQyNSAxLjM3NS41NzUgMi45NS4xNSAxLjUyNS42IDUuMTI1IDEgOCAuNjc1IDQuOTUuNyA1LjY1LjMgNS41NzUtLjEtLjAyNS0uODUtLjEyNS0xLjY3NS0uMjV6Ii8+PHBhdGggZD0ibTgwLjQgMTA1LjkyNWMtLjMyNS0yLjQ1LS43LTEyLjcyNS0uNDUtMTIuOTc1LjEyNS0uMTI1IDEtLjI1IDEuOTUtLjI3NWwxLjctLjA1LjMgMS4zNWMuMTc1Ljc1LjUgMy41NS43MjUgNi4yNXMuNDI1IDUuMTI1LjQ1IDUuNGMuMDUuNS0uNDc1LjY3NS0zLjYgMS4yLS45MjUuMTI1LS45MjUuMTI1LTEuMDc1LS45eiIvPjxwYXRoIGQ9Im04Mi4xNzUgODguODI1Yy4zNzUtLjY3NSAxLjQtMi4zNzUgMi4zLTMuODI1czIuNDUtNC4wMjUgMy40NS01LjcyNWwxLjg1LTMuMS0uNzI1LS45Yy0xLjA3NS0xLjM1LTEuMDc1LTEuNC0uNjI1LTIuNDI1LjMtLjcyNS40MjUtMS43MjUuNDI1LTMuODUgMC0zLjQtLjQ1LTUuMy0xLjY1LTYuNjUtLjctLjc3NS0uOS0uODc1LTEuNzUtLjgtLjUyNS4wNS0uOTI1LjAyNS0uOS0uMDc1LjA1LS4xLjc3NS0uNzUgMS42LTEuNDVsMS41NS0xLjI3NSAyLjg3NSAyLjY3NWMxLjU3NSAxLjUgMy40NSAzLjIyNSA0LjE1IDMuODc1IDEuNTc1IDEuNDUgMS42IDEuNjc1LjQyNSA2LjUyNS0xLjI1IDUuMi00LjMyNSAxMy45NzUtNS42NSAxNi4xMjUtLjY1IDEuMDUtMS4xIDEuMi00LjIgMS40LTEuNDI1LjA3NS0yLjguMjUtMy4wNS40LS43NzUuNDI1LS44LjMtLjA3NS0uOTI1eiIvPjxwYXRoIGQ9Im04MC44NzUgODcuNzc1Yy40NzUtMS41LjkyNS00LjQyNSAxLjI3NS04LjI3NS40NzUtNC44NS41MjUtNSAyLjE3NS01IDEuMiAwIDIuMzc1LjUyNSAzLjMgMS41bC43LjcyNS0xLjU3NSAyLjdjLTIuMTI1IDMuNjUtNS41NSA4LjgyNS01LjgyNSA4LjgyNS0uMSAwLS4xNS0uMi0uMDUtLjQ3NXoiLz48L2c+PGcgZmlsbD0iI2QzMzgzMyI+PHBhdGggZD0ibTMxLjkgOTIuMjI1Yy0xNC40MjUtMTUuOS0xNS42LTQwLjMtMi43NS01Ny4zNzUgMS41NS0yLjA1IDUuMDI1LTUuODUgNS4zNzUtNS44NS4xIDAgLjI3NS4zNzUuMzUuODI1LjEyNS42NS0uMDI1IDEuMTc1LS42NzUgMi40MjUtLjggMS41NzUtLjgyNSAxLjY1LS44IDQuNzI1IDAgMi44MjUuMDc1IDMuMzUuNyA1LjAyNSAxLjM1IDMuNiAzLjQyNSA1LjgyNSA2LjI1IDYuNzc1bDEuMjUuNDI1LjQ1IDEuODI1Yy4yNS45NzUuOTUgMi43MjUgMS41NzUgMy44NSAxLjIyNSAyLjI1IDEuMzc1IDMuMDc1LjcgMy43LS4yNS4yLTIuNDI1IDEuNTI1LTQuODI1IDIuOTI1LTIuNCAxLjQyNS01LjMgMy4xNzUtNi40NSAzLjktMS4xMjUuNzUtMi42MjUgMS42MjUtMy4yNzUgMS45NzUtMS42MjUuODI1LTIuNTI1IDEuOS0yLjUyNSAzLjEgMCAuODc1IDIuMTI1IDcuMzUgMy42NzUgMTEuMjc1LjQyNSAxLjAyNSAxIDIuODI1IDEuMjc1IDQgLjYgMi41IDEuMzc1IDcuMzc1IDEuMjUgNy43NzUtLjA1LjE3NS0uNzUtLjQyNS0xLjU1LTEuM3oiLz48cGF0aCBkPSJtOTEuNzUgODguMzI1YzAtLjEuNjc1LTIuMTI1IDEuNTI1LTQuNTUgMi41LTcuMjUgNS0xNS41NSA1LjE1LTE3LjAyNS4xNS0xLjc1LS4yMjUtMi4zNS0zLjQyNS01LjItNC42LTQuMS01LjUtNS4wNS01LjUtNS43MjUgMC0uMzUuNTI1LTEuNiAxLjE1LTIuNzUgMS4yNS0yLjMgMi4wNS00LjQ1IDMtOC4xLjcyNS0yLjgyNSAxLjYtOC41MjUgMS42LTEwLjUgMC0uNzc1LjA3NS0xLjc3NS4xNS0yLjJsLjE3NS0uOC42MjUuNTc1YzIuNjUgMi40NzUgNi44IDkuNDI1IDguNTI1IDE0LjMgMS45MjUgNS40MjUgMi42IDkuNTUgMi42IDE1LjUyNSAwIDQuNjI1LS4yNzUgNy4xNzUtMS4yMjUgMTAuOS0uOSAzLjYtMS45NzUgNi41LTMuNjI1IDkuNzc1bC0xLjUgMi45LTEuNi4yNzVjLTEuNi4yNzUtMy41NzUuOTUtNi4xNzUgMi4xLS44LjM1LTEuNDUuNTc1LTEuNDUuNXoiLz48cGF0aCBkPSJtNjIuMTUgNzcuOTVjLS4xNzUtLjMyNS0uNzI1LTEuNjUtMS4xNzUtMi45NS0uNzc1LTIuMi0uODUtMi42LS44NS01LjUgMC0zLjQ1LjM1LTQuNiAxLjQ3NS00LjkgMS0uMjUgNC41MjUuODc1IDcuNiAyLjQyNSAxLjYuODI1IDMuMDc1IDEuNDc1IDMuMjUgMS40NzUuMzc1IDAgLjQuNjUuMDI1LjktLjE1LjEtLjguMy0xLjQ1LjQ3NS0xLjIuMzI1LTEuMTc1LjM3NS44Ljg3NSAxLjEyNS4zIDEuMTc1LjM1IDEuMTc1IDEuMjUgMCAuODUtLjE1IDEuMDI1LTIuMDUgMi41NS0yLjc3NSAyLjItMy41IDIuNi01Ljc3NSAzLjMyNS0yLjQuNzc1LTIuNTc1Ljc3NS0zLjAyNS4wNzV6Ii8+PHBhdGggZD0ibTgxLjM3NSA3Mi44NWMtMi43MjUtLjQ3NS0yLjYyNS0uNC0yLjYyNS0xLjgyNSAwLTEuMzc1LjM3NS0xLjc3NSAxLjYyNS0xLjc3NS4zNzUgMCAuNi0uMS41LS4yNS0uMDc1LS4xMjUtLjYyNS0uMjUtMS4yLS4yNS0uOTUgMC0xLjEtLjA3NS0xLjM1LS43NS0uMjc1LS43MjUtLjI3NS0uNzUgMS43MjUtMiA1LjQtMy40NzUgNi40NzUtMy4xIDcuMiAyLjU3NS4yMjUgMS44NzUuMTI1IDMuNDI1LS4zIDQuMjUtLjI3NS41MjUtMi42LjU1LTUuNTc1LjAyNXoiLz48cGF0aCBkPSJtNzQuNjI1IDcxLjY1Yy0uMzc1LS4yNzUtLjQ3NS0uNjc1LS41LTEuOCAwLTEuNDI1LjAyNS0xLjQ1LjgtMS42NzUgMi4xMjUtLjYyNSAzLjIgMi42MjUgMS4xNzUgMy41NS0uOC4zNS0uOS4zNS0xLjQ3NS0uMDc1eiIvPjwvZz48ZyBmaWxsPSIjNmY2YzZlIj48cGF0aCBkPSJtNjQuNjI1IDEyNC45NzVjLS44MjUtLjEyNS0yLjUtLjQ3NS0zLjc1LS43NzVsLTIuMjUtLjU3NS0xLjAyNS0zLjVjLTItNi43LTMuNTI1LTE0LjI1LTQuNTc1LTIyLjM3NS0uMjUtMi0uMzc1LTMuNzI1LS4yNzUtMy44MjUuMy0uMzUgOC4yLTEuMzc1IDEyLjgtMS42NzUgMy4yMjUtLjIgNS4zMjUtLjIgNy43NS0uMDI1IDQuMjc1LjM1IDQuNzUuNSA0Ljk3NSAxLjQuMTI1LjM3NS4zMjUgMy4yNS40NzUgNi4zNS4xNzUgMy4xLjMyNSA1LjcyNS40IDUuOC4wNS4wNzUuMiAzIC4zNSA2LjUuMjUgNS44NzUuNTc1IDEwLjI1LjkgMTEuMjc1LjE1LjUtLjY3NS44LTMuNjc1IDEuMzI1LTIuMzI1LjQtOS41MjUuNDc1LTEyLjEuMXoiLz48cGF0aCBkPSJtODAuOSAxMTcuMzI1Yy0uMDc1LTEuMDc1LS4yLTMuMy0uMy00Ljk3NS0uMTc1LTMuNC0uMjc1LTMuMiAxLjg1LTMuNWwxLjItLjE1LjY3NSAzLjQ1Yy4zNzUgMS45MjUuNjc1IDQuMS42NzUgNC44NzV2MS40bC0xLjQ1LjQyNWMtMi40NzUuNy0yLjQ3NS43LTIuNjUtMS41MjV6Ii8+PHBhdGggZD0ibTk3IDEwNS4wMjVjLS41NzUtLjQyNS0uMDI1LS42NSAyLjU3NS0xLjE3NSAzLjQtLjY1IDIuMjc1LS45NzUtMi43MjUtLjc1bC00LjA3NS4xNS0uMTI1LTEuMDVjLS4wNzUtLjYtLjI3NS0yLjI1LS40MjUtMy43LS4xMjUtMS40NS0uNDI1LTMuNDUtLjYyNS00LjQ3NS0uMzUtMS42NzUtLjM1LTEuODc1LjAyNS0yLjI3NS41NS0uNiAyLjIyNS0xLjM3NSA0Ljc1LTIuMjUgMS4xLS4zNzUgMi40NzUtLjkyNSAzLjA1LTEuMjI1IDIuNTUtMS4yNzUgNC41IDAgNS42NzUgMy42NzUgMS45NSA2LjE3NSAxLjk3NSA5LjA1LjE1IDExLjM3NS0xIDEuMjUtMi4zMjUgMS43MjUtNS4yNSAxLjg1LTEuNjI1LjA3NS0yLjc3NSAwLTMtLjE1em00LjUtNi4zYy0uOS0uMzc1LTQuMDI1LS41NzUtNS4xNS0uMzVsLS45NzUuMjI1Ljg3NS4xNWMuNDc1LjEgMiAuMiAzLjM3NS4yIDEuOTI1LjAyNSAyLjM1LS4wNSAxLjg3NS0uMjI1em0tMS4zNS0zLjE1YzEuMTUtLjE3NSAxLjE3NS0uMi40NzUtLjM1LTEuMy0uMy0zLjcyNS0uMjI1LTQuNS4xNS0uNzI1LjMyNS0uNjc1LjMyNSAxLjAyNS4zNS45NzUuMDI1IDIuMzI1LS4wNSAzLS4xNXptLTIuNC0yLjg3NWMxLjcyNS0xIDEuOTUtMS4yIDEuMjUtMS4wNzUtMS44NS4zNS0zLjIyNS45MjUtNC4xNSAxLjc3NWwtLjk3NS44NzUuODc1LS4xNzVjLjQ3NS0uMDc1IDEuODI1LS43IDMtMS40eiIvPjxwYXRoIGQ9Im04Ny45IDEwMy45NzVjLS4wNS0uMi0uMjc1LTEuNzUtLjUtMy40NzVzLS41NzUtNC4yNS0uOC01LjZjLS4yMjUtMS40NzUtLjI3NS0yLjU3NS0uMTUtMi43cy43NzUtLjIgMS40NS0uMTVsMS4yMjUuMDc1LjYgMS41Yy44IDIuMDI1IDEuMjUgNC43NzUgMS4yNzUgNy41NzUgMCAyLjMgMCAyLjMyNS0uNjc1IDIuNTc1LTEuMjUuNDc1LTIuMy41NzUtMi40MjUuMnoiLz48cGF0aCBkPSJtNzMuODc1IDg3LjE1Yy0xLjc3NS0uNzI1LTQuNTI1LTEuOTUtNi4wNzUtMi43NS0yLjUyNS0xLjMtMi44LTEuNS0yLjY1LTEuOTc1LjU1LTEuNzc1IDIuMTc1LTMuNiA0Ljc3NS01LjM3NS44NzUtLjU3NSAxLjYyNS0xLjA1IDEuNjc1LTEuMDUuNDc1IDAgMy43NSA2LjI3NSA1LjYyNSAxMC43LjY1IDEuNTUuNyAxLjguMzI1IDEuOC0uMjI1IDAtMS44NzUtLjYtMy42NzUtMS4zNXoiLz48cGF0aCBkPSJtODAuODc1IDg3Ljc3NWMuNDc1LTEuNS45MjUtNC40MjUgMS4yNzUtOC4yNzUuMzI1LTMuMjc1LjUyNS00LjQ1LjgtNC42NzUuOTUtLjc3NSAzLjQ3NS0uMSA0Ljc1IDEuMjVsLjU3NS42LS42MjUgMS4xYy0xLjM3NSAyLjQ3NS0yLjQ3NSA0LjI3NS00LjQ1IDcuMy0xLjkyNSAyLjk1LTIuNyAzLjg1LTIuMzI1IDIuN3oiLz48cGF0aCBkPSJtNzkuMzI1IDg3LjEyNWMtLjI3NS0uNTUtMS4wNS0yLjIyNS0xLjctMy43NS0xLjYyNS0zLjc3NS0yLjUtNS41LTMuNjc1LTcuMi0uOTUtMS40LS45NzUtMS41LS41NS0xLjk1LjI1LS4yNzUuNzc1LS40NzUgMS4yLS40NzUuNDI1LS4wMjUgMS4wNS0uMTc1IDEuNC0uMzc1LjkyNS0uNTI1IDEuNTI1LS40NSAyLjgyNS4zNzUuNjUuNCAxLjQ3NS44MjUgMS44MjUuOWwuNjc1LjE3NS0uMTc1IDMuOTc1Yy0uMTc1IDMuOS0uNjI1IDcuNDUtMS4xIDguNy0uMjI1LjYyNS0uMjI1LjYyNS0uNzI1LS4zNzV6bS4zLTZjMC0uNjI1LS4xLS43NS0uNjI1LS43NS0uNCAwLS42NS4xNS0uNy40NS0uMTUuNzUuMTUgMS4yMjUuNzUgMS4xMjUuNDUtLjA1LjU3NS0uMjI1LjU3NS0uODI1em0tLjc3NS00Yy4yMjUtLjYyNS0uMTI1LTEuMTI1LS43NS0xLjEyNS0uMzUgMC0uNjc1LjE3NS0uNzUuMzc1LS4yNS42MjUuMSAxLjEyNS43NSAxLjEyNS4zMjUgMCAuNjUtLjE3NS43NS0uMzc1eiIvPjxwYXRoIGQ9Im01Ni4xMjUgNjcuMjc1Yy0xLjc3NS0uNjI1LTMuMTc1LTEuMzc1LTMuNzI1LTJzLS4zNzUtMS40MjUuMy0xLjE1Yy43NzUuMzI1IDIuMTUuNTc1IDQuMTI1Ljc1IDIuMTI1LjE3NSAyLjE1LjIgMS42NSAxLjk1LS4yNzUgMS4wNS0uNSAxLjEtMi4zNS40NXoiLz48cGF0aCBkPSJtNzMuMzUgNjYuNTI1Yy0uODUtLjIyNS0yLjg1LTEuMjc1LTIuODUtMS41MjUgMC0uMS44MjUtLjEyNSAxLjgyNS0uMDUgMS4zNS4wNzUgMi41LS4wNSA0LjI1LS40NSAxLjM1LS4zIDIuNTUtLjUgMi42NzUtLjQ1LjE1LjA1LS41LjY3NS0xLjQyNSAxLjQtMS43NSAxLjM3NS0yLjQ3NSAxLjU1LTQuNDc1IDEuMDc1eiIvPjxwYXRoIGQ9Im01Ni44NzUgNjMuNzVjLTIuMzc1LS4yNS01LjA1LTEuMDc1LTYuNDI1LTItMS4zLS44NzUtMi41NzUtMi42MjUtMy43MjUtNS4xNzUtMS4xMjUtMi40NzUtMi4yMjUtNS43NS0yLjM3NS03LjI1LS4xNS0xLjIyNS0uMTI1LTEuMzUuNzUtMi40MjUuNjI1LS43MjUuOS0xLjMyNS44NS0xLjctLjEtLjc1LS42NzUtLjY1LTIuMDI1LjMyNS0xLjc3NSAxLjI3NS00LjA1Ljg3NS01Ljc1LTEtMS43NzUtMS45NzUtMy4xLTUuNDUtMi44NS03LjU1LjQ1LTMuODI1IDQuMzI1LTYuNSA3LjM1LTUuMDc1LjkyNS40NSAyLjEyNSAyLjI3NSAyLjU3NSAzLjkyNS4yNS44NzUuMzI1LjkyNSAxLjI3NS45MjUuNTUgMCAxLjM3NS0uMTc1IDEuODUtLjM1IDEuMDc1LS40NSAxLjEyNS0xLjAyNS4zMjUtMy45NzUtLjctMi42NzUtLjY3NS01IC4xNS04LjkuNy0zLjMuODI1LTUuODc1LjM3NS03LjY1LS4yNzUtMS4wNS0uMjI1LTEuMi41LTIuMzI1IDIuMjUtMy41IDguOTUtOC40IDEzLjc3NS0xMC4wNzUgMi4wNzUtLjcgNi42LS43NzUgOS41NzUtLjEyNSA0LjI1LjkyNSA4Ljg3NSAyLjkyNSAxMS4wNzUgNC44IDEuMDUuOSA1LjEgNS44NSA1LjEgNi4yNSAwIC4wNS0uNDI1LjA1LS45NS0uMDUtMi4wMjUtLjMyNS00LjA1Ljg1LTQuMDUgMi4zMjUgMCAuNTc1LjAyNS41NzUuNTUuMjI1Ljk3NS0uNyAzLjAyNS0uNTI1IDQuNzUuNCAyLjYgMS4zNzUgMy41MjUgMy4yIDMuOTc1IDcuODUuNDI1IDQuMjc1LjE1IDEyLjgtLjQ3NSAxNS45LTEuMDUgNC45NS0yLjY1IDguOTc1LTUuMjI1IDEyLjk1LTIuMDUgMy4xNS0yLjk3NSA0LjItNC44NSA1LjQyNS0zLjYyNSAyLjMyNS03LjQgMy41NzUtMTAuODUgMy41NzUtMi40NzUgMC00LjA1LS40NS02Ljk3NS0xLjk1LTIuNjc1LTEuMzc1LTUuODUtNC4yNzUtOC4zNS03LjYtLjktMS4yLTEuNjc1LTIuMTUtMS43NS0yLjEtLjI3NS4zLjY1IDIuMTI1IDEuOTUgMy44NSAxLjcgMi4yNzUgNS4yNSA1Ljc1IDYuNzI1IDYuNTc1LjU1LjMyNSAxLjAyNS43IDEuMDI1LjggMCAuMTI1LS42LjEyNS0xLjMyNS4wNS0xLjU3NS0uMi0zLjE1LjE3NS0zLjguODc1LS4yNS4yNzUtLjU3NS40NzUtLjcyNS40NzUtLjE1LS4wMjUtMS4wNS0uMTI1LTIuMDI1LS4yMjV6bTIzLjctOC43NWMuNS0uMTUgMS4xNS0uNTI1IDEuNDUtLjgyNWwuNS0uNTUtNC4yLS4xNWMtNS44LS4yLTcuMzUtLjctOS40LTIuOTc1LS42NS0uNy0xLjMyNS0xLjI1LTEuNTUtMS4yLS4yNS4wNS4xMjUuNyAxLjM1IDIuMiAyLjI3NSAyLjggMi44IDMuMjUgNC4yIDMuNjVzNi4xNzUuMyA3LjY1LS4xNXptLjMyNS01LjQyNWMtLjA3NS0uNTI1LS4xNS0xLjEyNS0uMTUtMS4zNSAwLS4zNS0uNTUtLjQyNS00LjA1LS41NS0zLjY3NS0uMS01LjM1LS4zNS03LjMyNS0xLjA3NS0uOTI1LS4zMjUgMS4xNzUgMS42NSAyLjQgMi4zIDEuNzUuODc1IDQuNzUgMS41IDcuNyAxLjU3NWwxLjYuMDI1em0zLjU1LjNjMS42MjUtLjUgMy40NS0xLjk1IDQuNi0zLjY1LjUtLjc1Ljg3NS0xLjM3NS44MjUtMS40MjUtLjAyNS0uMDUtMS4wNzUuNDI1LTIuMzI1IDEuMDUtMS4yMjUuNjI1LTIuNzc1IDEuMjc1LTMuNDUgMS40MjVzLTEuMzc1LjMyNS0xLjUyNS4zNzVjLS4yLjA1LS4zMjUuNTUtLjMyNSAxLjM1IDAgMS40NS4xIDEuNDc1IDIuMi44NzV6bS0zLjM3NS00LjZjMi0uNTI1IDMuMS0xIDUuNTUtMi40NzUgMS40MjUtLjgyNSAxLjU1LS45NzUgMS45NS0yLjMyNS4yMjUtLjguNDI1LTEuNTc1LjQyNS0xLjc1IDAtLjE1LS45NzUtMS4zLTIuMTUtMi41NS0zLjYyNS0zLjg3NS01Ljg1LTcuMDc1LTcuMjUtMTAuNTUtLjE3NS0uMzc1LS4yMjUtLjIyNS0uMy42NS0uMTUgMi4yNSAxLjQ1IDUuMzI1IDUuMDI1IDkuNjI1IDIuNTI1IDMgMi44NzUgMy43NSAyLjQgNC45LS4yNS42NS0uNzUuOTc1LTIuODI1IDEuOTc1LTMgMS40LTQuMSAxLjcyNS01LjggMS43MjUtMS41IDAtMi4yNzUtLjY1LTIuNTI1LTIuMTI1LS4xMjUtLjc1LS4yLS44NS0uNC0uNS0uMzUuNjUtLjI1IDIuMjI1LjIgMy4xLjM3NS43NS40NS43NzUgMi4xLjc3NS45MjUgMCAyLjU1LS4yMjUgMy42LS40NzV6bS00MC45LTUuOTVjLjA3NS0yLjE1LjUtMy4wNzUgMS40MjUtMy4wNzUuNjc1IDAgMS4xMjUuNDc1IDEuOTI1IDIgLjU3NSAxLjEyNS42IDEuMTI1LjY3NS40LjEyNS0xLjEtLjYyNS0yLjc3NS0xLjcyNS0zLjc1LS44LS43NS0xLjE3NS0uOS0yLjA3NS0uOS0uOTI1IDAtMS4yLjEyNS0xLjc1Ljc3NS0uOC45NS0uODI1IDEuMzUtLjA1Ljg1LjctLjQ3NSAxLjUyNS0uMjUgMS4yMjUuMzUtLjQuNzc1LS4yIDUuMjc1LjIyNSA1LjI3NS4wNSAwIC4xLS44NS4xMjUtMS45MjV6bTMxLjc1LTYuOTc1Yy43NS0uNTc1Ljk3NS0xLjEuODI1LTIuMS0uMDI1LS4yLS40NzUtLjgyNS0xLTEuMzc1LS41NS0uNTUtMS4zNzUtMS44NS0xLjg3NS0yLjg3NWwtLjg3NS0xLjg3NS4wNzUgMS4xMjVjLjEgMS4xNS43MjUgMi42NSAxLjcgNC4yLjUuNzc1LjUyNS44NzUuMTI1IDEuMjUtLjMyNS4zMjUtLjc3NS40LTEuOTc1LjM1LTMuNzUtLjItMy41NS0uMi0zLjYyNS4zNS0uMjUgMS43MjUgNC43IDIuNDI1IDYuNjI1Ljk1em0xOC43LTEuMDc1Yy41NS0uMjUgMS4yLS42NzUgMS40MjUtLjk1LjQyNS0uNDUuMzc1LS42LTEuMDUtMy40LTEuMzI1LTIuNTc1LTEuNS0yLjgyNS0xLjUtMi4wNSAwIC40NzUuMyAxLjYuNjc1IDIuNS41IDEuMi42IDEuNy40IDEuOS0uMTc1LjE3NS0xLjE3NS4zNzUtMi4yNS41LTEuMDc1LjEtMS45NzUuMi0yIC4yLS4yLjA1LS4wMjUuNzUuMzI1IDEuMjI1LjMuNDUuNjI1LjU1IDEuNjc1LjU1LjcyNSAwIDEuNzUtLjIyNSAyLjMtLjQ3NXptLTMxLjEyNS0xMC44NzVjMS41LTIuMDI1IDIuOTc1LTIuNzc1IDUuMzI1LTIuNzUgMS42NzUgMCAxLjcgMCAxLjYyNS0uNjI1LS4xMjUtMS0xLjU3NS0xLjg1LTIuOC0xLjY1LTIuMTc1LjMyNS00LjkyNSAyLjUyNS01LjggNC42LS42IDEuNC0uMzUgMy40NzUuMjc1IDIuMzc1LjEyNS0uMjI1Ljc1LTEuMSAxLjM3NS0xLjk1eiIvPjxwYXRoIGQ9Im00Ni45MjUgMzQuNTc1Yy0uMS0uMDc1LS4xNzUtLjQyNS0uMTc1LS43NSAwLTEuNTc1LTEuODc1LTMuNjc1LTMuOTI1LTQuMzUtMS4yLS40LTQuMi0uMTc1LTQuOC4zNzUtLjIyNS4yMjUtLjUyNS4zMjUtLjYuMjI1LS4xLS4wNzUtLjE3NS0xLjY1LS4xNzUtMy40NSAwLTQuMjUuMzUtNS40NzUgMi4wNzUtNy4zIDEuNzUtMS44NSA0LjgtMy4zNzUgNi44NS0zLjQyNWwxLjQ1LS4wMjUuMjI1IDEuNzI1Yy4yIDEuMzUuMTI1IDIuNTUtLjMgNS43NS0uNjc1IDUuMDI1LS42NzUgNS41IDAgOC4zMjUuNDUgMS45LjQ3NSAyLjM1LjIyNSAyLjY3NS0uMzc1LjQyNS0uNi41LS44NS4yMjV6Ii8+PHBhdGggZD0ibTQxLjY3NSAxNC4yYy44NS0xLjQ3NSAzLjE1LTMuNzI1IDUuMy01LjE1IDMuOC0yLjU1IDguOS00LjQyNSA4LjktMy4zIDAgLjItLjIyNS40NzUtLjUuNjI1LTIuMDI1IDEuMDI1LTQuMTUgMy4wNS01LjI1IDQuOTI1LS4zNzUuNjUtLjk3NSAxLjUyNS0xLjM3NSAxLjk1LS42NS43LS44MjUuNzUtMi4zLjcyNS0xLjAyNS0uMDI1LTIuMDc1LjE1LTMuMDUuNS0yLjA3NS43NS0yLjI3NS43LTEuNzI1LS4yNzV6Ii8+PC9nPjxnIGZpbGw9IiM0YTczOGQiPjxwYXRoIGQ9Im0zNy4yNSAxMDQuNDI1Yy0uMzUtLjItLjYtLjQ1LS41NzUtLjU3NS4wNzUtLjQyNS0uNC03LjQtLjY3NS05LjcyNS0uNTc1LTQuODUtMS43NS0xMC44NzUtMi43NzUtMTQuMjUtLjc3NS0yLjYyNS0xLjUyNS00LjgyNS0xLjc1LTUuMzc1LS4xNzUtLjM1LS4zNzUtLjg1LS41LTEuMTI1LS45LTIuMi0uOTc1LTIuNS0uNzI1LTIuNTc1LjE1LS4wNS45NS0uNjI1IDEuNzUtMS4yNzUgMy4yLTIuNTI1IDguMTUtNS43MjUgMTEtNy4wNS45LS40MjUgMS45LS45IDIuMjI1LTEuMDUuNTUtLjI3NS43LS4xNzUgMi4xNzUgMS40NS44NzUuOTUgMS42IDEuOCAxLjYgMS44NzUgMCAuMTc1LjE1LjEtOC4zNzUgMy44NzUtMy4zIDEuNDc1LTYuMDUgMi43LTYuMDc1IDIuNzUtLjA1LjA1LjIgMS40MjUuNTc1IDMuMDUgMS40MjUgNi4zMjUgMi41MjUgMTIuOCAzLjEyNSAxOC4yNzUuNDUgNC4xMjUuMyAxMi4wNS0uMjI1IDEyLjA1LS4wNzUgMC0uNDI1LS4xNS0uNzc1LS4zMjV6Ii8+PHBhdGggZD0ibTc5Ljk1IDk2LjZjLS4yNS0uMjI1LS4yNS0xLjc1LS4wNS0yLjguMTc1LS44NzUuNS0xLjA1IDIuMzI1LTEuMTUgMS4yLS4xIDEuMjUtLjA3NSAxLjUuNjc1LjE1LjQuMjc1IDEuMTI1LjI3NSAxLjYgMCAuNzUtLjEyNS45LS45MjUgMS4yNS0xLjEuNDUtMi44NzUuNy0zLjEyNS40MjV6Ii8+PHBhdGggZD0ibTQ5IDk1Ljc1Yy0xLjc1LS4zLTIuNjUtLjYtMy40NS0xLjEyNS0uNzI1LS40NzUtLjk3NS0uNzc1LS43NS0uOS4xNS0uMS40MjUtLjEyNS41NzUtLjAyNS4xMjUuMSAxLjQ1LjE3NSAyLjkyNS4xNzUgMS42MjUgMCAyLjc3NS4xIDIuOTUuMjc1LjE1LjE1LjI1LjY3NS4yIDEuMTVsLS4wNzUuODV6Ii8+PHBhdGggZD0ibTUyLjQgOTEuMWMtLjItLjUyNS0uMi02LjY3NSAwLTkuNTVsLjE3NS0yLjI3NS45NSAxLjIuOTc1IDEuMjI1djQuNzc1YzAgMi42MjUtLjA3NSA0Ljc3NS0uMTc1IDQuOC0uMTI1IDAtLjU1LjA1LTEgLjEtLjU1LjA3NS0uODI1IDAtLjkyNS0uMjc1eiIvPjxwYXRoIGQ9Im03NC41MjUgODcuMzc1Yy0yLjctMS4wNzUtOC41NS0zLjg3NS05LjItNC40MjUtLjQ3NS0uNC42NS0yLjM3NSAyLjItMy44MjUgMS43NS0xLjY1IDMuNjc1LTIuOTUgNC4xLTIuOC42LjI1IDIuODI1IDQuMTc1IDQuNSA3Ljk1IDEuNiAzLjcgMS44IDQuMjI1IDEuNDUgNC4yMjUtLjEyNSAwLTEuNDc1LS41MjUtMy4wNS0xLjEyNXoiLz48cGF0aCBkPSJtODAuODc1IDg3Ljg3NWMuNjc1LTEuOTUgMS4yNzUtNiAxLjUyNS0xMC4wNzUuMTc1LTIuNy4yLTIuODUuNzc1LTMuMDc1IDEuNDI1LS41MjUgMy4zLjAyNSA0LjUyNSAxLjM1bC41NzUuNi0uNjI1IDEuMWMtMy4wNSA1LjQ3NS03LjQgMTEuOTI1LTYuNzc1IDEwLjF6Ii8+PHBhdGggZD0ibTkxLjk1IDY2LjEyNWMtMi4wMjUtMS41LTQuMDc1LTMuMTUtNC41MjUtMy42LS40NzUtLjQ3NS0xLjItMS0xLjY1LTEuMTVsLS44LS4yNSAxLjM1LTEuMTc1IDEuMzUtMS4xNzUgMi4zNSAyLjNjMS4zIDEuMjc1IDMuMSAyLjk1IDQuMDI1IDMuNzUgMS43NSAxLjUgMi4yMjUgMi40NSAxLjc3NSAzLjU1LS4xNzUuNDUtLjU1LjI1LTMuODc1LTIuMjV6Ii8+PC9nPjxnIGZpbGw9IiM4M2IzYzciPjxwYXRoIGQ9Im02NSAxMjQuOWMtMy4yMjUtLjUtNS45MjUtMS4xNS02LjItMS40NzUtLjM1LS40MjUtMS42MjUtNC45MjUtMi43NzUtOS43LTEuNi02LjUtMy42LTE5LjI3NS0zLjEtMTkuNzI1LjI3NS0uMjc1IDYuNTI1LTEuMTc1IDEwLjU3NS0xLjUyNSA0LjgyNS0uNDI1IDE0LS4wNSAxNC42MjUuNTc1LjA3NS4wNS4zIDMuMDc1LjUgNi43MjUuMiAzLjYyNS40MjUgNy4wNS41IDcuNnMuMjUgMy42NzUuMzc1IDYuOTI1LjM3NSA2LjcyNS41MjUgNy43MjVjLjIyNSAxLjQyNS4yIDEuODI1LS4wNSAyLTEuNS45MjUtMTEuMDI1IDEuNDc1LTE0Ljk3NS44NzV6Ii8+PHBhdGggZD0ibTgxLjEyNSAxMTljLS4wNS0uMDc1LS4xNzUtMi4zLS4yNzUtNC45bC0uMTc1LTQuNzUgMS4zLS4zYzEuNS0uMzUgMS43NzUtLjI1IDEuNzc1LjU1IDAgLjMyNS4yMjUgMS42MjUuNSAyLjkyNXMuNTc1IDMuMS42NSA0LjAyNWMuMTc1IDEuNjc1LjE3NSAxLjY3NS0uNTUgMS45NzUtLjk3NS4zNzUtMy4xLjctMy4yMjUuNDc1eiIvPjxwYXRoIGQ9Im05Ny42MjUgMTA1LjAyNWMtLjk3NS0uMTc1LS45NzUtLjItLjM3NS0uNDUuMzUtLjE1IDEuMDI1LS4zMjUgMS41LS40MjUgMi43MjUtLjUyNSAzLjI3NS0uNzI1IDMtMS0uMi0uMTc1LTEuNjI1LS4yNS00LjYtLjJsLTQuMy4wNzUtLjQyNS0zLjk1Yy0uMjUtMi4xNzUtLjYtNC42MjUtLjgtNS40NWwtLjM1LTEuNS42NzUtLjU1Yy4zNzUtLjMyNSAxLjQ3NS0uODc1IDIuNDI1LTEuMjI1Ljk3NS0uMzc1IDIuNy0xLjA1IDMuODc1LTEuNTUgMi41NS0xLjA1IDMuNi0xLjEyNSA0LjcyNS0uMyAxLjEuNzc1IDEuODI1IDIuNDI1IDIuNzc1IDYuMjUuOCAzLjM1LjkyNSA1IC40NSA2LjU3NS0uNDI1IDEuNC0yLjA1IDMuMDUtMy4zMjUgMy4zNzUtMS40MjUuMzc1LTQuMDc1LjUyNS01LjI1LjMyNXptNC4xNzUtNi4zYy0xLjMyNS0uNTI1LTMuODUtLjc1LTUuMi0uNDc1LTIuMzI1LjUtMS41MjUuNzUgMi4yMjUuNzI1IDIuNDUgMCAzLjM3NS0uMDc1IDIuOTc1LS4yNXptLS40NzUtMy4yYy40NS0uMTc1LjM1LS4yNS0uNy0uNDI1LTIuNTI1LS40MjUtNS4zNzUtLjA1LTUuMzc1LjcyNSAwIC4yNzUgNS4yLjAyNSA2LjA3NS0uM3ptLTMuNC0yLjhjMS4zLS43IDIuMzI1LTEuMyAyLjI3NS0xLjM1LS4xNzUtLjE3NS0yLjUyNS40LTMuNjc1Ljg3NS0uNjc1LjMtMS41NS44NzUtMS45MjUgMS4zbC0uNzI1Ljc3NS44NS0uMTc1Yy40NS0uMDc1IDEuOS0uNzI1IDMuMi0xLjQyNXoiLz48cGF0aCBkPSJtODggMTA0YzAtLjI3NS0xLjQtOS45LTEuNjI1LTExLjA1LS4xLS43LS4xLS43IDEuMjc1LS43aDEuMzc1bC41IDEuMTI1Yy43NSAxLjY3NSAxLjIgNC4xMjUgMS40IDcuMjc1bC4xNSAyLjc3NS0xLjIuNDI1Yy0xLjQuNDUtMS44NzUuNS0xLjg3NS4xNXoiLz48cGF0aCBkPSJtNzYuODc1IDg4LjE3NWMtMy40NS0xLjEyNS0xMS42MjUtNC45NS0xMS42MjUtNS40NSAwLTEuMyAyLjItMy45IDQuNjUtNS41bDEuNjUtMS4wNS41NzUuNzI1YzEuMTI1IDEuMzUgNS45IDExLjIgNS41NzUgMTEuNDc1LS4wNS4wMjUtLjQtLjA1LS44MjUtLjJ6Ii8+PHBhdGggZD0ibTgxLjEgODcuNjI1Yy40NzUtMS4yNzUgMS4zNS03Ljg1IDEuNDI1LTExLjA3NWwuMDUtMS41NS45LS4yNWMxLjI3NS0uMzI1IDIuNjc1LjA1IDMuNjc1IDEuMDI1LjQ3NS40NS44NS45MjUuODUgMS4wNSAwIC4zMjUtMy4zNSA1Ljk1LTUuMiA4Ljc1LTEuNSAyLjI3NS0yLjA1IDIuOTI1LTEuNyAyLjA1eiIvPjxwYXRoIGQ9Im03OS4xNzUgODYuNTc1Yy0uMzI1LS42NS0xLjMtMi44LTIuMTUtNC43MjUtLjg1LTEuOTUtMi4wNS00LjMtMi42NzUtNS4yNS0xLTEuNTUtMS4xLTEuNzc1LS44LTIuMy4yLS40LjQ1LS41NS43NzUtLjQ1LjI3NS4wNzUgMS4wNS0uMSAxLjcyNS0uMzc1bDEuMjI1LS40NzUgMS41NzUuODc1Yy44NzUuNDc1IDEuNzUuODc1IDEuOTc1Ljg3NS41IDAgLjUtLjIyNS4xNzUgNC45LS4yMjUgMy41NzUtLjc3NSA3LjcyNS0xLjEgOC4wMjUtLjA3NS4wNzUtLjQtLjQyNS0uNzI1LTEuMXptLjYtNC45NzVjLjQyNS0uNTI1IDAtMS4yMjUtLjc3NS0xLjIyNXMtMS4yLjctLjc3NSAxLjIyNWMuMi4yMjUuNTI1LjQuNzc1LjRzLjU3NS0uMTc1Ljc3NS0uNHptLS45MjUtNC40Yy4zMjUtLjUyNS0uMDUtMS4yNzUtLjY1LTEuNC0uNC0uMDc1LTEuMi41NzUtMS4yLjk1cy44IDEuMDI1IDEuMi45NWMuMi0uMDUuNS0uMjc1LjY1LS41eiIvPjxwYXRoIGQ9Im01Ni4xMjUgNjcuMTVjLTEuNjI1LS41MjUtMy41NzUtMS42LTMuODc1LTIuMTUtLjQyNS0uNzc1LS4xLTEgLjg1LS42MjUuNDUuMiAxLjg1LjQyNSAzLjEyNS41MjUgMS4yNS4xIDIuMzI1LjI1IDIuNC4zNS4wNS4wNzUtLjAyNS42MjUtLjE3NSAxLjItLjMgMS4xNzUtLjU3NSAxLjI1LTIuMzI1Ljd6Ii8+PHBhdGggZD0ibTczIDY2LjMyNWMtLjg1LS4zLTIuNS0xLjE3NS0yLjUtMS4zMjUgMC0uMS41NzUtLjA1IDEuMjc1LjEgMS4wNzUuMjI1IDEuNzUuMTUgNC4zNzUtLjM3NSAxLjctLjM3NSAzLjEtLjYyNSAzLjEtLjU3NSAwIC4wMjUtLjY3NS41NzUtMS40NzUgMS4yLTEuNCAxLjA3NS0xLjU3NSAxLjE1LTIuOTUgMS4xMjUtLjggMC0xLjYyNS0uMDc1LTEuODI1LS4xNXoiLz48cGF0aCBkPSJtNTYuMzc1IDYzLjU3NWMtMS4yNzUtLjEyNS00LjIyNS0xLTUuNC0xLjU3NS0xLjI3NS0uNjUtMi40NS0yLjA3NS0zLjY1LTQuMzc1LTEuMTI1LTIuMi0yLjY3NS02LjYtMi45NS04LjQtLjE1LTEuMDc1LS4xMjUtMS4yLjg1LTIuMzI1IDEuMDc1LTEuMjI1IDEuMTc1LTEuNTI1Ljc3NS0yLjE1LS4yLS4zMjUtLjM3NS0uMy0xLjE3NS4xNzUtMi4zIDEuMzI1LTIuNDc1IDEuNC0zLjY3NSAxLjIyNS0xLjgyNS0uMjc1LTMuMDc1LTEuNDI1LTQuMzc1LTMuOTUtLjk3NS0xLjg3NS0xLjEyNS0yLjQyNS0xLjIyNS00LjEyNXMtLjAyNS0yLjE1LjQ1LTMuMWMxLjI1LTIuNSAyLjktMy40IDUuODUtMy4yNSAxLjA1LjA1IDIuNDI1IDEuNiAzLjAyNSAzLjQuMjUuODI1LjU1IDEuNi42NSAxLjcuMy4zNzUgMi43NS0uMTI1IDMuNDI1LS43bC42NS0uNTUtLjY3NS0yLjg1Yy0uODUtMy42MjUtLjg1LTQuODI1LjA3NS05LjMuODUtNC4xMjUuOS01LjIyNS40LTcuMTc1bC0uMzc1LTEuMzc1LjgtMS4zNWMyLjEtMy41IDEwLjA1LTkuMSAxNC40MjUtMTAuMTI1IDUuOTc1LTEuNDI1IDE2LjAyNSAxLjIyNSAyMC4zMjUgNS4zMjUgMS4xNzUgMS4xMjUgNC40MjUgNS4yIDQuNDI1IDUuNTc1IDAgLjAyNS0uNzI1LjA3NS0xLjYuMDc1LTEuMzc1IDAtMS43LjEtMi4yNzUuNjI1LS43MjUuNjc1LTEuMiAxLjY1LTEgMiAuMDc1LjEyNS41MjUuMDUgMS0uMTUgMS42NzUtLjcgMy44NS0uMiA1LjYgMS4zMjUgMi4xMjUgMS44MjUgMi43IDQuMDI1IDIuOTI1IDExLjMyNS4yNzUgOC43NzUtLjk1IDE1LjE1LTQuMDUgMjEuMzI1LS43MjUgMS40LTMuMjc1IDUuMzI1LTQuMyA2LjU1LTIuMDUgMi40NzUtNy45NzUgNS4xNzUtMTIuMTUgNS41MjUtMi4zNS4yLTQuMjUtLjItNy4wMjUtMS41LTMuODUtMS44MjUtNi40MjUtNC4xLTkuNy04LjYyNS0uODUtMS4xNS0xLjU3NS0xLjk3NS0xLjYyNS0xLjgtLjE1LjQyNSAxLjEyNSAzLjAyNSAyLjE3NSA0LjQgMS40NzUgMS45NSA1LjAyNSA1LjQ3NSA2LjM1IDYuMzI1bDEuMi43NS0yIC4wNzVjLTEuNjUuMDc1LTIuMS4yLTIuNTc1LjY3NS0uNjI1LjU1LTEuMS42LTMuNTc1LjM3NXptMjQuMDI1LTguNDVjMS4wNzUtLjMyNSAyLjM1LTEuMjI1IDIuMzUtMS42MjUgMC0uMS0xLjY1LS4xNzUtMy42NzUtLjE3NS01Ljg3NS4wMjUtOC41MjUtLjc3NS0xMC4yNzUtMy4wNzUtLjQ3NS0uNjI1LTEtMS4xNS0xLjE3NS0xLjItLjcyNS0uMTc1LS42LjUuMjI1IDEuNTI1LjUuNTc1IDEuMzc1IDEuNjUgMS45NSAyLjQgMS4yIDEuNSAyLjMyNSAyLjIgNC4xMjUgMi41MjUgMS41MjUuMjc1IDUgLjA3NSA2LjQ3NS0uMzc1em0uNTUtNS45MjUtLjA3NS0xLjMyNS0zLjUtLjE3NWMtMy43NzUtLjE3NS02LjIyNS0uNTI1LTcuNi0xLjEtLjQ3NS0uMi0uOS0uMzI1LS45MjUtLjI3NS0uMDUuMDUuMjUuNS42NzUgMSAxLjUgMS44IDUuMzc1IDMuMTI1IDkuNDI1IDMuMTVsMi4wNzUuMDI1em00LjkyNS4yYy42LS4zNSAxLjUtMS4wNzUgMi0xLjYyNSAxLjAyNS0xLjA3NSAyLjQyNS0zLjA3NSAyLjI1LTMuMjI1LS4wNS0uMDUtLjkyNS4zNS0xLjkyNS44NzUtMS45MjUgMS4wNS00LjYgMi4wNzUtNS40NSAyLjA3NS0uNDUgMC0uNS4xNzUtLjUgMS40djEuNDI1bDEuMjc1LS4xNWMuNy0uMSAxLjc1LS40NSAyLjM1LS43NzV6bS00LjYyNS00LjA3NWMxLjY3NS0uNDI1IDMuNTUtMS4yNzUgNS41MjUtMi40NzUgMS4zMjUtLjggMS41LTEgMS44NS0yLjE1LjU3NS0yIC41LTIuMjUtMS4wNzUtMy44NzUtMy40MjUtMy40NS03LjE1LTguNzc1LTcuNjUtMTAuODc1LS4wNzUtLjQtLjMyNS0uNy0uNTI1LS43LS45MjUgMCAuMDUgMy43MjUgMS42MjUgNi4zNS40NzUuNzc1IDEuNjc1IDIuNCAyLjYyNSAzLjU1IDMuMzc1IDQuMTI1IDMuNTI1IDQuNDI1IDIuODUgNS45MjUtLjU1IDEuMjI1LTcuMiAzLjY3NS05LjA1IDMuMzI1LTEuMDc1LS4yLTEuNDUtLjY1LTEuNjUtMS44NS0uMTc1LTEuMDc1LS41NS0xLjE3NS0uODc1LS4yNS0uMzI1LjkuMDUgMi40Ljc1IDMuMTI1LjYuNi43MjUuNjI1IDIuNDI1LjQ1IDEtLjEgMi40MjUtLjM1IDMuMTc1LS41NXptLTQwLjQtOC41NWMuMjc1LS4zLjYtLjUyNS43NzUtLjUyNS40MjUgMCAxLjIyNS45NSAxLjkgMi4yNWwuNiAxLjEyNS4wNzUtMS4xNzVjLjEtMS40LS41NS0yLjgyNS0xLjctMy44LTEuNTI1LTEuMjUtMy4yLTEuMTI1LTQuMTc1LjMyNS0uNzI1IDEuMDc1LS43MjUgMS40MjUtLjAyNS45MjUuMy0uMjI1Ljc3NS0uNCAxLjAyNS0uNC40IDAgLjQyNS4xMjUuMjUuODI1LS4zIDEuMTc1LS4yIDMuNy4yIDQuNTUuMy43MjUuMzI1LjY1LjQ3NS0xLjQyNS4xLTEuNjI1LjI1LTIuMy42LTIuNjc1em0zMS4zLTQuNTI1YzEuMTc1LTEuMTc1IDEuMTI1LTEuODc1LS4yNzUtMy40NS0uNjI1LS43LTEuNTUtMi4xNS0yLjA3NS0zLjIyNS0uOC0xLjcyNS0uOTI1LTEuODc1LTEtMS4yMjUtLjEuNzUuNzc1IDMuNSAxLjMyNSA0LjE1LjE3NS4yLjUuNzI1LjcgMS4xNS40LjguNC44LS4zMjUgMS4xLS41MjUuMjI1LTEuMy4yNS0yLjY3NS4xLTEuMDc1LS4xLTIuMDUtLjItMi4yLS4yMjUtLjQ1IDAtLjQyNSAxLjE1LjAyNSAxLjY1LjY1LjcyNSAxLjc1Ljk3NSAzLjguODc1IDEuNjc1LS4wNzUgMS45LS4xNSAyLjctLjl6bTE5LjAyNS0xLjEyNWMuNi0uMzc1IDEuMTc1LS44MjUgMS4yNS0xIC4xLS4zMjUtMi44NS02LjYyNS0zLjEyNS02LjYyNS0uMzI1IDAgLjIyNSAyLjguODI1IDQuMS43NzUgMS43NS43MjUgMS44LTEuNjI1IDIuMDI1LS45LjEtMS43NzUuMi0xLjkyNS4yNS0uNTUuMTc1LS4zNSAxLjA3NS4zNzUgMS42MjUuNTUuNDUuODc1LjUyNSAxLjkuNC42NS0uMDc1IDEuNy0uNDI1IDIuMzI1LS43NzV6bS0zMi40NS05LjQ3NWMuOS0xLjUyNSAyLjQyNS0zLjAyNSAzLjY3NS0zLjU1LjQ1LS4yIDEuNTUtLjM1IDIuNDUtLjM1czEuNy0uMTI1IDEuNzc1LS4yNWMuNS0uODI1LTEuMTc1LTIuMjUtMi42NzUtMi4yNS0xLjE1IDAtMy4yIDEuMDUtNC40NzUgMi4zMjUtMS4wNSAxLjA1LTIuMjI1IDMuMTUtMi4yMjUgNCAwIC40NS40MjUgMS40MjUuNjI1IDEuNDI1LjA1IDAgLjQyNS0uNi44NS0xLjM1eiIvPjxwYXRoIGQ9Im0zNy4zNSAyOC42Yy0uMi0xLjcgMC01LjM3NS40LTYuNjUuODI1LTIuOCA0LjYyNS01LjQ3NSA4LjY1LTYuMS45MjUtLjEyNSAxLjA1LS4xIDEuMTc1LjQyNS4yNS45LjIyNS45NzUtLjQuOTc1LS45NzUgMC0zLjcyNSAxLTQuOTc1IDEuOC0zIDEuOS00Ljc3NSA1LjgtNC4zIDkuNDI1LjEuNzUuMDUgMS4yNzUtLjEgMS4zNzUtLjE3NS4xLS4zMjUtLjM3NS0uNDUtMS4yNXoiLz48cGF0aCBkPSJtNDEuNSAxNC43NWMwLS4xLjUyNS0uODc1IDEuMTUtMS43MjUgMS4zNS0xLjggNC4xNS0zLjk3NSA3LjA1LTUuNDc1IDIuMjc1LTEuMTc1IDUuNDc1LTIuMzc1IDUuODI1LTIuMTUuNDUuMjUuMi43NzUtLjUgMS4xMjUtNS4zMjUgMi42LTcuMTUgMy44LTkuNSA2LjI1LTEuMSAxLjEyNS0xLjcgMS41MjUtMi43IDEuODI1LS43MjUuMi0xLjMyNS4yNzUtMS4zMjUuMTV6Ii8+PC9nPjxnIGZpbGw9IiNmMWQ4YjkiPjxwYXRoIGQ9Im03MyA2Ni4yNzVjLS44NzUtLjI3NS0yLjItLjk3NS0yLjM3NS0xLjI3NS0uMS0uMTc1LjA3NS0uMTc1LjUgMCAxLjAyNS4zNzUgMi41LjMgNS40NS0uMzUgMS40NzUtLjMyNSAyLjY3NS0uNTUgMi42NzUtLjUyNXMtLjY3NS41NzUtMS40NzUgMS4yMjVjLTEuMzUgMS4wNS0xLjYgMS4xNS0yLjgyNSAxLjEyNS0uNzI1IDAtMS42LS4xLTEuOTUtLjJ6Ii8+PHBhdGggZD0ibTU2LjA3NSA2My40NzVjLTIuMDI1LS4yNS00LjYyNS0xLjE1LTUuOC0xLjk3NS0xLjM1LS45NzUtMi42NzUtMy4wNS0zLjk3NS02LjE1LS45NzUtMi4zNzUtMi4wNS01Ljk3NS0yLjA1LTYuODc1IDAtLjI1LjQ1LS45NzUgMS4wMjUtMS42MjUgMS4wNS0xLjIgMS4yMjUtMi4xNS40MjUtMi4zLS4yMjUtLjA1LTEuMDUuMzI1LTEuOC44NS0xLjIuOC0xLjUyNS45LTIuNDI1Ljc3NS0xLjctLjIyNS0zLjIyNS0xLjM1LTQuMy0zLjE3NS0yLjUyNS00LjM1LTIuMTc1LTguMzc1LjkyNS0xMC40MjUgMS4wNS0uNzI1IDEuNDI1LS44MjUgMi43NzUtLjgyNSAxLjIyNSAwIDEuNy4xMjUgMi4yNS41NS43LjU1IDIuMTI1IDMuMjI1IDIuMTI1IDQuMDI1IDAgLjI1LjE3NS41LjM3NS41NzUuNy4yNzUgMi42MjUtLjE3NSAzLjMtLjc1bC42NS0uNTc1LS42NS0yLjljLS44NS0zLjY3NS0uODUtNC43MjUuMDc1LTkuMTUuODUtNC4wMjUuOTI1LTUuNjI1LjM3NS03LjQyNS0uMzUtMS4xNzUtLjMyNS0xLjI1LjI1LTIuMjUgMS41MjUtMi42IDUuMTI1LTUuNyA5LjYyNS04LjI1IDMuMzUtMS44NzUgNC44NzUtMi4zNzUgOC0yLjUyNSA0LjQtLjIyNSA4LjcyNS43NzUgMTMuNjUgMy4xNzUgMi4xNzUgMS4wNSAyLjc3NSAxLjQ3NSA0LjI1IDMuMDc1Ljk1IDEuMDI1IDIuMiAyLjU1IDIuOCAzLjRsMS4wNzUgMS41MjVoLTEuNDI1Yy0xLjYgMC0yLjU3NS40NzUtMy4yIDEuNS0uNTUuOTUtLjUyNSAxLjYuMDUgMS4zNzUgMi0uODUgMy41NzUtLjY3NSA1LjYuNiAyLjQ1IDEuNTUgMy4wNzUgMy4zNzUgMy41IDEwIC41MjUgOC41LS42MjUgMTUuODI1LTMuNDI1IDIxLjk1LTEuMTI1IDIuNDUtNC4xIDYuOTc1LTUuNDI1IDguMjI1LTEuOSAxLjgyNS01LjM3NSAzLjYtOC43IDQuNDc1LTIuMjUuNi01Ljc1LjYtNy41LjAyNS00LjMyNS0xLjQ1LTcuODc1LTQuMTc1LTExLjM1LTguNzI1LTEuMjI1LTEuNi0yLjI3NS0yLjg3NS0yLjM1LTIuODI1LS4yMjUuMjI1Ljc1IDIuNTc1IDEuNTI1IDMuNyAxLjQgMi4wMjUgNS4xIDUuODUgNi43MjUgNi45NWwxLjU1IDEuMDI1LTEuMzI1LS4xYy0xLjYtLjE1LTIuNjUuMTI1LTMuNC44MjUtLjU3NS41NS0uOTc1LjU1LTMuOC4yMjV6bTIzLjY1LTguMTVjMS41MjUtLjMyNSAzLjAyNS0xLjI1IDMuMDI1LTEuODc1IDAtLjEtMS42NS0uMi0zLjY3NS0uMi00LjI1LjAyNS01LjQ1LS4xMjUtNy4yNzUtLjgtMS41MjUtLjU3NS0yLjU1LTEuMzc1LTMuMy0yLjU3NS0uMzI1LS41LS43NS0uODc1LTEuMDI1LS44NzUtLjg3NSAwLS43MjUuMjI1IDIuNTUgNC4zMjUuNDI1LjUyNSAxLjAyNSAxLjEyNSAxLjM3NSAxLjMyNSAxLjYgMS4wNzUgNS4xMjUgMS4zNSA4LjMyNS42NzV6bTEuMjc1LTZjMC0uODUtLjEyNS0xLjM3NS0uMy0xLjQ1LS4xNzUtLjA1LTEuNzc1LS4xNS0zLjU3NS0uMjUtNC4xLS4xNzUtNi4xNS0uNTI1LTcuOTc1LTEuMjUtLjQtLjE3NS0uNDI1LS4xMjUtLjE3NS4zIDEuMTc1IDIuMjUgNS44NSAzLjkyNSAxMC45NzUgMy45NzVoMS4wNXptNC40LjNjLjcyNS0uMyAxLjc1LTEuMDI1IDIuMzI1LTEuNi45NS0uOTUgMi42LTMuMyAyLjQyNS0zLjQ3NS0uMDUtLjAyNS0xLjIyNS41LTIuNjI1IDEuMTc1cy0zLjE1IDEuMzc1LTMuOSAxLjUyNWwtMS4zNzUuMjc1djEuNTI1IDEuNWwuOTUtLjE3NWMuNS0uMDc1IDEuNS0uNDI1IDIuMi0uNzV6bS0zLjg1LTQuMjc1YzEuNDc1LS40NSAzLjEyNS0xLjIyNSA1LjI1LTIuNSAxLjItLjcyNSAxLjQ3NS0xLjA1IDEuOC0yLjAyNS42MjUtMS44LjUyNS0yLjctLjM1LTMuMzc1LTIuMjc1LTEuNzc1LTcuMzUtOC42MjUtOC4xMjUtMTAuOTUtLjI1LS43NzUtLjU1LTEuMjUtLjgtMS4yNS0uMzI1IDAtLjM3NS4yMjUtLjIyNSAxLjQ1LjI1IDIuMSAyIDUuNDUgNC4yNzUgOC4xNzUgMi45NSAzLjUyNSAzLjM3NSA0LjE1IDMuMzc1IDQuOSAwIDEuNDI1LS40IDEuOC0zLjIyNSAzLjA1LTIuOSAxLjI3NS00LjM1IDEuNjI1LTUuODc1IDEuNS0xLjI1LS4xLTEuNjI1LS40MjUtMS44LTEuNjI1LS4yLTEuMTUtLjQ3NS0xLjQtLjgyNS0uNzI1LS41NSAxLjAyNS0uMjc1IDIuNS43IDMuNjI1LjM1LjQuNjUuNDI1IDIuNDUuMyAxLjEyNS0uMSAyLjY1LS4zNSAzLjM3NS0uNTV6bS00MC42LTguNjVjLjUtLjUuNTUtLjUgMS4xNS0uMS4zNS4yMjUuOTUgMSAxLjMyNSAxLjcyNWwuNyAxLjMuMDc1LTEuMTc1Yy4yLTMtMy4wNzUtNS43NS01LjE1LTQuMy0uNi40LTEuNDI1IDEuOC0xLjIgMi4wMjUuMDc1LjA3NS4zLS4wNS41MjUtLjI3NXMuNjI1LS40LjkyNS0uNGMuNDI1IDAgLjQ3NS4xLjI3NS44MjUtLjMgMS4yMjUtLjIgMy45NzUuMiA0LjY3NS4zMjUuNTc1LjM1LjQ3NS41LTEuNTc1LjEyNS0xLjc3NS4yNS0yLjMyNS42NzUtMi43MjV6bTMwLjQ1LTMuODVjMS45NS0uOTI1IDIuMS0yLjMyNS40NzUtNC4wNzUtLjYtLjY1LTEuNTI1LTIuMDc1LTIuMDUtMy4xNzUtLjgyNS0xLjc1LS45NS0xLjktMS4wMjUtMS4yNS0uMTI1LjkyNS41NSAzIDEuNDc1IDQuNDI1LjQuNjI1LjcyNSAxLjI3NS43MjUgMS40MjUgMCAuOC0yLjE1Ljk3NS00LjguNC0uOC0uMTc1LTEuMS4yNzUtLjg1IDEuMjUuMyAxLjI1IDQuMTc1IDEuODc1IDYuMDUgMXptMTkuNjUtMS42NWMxLjctLjk1IDEuNy0xLS4wNS00LjUyNS0uODUtMS43NS0xLjYtMy4xNzUtMS42NzUtMy4xNzUtLjM1IDAgLjIgMi44MjUuOCA0LjEyNS43MjUgMS42LjYyNSAxLjg1LS43NSAxLjktLjk3NS4wMjUtMi40MjUuMi0yLjguMzUtLjU1LjItLjM1IDEuMDc1LjM3NSAxLjYyNS41NS40NS44NzUuNTI1IDEuODc1LjQuNjc1LS4wNzUgMS42NzUtLjQgMi4yMjUtLjd6bS0zMi40NS05LjI3NWMuMjc1LS41NzUgMS4wNzUtMS42MjUgMS43NS0yLjMyNSAxLjQ3NS0xLjQ1IDIuOTI1LTEuOTc1IDQuOS0xLjggMS4wNS4xIDEuMjc1LjA1IDEuMzc1LS4zMjUuMzUtMS4wNS0xLjEtMi4yMjUtMi42NzUtMi4yMjUtMi4wNSAwLTUgMi4yMjUtNi4xIDQuNTc1LS42NSAxLjQyNS0uNzI1IDEuOTc1LS4zNSAyLjcuMzc1LjcuNTc1LjYgMS4xLS42eiIvPjwvZz48ZyBmaWxsPSIjZjZmNWY1Ij48cGF0aCBkPSJtNjYuNzUgMTI1LjFjLS4zNS0uMDUtMS40NzUtLjIyNS0yLjUtLjM3NS0yLjMtLjMyNS01LjA1LS45NzUtNS4zNS0xLjI1LS41MjUtLjQ3NS0yLjc1LTguNjUtMy44NzUtMTQuMjc1LS44MjUtNC4wMjUtMS45NzUtMTEuOC0yLjA3NS0xMy45NWwtLjA3NS0xLjM1IDEuMTI1LS4yYzYuNTI1LTEuMTc1IDE2LjA3NS0xLjc1IDIwLjg3NS0xLjIyNSAxLjUyNS4xNzUgMi45LjQ1IDMuMDUuNi4zLjMuNzUgNi4yMjUgMS4zMjUgMTcuOTI1LjI3NSA1LjYuNyAxMS4yNS45IDEyLjI3NS4xNS42MjUuMDc1LjY3NS0xLjQ3NSAxLjA1LTMgLjc1LTkuMjUgMS4xNS0xMS45MjUuNzc1eiIvPjxwYXRoIGQ9Im04MC45MjUgMTE1Ljg1Yy0uMS0xLjc3NS0uMTc1LTMuOTUtLjE3NS00Ljg3NXYtMS42MjVsMS4zMjUtLjI3NWMuNy0uMTUgMS4zNS0uMjI1IDEuNC0uMi4xNzUuMTc1IDEuNSA3LjU1IDEuNTI1IDguNDUgMCAxLjA3NS0uNDc1IDEuMzc1LTIuNjUgMS42bC0xLjI3NS4xMjV6Ii8+PHBhdGggZD0ibTk3Ljk1IDEwNS4wNzVjLS41MjUtLjA1LS45NS0uMi0uOTUtLjM1IDAtLjEyNS4wNS0uMjI1LjEtLjIyNS4xMjUgMCAzLjUtLjY3NSA0LjM3NS0uOS40NzUtLjEuNTI1LS4yLjMtLjQyNXMtMS41MjUtLjI3NS00LjYtLjIyNWwtNC4zMjUuMDUtLjQyNS00LjA1Yy0uMjUtMi4yNS0uNi00LjctLjgtNS40NWwtLjM3NS0xLjM3NS42NzUtLjU1Yy4zNzUtLjMyNSAyLTEuMDI1IDMuNTc1LTEuNnMzLjQyNS0xLjMyNSA0LjA3NS0xLjY1YzEuODUtLjkyNSAzLjctLjI1IDQuNjc1IDEuNjc1LjcgMS4zNSAyLjI1IDcuNTUgMi4yNSA4Ljk1IDAgMi44LTEuNTI1IDUuMjI1LTMuNjI1IDUuNzUtMS4yNS4zMjUtMy43MjUuNS00LjkyNS4zNzV6bTQuNS02LjJjLS4wNzUtLjA3NS0xLjAyNS0uMy0yLjEtLjUyNS0yLjM3NS0uNDUtNS4xLS4yMjUtNS4xLjQyNSAwIC4xMjUgMS42NS4yMjUgMy42NzUuMjI1IDIgMCAzLjYtLjA1IDMuNTI1LS4xMjV6bS0uOTUtMy4zNzVjLjQyNS0uMjUtMS41MjUtLjYtMy4zNzUtLjYyNS0xLjMgMC0yLjg3NS41LTIuODc1Ljk1IDAgLjI3NSA1LjY1IDAgNi4yNS0uMzI1em0tNC45NzUtMmMuNzUtLjQyNSAxLjk1LTEuMDUgMi42NzUtMS40czEuMjc1LS43IDEuMjI1LS43NWMtLjA1LS4wNzUtLjkyNS4wNS0xLjk1LjI1LTEuNzc1LjM3NS00LjQ3NSAxLjgyNS00LjQ3NSAyLjQgMCAuNDc1IDEuMi4yNSAyLjUyNS0uNXoiLz48cGF0aCBkPSJtODcuODc1IDEwMi44MjVjLS4wNzUtLjgtLjQyNS0zLjItLjc3NS01LjMyNS0uMzI1LTIuMTI1LS42LTQuMTc1LS42LTQuNTUgMC0uNjc1LjA1LS43IDEuMjc1LS43IDEuMjUgMCAxLjI1IDAgMS43NSAxLjEyNS43MjUgMS42NSAxLjIgNC4xIDEuMzc1IDcuMjc1bC4xNzUgMi43NS0xLjMyNS40MjVjLS43MjUuMjI1LTEuNC40MjUtMS41LjQyNXMtLjI3NS0uNjUtLjM3NS0xLjQyNXoiLz48cGF0aCBkPSJtNzguOTUgODZjLS41LTEuMDI1LTEuNDc1LTMuMi0yLjItNC44LS43LTEuNi0xLjgtMy42NzUtMi40LTQuNnMtMS4xLTEuNzI1LTEuMS0xLjhjMC0uMzUuODI1LTEgMS4xMjUtLjkuMTc1LjA3NS43MjUtLjA1IDEuMjUtLjI1IDEuMzUtLjU3NSAyLjEtLjUgMy4zNzUuMzUuNjI1LjQgMS4zNzUuNzUgMS43Ljc1LjU1IDAgLjU1LjAyNS40MjUgMi44MjUtLjIgMy45MjUtLjYyNSA3LjY3NS0xIDkuMWwtLjMyNSAxLjJ6bS44MjUtNC40Yy40MjUtLjUyNSAwLTEuMjI1LS43NzUtMS4yMjVzLTEuMi43LS43NzUgMS4yMjVjLjIuMjI1LjUyNS40Ljc3NS40cy41NzUtLjE3NS43NzUtLjR6bS0uOTI1LTQuNGMuMzI1LS41MjUtLjA1LTEuMjc1LS42NS0xLjQtLjQtLjA3NS0xLjIuNTc1LTEuMi45NXMuOCAxLjAyNSAxLjIuOTVjLjItLjA1LjUtLjI3NS42NS0uNXoiLz48cGF0aCBkPSJtNTUuOCA2N2MtMi41MjUtLjktNC4xLTIuMDc1LTMuNjc1LTIuNzUuMDc1LS4xMjUuNS0uMDc1Ljk1LjEyNS40MjUuMTc1IDEuODUuNDI1IDMuMTI1LjU3NSAxLjI3NS4xMjUgMi4zNzUuMjc1IDIuNDI1LjM1LjA1LjA1LS4wMjUuNTc1LS4xNzUgMS4xNS0uMyAxLjIyNS0uNiAxLjMtMi42NS41NXoiLz48cGF0aCBkPSJtNTAuODI1IDYxLjc1Yy0xLjE1LS42NzUtMS4wMjUtLjg1LjEyNS0uMiAxLjE1LjY3NSAxLjIuNy45LjctLjEyNSAwLS42LS4yMjUtMS4wMjUtLjV6Ii8+PHBhdGggZD0ibTQ3LjM1IDU3LjQ3NWMtLjM1LS43LS42LTEuMzI1LS41NS0xLjM3NXMuNC41MjUuNzc1IDEuMjc1LjYyNSAxLjM3NS41NSAxLjM3NS0uNC0uNTc1LS43NzUtMS4yNzV6Ii8+PHBhdGggZD0ibTQ0LjUgNDcuOTc1YzAtLjIuMzI1LS41NzUuNy0uODI1bC42NzUtLjQ3NS0uNjI1LjcyNWMtLjM1LjQtLjY1Ljc3NS0uNjc1LjgyNS0uMDUuMDUtLjA3NS0uMDUtLjA3NS0uMjV6Ii8+PHBhdGggZD0ibTM1LjU3NSAzNy42MjVjMC0uNTUuMDUtLjc1LjEtLjQyNS4wNS4zLjA1Ljc1IDAgMS0uMDc1LjIyNS0uMTI1LS4wMjUtLjEtLjU3NXoiLz48cGF0aCBkPSJtMzcuMjUgMzMuMzc1Yy40NzUtLjQ3NS45LS44NzUuOTc1LS44NzVzLS4yNS40LS43MjUuODc1LS45Ljg3NS0uOTc1Ljg3NS4yNS0uNC43MjUtLjg3NXoiLz48cGF0aCBkPSJtNDMuNTc1IDMzLjE3NWMtLjEtLjE3NS0uNDc1LS41MjUtLjgyNS0uNzUtLjMyNS0uMjI1LS41MjUtLjQyNS0uNDI1LS40MjUuMzUgMCAxLjM3NS43NzUgMS41MjUgMS4xNS4xNzUuNDUgMCAuNDUtLjI3NS4wMjV6Ii8+PHBhdGggZD0ibTQwLjQ1IDMxLjgyNWMuMy0uMDUuNzUtLjA1IDEgMCAuMjI1LjA3NS0uMDI1LjEyNS0uNTc1LjEtLjU1IDAtLjc1LS4wNS0uNDI1LS4xeiIvPjxwYXRoIGQ9Im0zNy4zNzUgMjguMzVjLS4yNS0yLjIgMC01LjE1LjUyNS02LjcyNS44MjUtMi4zNzUgNC4wMjUtNC43MjUgNy41NzUtNS41MjUgMS0uMjI1IDEuODUtLjM1IDEuOS0uMy4wNzUuMDUuMTUuMzUuMTc1LjY3NS4wNzUuNS0uMS42MjUtMS43NSAxLjA1LTIuNDUuNjI1LTQuMSAxLjU1LTUuNTUgMy4xNS0xLjcgMS44NzUtMi4zMjUgMy41NzUtMi4zNzUgNi42MjUtLjAyNSAxLjM1LS4xIDIuNS0uMTc1IDIuNi0uMS4wNzUtLjIyNS0uNjI1LS4zMjUtMS41NXoiLz48cGF0aCBkPSJtNTguMTc1IDE4LjYyNWMuMy0uNC45LTEuMDc1IDEuMzUtMS41LjYyNS0uNTUuNTUtLjQyNS0uMjUuNS0xLjQ3NSAxLjY3NS0xLjcgMS44NzUtMS4xIDF6Ii8+PHBhdGggZD0ibTQxLjUgMTQuODc1YzAtLjM3NSAxLjIyNS0xLjk3NSAyLjQyNS0zLjIgMi4zMjUtMi4zNSA1LjY3NS00LjQgOS41NS01Ljc3NSAxLjI3NS0uNDc1IDEuOTI1LS42IDIuMTI1LS40LjQyNS40MjUtLjEuOC0zLjI1IDIuMzI1LTIuNiAxLjI1LTQuNzUgMi43NzUtNi42IDQuNjc1LS45LjkyNS0xLjg1IDEuNzUtMi4xMjUgMS44MjVzLS44NzUuMjUtMS4zLjM3NWMtLjQ1LjE1LS44MjUuMjI1LS44MjUuMTc1eiIvPjxwYXRoIGQ9Im04OC4yNSAxMy43NWMtLjE1LS4yNzUtLjE3NS0uNS0uMDc1LS41LjEyNSAwIC4zNS4yMjUuNTI1LjVzLjIuNS4wNS41Yy0uMTI1IDAtLjM1LS4yMjUtLjUtLjV6Ii8+PHBhdGggZD0ibTUyLjEyNSAxMWMuOTUtLjk1IDEuOC0xLjc1IDEuODUtMS43NS4wNzUgMC0uNjUuOC0xLjYgMS43NS0uOTUuOTc1LTEuOCAxLjc1LTEuODUgMS43NS0uMDc1IDAgLjY1LS43NzUgMS42LTEuNzV6Ii8+PHBhdGggZD0ibTU0LjM1IDkuMDVjLjItLjMyNSAxLjY1LTEuNCAxLjY1LTEuMjI1IDAgLjA3NS0uNDI1LjQyNS0uOTI1LjgyNS0uNS4zNzUtLjgyNS41NzUtLjcyNS40eiIvPjxwYXRoIGQ9Im03OS41IDUuODc1Yy0uMzUtLjItLjUtLjM1LS4zNzUtLjM1LjE1IDAgLjUyNS4xNS44NzUuMzVzLjUyNS4zNS4zNzUuMzVjLS4xMjUgMC0uNTI1LS4xNS0uODc1LS4zNXoiLz48cGF0aCBkPSJtNjAgNS4zNzVjMC0uMTc1IDIuMDI1LTEuMTc1IDIuMTUtMS4wNzUuMDUuMDc1LS40MjUuMzUtMS4wMjUuNjUtLjYyNS4zLTEuMTI1LjUtMS4xMjUuNDI1eiIvPjxwYXRoIGQ9Im02Ny43IDMuMDc1Yy4zLS4wNS44LS4wNSAxLjEyNSAwIC4zLjA1LjA1LjEtLjU3NS4xcy0uODc1LS4wNS0uNTUtLjF6Ii8+PC9nPjwvc3ZnPg==;whiteSpace=wrap;" parent="1" vertex="1">
          <mxGeometry x="840" y="895" width="65.39" height="90" as="geometry" />
        </mxCell>
        <mxCell id="mC8NbQeeErdKrk85uzCq-20" value="" style="shape=image;html=1;verticalAlign=top;verticalLabelPosition=bottom;labelBackgroundColor=#ffffff;imageAspect=0;aspect=fixed;image=https://cdn1.iconfinder.com/data/icons/unicons-line-vol-3/24/docker-128.png" parent="1" vertex="1">
          <mxGeometry x="773.01" y="890" width="40" height="40" as="geometry" />
        </mxCell>
        <mxCell id="mC8NbQeeErdKrk85uzCq-25" value="Pulls" style="edgeStyle=orthogonalEdgeStyle;rounded=0;orthogonalLoop=1;jettySize=auto;html=1;exitX=1;exitY=0.5;exitDx=0;exitDy=0;exitPerimeter=0;" parent="1" source="mC8NbQeeErdKrk85uzCq-11" target="mC8NbQeeErdKrk85uzCq-19" edge="1">
          <mxGeometry relative="1" as="geometry" />
        </mxCell>
        <mxCell id="mC8NbQeeErdKrk85uzCq-29" value="PPBL" style="text;html=1;align=center;verticalAlign=middle;resizable=0;points=[];autosize=1;strokeColor=none;fillColor=none;fontStyle=1;fontSize=19;" parent="1" vertex="1">
          <mxGeometry x="165" y="485" width="70" height="40" as="geometry" />
        </mxCell>
        <mxCell id="mC8NbQeeErdKrk85uzCq-33" value="Non Production" style="text;html=1;strokeColor=none;fillColor=none;align=center;verticalAlign=middle;whiteSpace=wrap;rounded=0;fontStyle=1" parent="1" vertex="1">
          <mxGeometry x="440" y="495" width="80" height="30" as="geometry" />
        </mxCell>
        <mxCell id="mC8NbQeeErdKrk85uzCq-35" value="Production" style="text;html=1;strokeColor=none;fillColor=none;align=center;verticalAlign=middle;whiteSpace=wrap;rounded=0;fontStyle=1" parent="1" vertex="1">
          <mxGeometry x="440" y="880" width="60" height="30" as="geometry" />
        </mxCell>
        <mxCell id="mC8NbQeeErdKrk85uzCq-39" value="Video KYC Deployment Architecture" style="text;html=1;align=center;verticalAlign=middle;resizable=0;points=[];autosize=1;strokeColor=none;fillColor=none;fontStyle=1;fontSize=17;" parent="1" vertex="1">
          <mxGeometry x="500" y="408" width="320" height="30" as="geometry" />
        </mxCell>
        <mxCell id="pKAWVjOvwdQ6wrN8_Efs-4" style="edgeStyle=orthogonalEdgeStyle;rounded=0;orthogonalLoop=1;jettySize=auto;html=1;entryX=0.5;entryY=1;entryDx=0;entryDy=0;" edge="1" parent="1" source="pKAWVjOvwdQ6wrN8_Efs-3" target="G6czuGKD653RPVQLfgZw-3">
          <mxGeometry relative="1" as="geometry" />
        </mxCell>
        <mxCell id="pKAWVjOvwdQ6wrN8_Efs-3" value="VideoKYC developers" style="shape=umlActor;verticalLabelPosition=bottom;verticalAlign=top;html=1;outlineConnect=0;" vertex="1" parent="1">
          <mxGeometry x="220" y="700" width="30" height="60" as="geometry" />
        </mxCell>
      </root>
    </mxGraphModel>
  </diagram>
</mxfile>
